<svg width="14" height="14" viewBox="0 0 14 14" fill="none" xmlns="http://www.w3.org/2000/svg">
<g clip-path="url(#clip0_35_351)">
<path d="M7 13.9999C10.866 13.9999 14 10.8659 14 6.99994C14 3.13395 10.866 -6.10352e-05 7 -6.10352e-05C3.13401 -6.10352e-05 0 3.13395 0 6.99994C0 10.8659 3.13401 13.9999 7 13.9999Z" fill="url(#paint0_linear_35_351)"/>
<path d="M7 1.66791C4.06325 1.66791 1.66797 4.06319 1.66797 6.99994C1.66797 9.93663 4.06325 12.332 7 12.332C9.93674 12.332 12.332 9.93663 12.332 6.99994C12.332 4.06319 9.93674 1.66791 7 1.66791ZM9.46094 8.23041C9.46094 8.9933 8.93594 9.63311 8.23047 9.81361V10.2812C8.23047 10.5108 8.05003 10.6913 7.82031 10.6913C7.5906 10.6913 7.41016 10.5108 7.41016 10.2812V9.87103H6.58984V10.2812C6.58984 10.5108 6.4094 10.6913 6.17969 10.6913C5.94997 10.6913 5.76953 10.5108 5.76953 10.2812V9.87103H4.94922C4.7195 9.87103 4.53906 9.69054 4.53906 9.46088C4.53906 9.23116 4.7195 9.05072 4.94922 9.05072H5.35937V4.94916H4.94922C4.7195 4.94916 4.53906 4.76866 4.53906 4.539C4.53906 4.30929 4.7195 4.12884 4.94922 4.12884H5.76953V3.71869C5.76953 3.48897 5.94997 3.30853 6.17969 3.30853C6.4094 3.30853 6.58984 3.48897 6.58984 3.71869V4.12884H7.41016V3.71869C7.41016 3.48897 7.5906 3.30853 7.82031 3.30853C8.05003 3.30853 8.23047 3.48897 8.23047 3.71869V4.18627C8.93594 4.36671 9.46094 5.00658 9.46094 5.76947C9.46094 6.26163 9.23942 6.69642 8.89492 6.99994C9.23942 7.30345 9.46094 7.73819 9.46094 8.23041ZM7.82031 7.41009H6.17969V9.05072H7.82031C8.27148 9.05072 8.64062 8.68158 8.64062 8.23041C8.64062 7.77924 8.27148 7.41009 7.82031 7.41009ZM7.82031 4.94916H6.17969V6.58978H7.82031C8.27148 6.58978 8.64062 6.22064 8.64062 5.76947C8.64062 5.3183 8.27148 4.94916 7.82031 4.94916Z" fill="url(#paint1_linear_35_351)"/>
</g>
<defs>
<linearGradient id="paint0_linear_35_351" x1="7" y1="13.9999" x2="7" y2="-6.10352e-05" gradientUnits="userSpaceOnUse">
<stop stop-color="#FD5900"/>
<stop offset="1" stop-color="#FFDE00"/>
</linearGradient>
<linearGradient id="paint1_linear_35_351" x1="7" y1="12.332" x2="7" y2="1.66791" gradientUnits="userSpaceOnUse">
<stop stop-color="#FFE59A"/>
<stop offset="1" stop-color="#FFFFD5"/>
</linearGradient>
<clipPath id="clip0_35_351">
<rect width="14" height="14" fill="white"/>
</clipPath>
</defs>
</svg>
