<svg width="91" height="92" viewBox="0 0 91 92" fill="none" xmlns="http://www.w3.org/2000/svg">
<g filter="url(#filter0_i_35_938)">
<path d="M58.9375 15.125H23.0625C21.7033 15.125 20.3997 15.665 19.4386 16.6261C18.4775 17.5872 17.9375 18.8908 17.9375 20.25V81.75C17.9375 83.1092 18.4775 84.4128 19.4386 85.3739C20.3997 86.335 21.7033 86.875 23.0625 86.875H58.9375C60.2967 86.875 61.6003 86.335 62.5614 85.3739C63.5225 84.4128 64.0625 83.1092 64.0625 81.75V20.25C64.0625 18.8908 63.5225 17.5872 62.5614 16.6261C61.6003 15.665 60.2967 15.125 58.9375 15.125ZM43.5625 79.1875H38.4375C37.7579 79.1875 37.1061 78.9175 36.6255 78.437C36.145 77.9564 35.875 77.3046 35.875 76.625C35.875 75.9454 36.145 75.2936 36.6255 74.813C37.1061 74.3325 37.7579 74.0625 38.4375 74.0625H43.5625C44.2421 74.0625 44.8939 74.3325 45.3745 74.813C45.855 75.2936 46.125 75.9454 46.125 76.625C46.125 77.3046 45.855 77.9564 45.3745 78.437C44.8939 78.9175 44.2421 79.1875 43.5625 79.1875Z" fill="#4F5664"/>
</g>
<g filter="url(#filter1_d_35_938)">
<path d="M59 10C47.9724 10 39 18.9724 39 30C39 41.0276 47.9724 50 59 50C70.0276 50 79 41.0276 79 30C79 18.9724 70.0276 10 59 10ZM70.1779 24.7368L57.396 37.4185C56.6441 38.1704 55.4411 38.2206 54.6391 37.4687L47.8722 31.3033C47.0702 30.5514 47.0201 29.2982 47.7218 28.4962C48.4737 27.6942 49.7268 27.6441 50.5288 28.396L55.8922 33.3083L67.3208 21.8797C68.1228 21.0777 69.3759 21.0777 70.1779 21.8797C70.9799 22.6817 70.9799 23.9348 70.1779 24.7368Z" fill="#FFA204"/>
</g>
<defs>
<filter id="filter0_i_35_938" x="17.9375" y="15.125" width="46.125" height="75.75" filterUnits="userSpaceOnUse" color-interpolation-filters="sRGB">
<feFlood flood-opacity="0" result="BackgroundImageFix"/>
<feBlend mode="normal" in="SourceGraphic" in2="BackgroundImageFix" result="shape"/>
<feColorMatrix in="SourceAlpha" type="matrix" values="0 0 0 0 0 0 0 0 0 0 0 0 0 0 0 0 0 0 127 0" result="hardAlpha"/>
<feOffset dy="4"/>
<feGaussianBlur stdDeviation="5"/>
<feComposite in2="hardAlpha" operator="arithmetic" k2="-1" k3="1"/>
<feColorMatrix type="matrix" values="0 0 0 0 0.314392 0 0 0 0 0.334323 0 0 0 0 0.379167 0 0 0 1 0"/>
<feBlend mode="normal" in2="shape" result="effect1_innerShadow_35_938"/>
</filter>
<filter id="filter1_d_35_938" x="27" y="0" width="64" height="64" filterUnits="userSpaceOnUse" color-interpolation-filters="sRGB">
<feFlood flood-opacity="0" result="BackgroundImageFix"/>
<feColorMatrix in="SourceAlpha" type="matrix" values="0 0 0 0 0 0 0 0 0 0 0 0 0 0 0 0 0 0 127 0" result="hardAlpha"/>
<feOffset dy="2"/>
<feGaussianBlur stdDeviation="6"/>
<feComposite in2="hardAlpha" operator="out"/>
<feColorMatrix type="matrix" values="0 0 0 0 1 0 0 0 0 0.635294 0 0 0 0 0.0156863 0 0 0 0.4 0"/>
<feBlend mode="normal" in2="BackgroundImageFix" result="effect1_dropShadow_35_938"/>
<feBlend mode="normal" in="SourceGraphic" in2="effect1_dropShadow_35_938" result="shape"/>
</filter>
</defs>
</svg>
