<svg width="82" height="82" viewBox="0 0 82 82" fill="none" xmlns="http://www.w3.org/2000/svg">
<g clip-path="url(#clip0_35_987)">
<g filter="url(#filter0_i_35_987)">
<path d="M34.9998 77C40.4331 77 44.9781 73.1268 46.0219 68H23.9778C25.022 73.1268 29.5671 77 34.9998 77Z" fill="#4F5664"/>
</g>
<g filter="url(#filter1_i_35_987)">
<path d="M57.7278 48.4877C57.6498 48.4877 57.5778 48.4998 57.4998 48.4998C44.2668 48.4998 33.5002 37.7332 33.5002 24.5002C33.5002 19.3009 35.18 14.4982 38.0002 10.5618V7.99982C38.0002 6.34088 36.656 5 34.9998 5C33.3442 5 32 6.34088 32 7.99982V11.2402C21.8387 12.7042 14 21.4432 14 32V40.3639C14 46.3009 11.399 51.905 6.83582 55.7629C5.66907 56.7621 5 58.2139 5 59.7498C5 62.6453 7.35492 65.0002 10.2498 65.0002H59.7498C62.6453 65.0002 65.0002 62.6453 65.0002 59.7498C65.0002 58.2139 64.3311 56.7621 63.1342 55.7393C60.7699 53.7381 58.9462 51.248 57.7278 48.4877Z" fill="#4F5664"/>
</g>
<g filter="url(#filter2_d_35_987)">
<path d="M57.4999 5C46.7481 5 38.0002 13.7479 38.0002 24.5002C38.0002 35.252 46.7481 43.9998 57.4999 43.9998C68.2522 43.9998 77.0001 35.252 77.0001 24.5002C77.0001 13.7479 68.2522 5 57.4999 5V5ZM60.5002 31.2502C60.5002 32.4922 59.4922 33.5002 58.2502 33.5002C57.0082 33.5002 56.0002 32.4922 56.0002 31.2502V21.4998H54.5001C53.2581 21.4998 52.2501 20.4918 52.2501 19.2498C52.2501 18.0078 53.2581 16.9998 54.5001 16.9998H58.2502C59.4922 16.9998 60.5002 18.0078 60.5002 19.2498V31.2502Z" fill="#FFA204"/>
</g>
</g>
<defs>
<filter id="filter0_i_35_987" x="23.9778" y="68" width="22.0442" height="13" filterUnits="userSpaceOnUse" color-interpolation-filters="sRGB">
<feFlood flood-opacity="0" result="BackgroundImageFix"/>
<feBlend mode="normal" in="SourceGraphic" in2="BackgroundImageFix" result="shape"/>
<feColorMatrix in="SourceAlpha" type="matrix" values="0 0 0 0 0 0 0 0 0 0 0 0 0 0 0 0 0 0 127 0" result="hardAlpha"/>
<feOffset dy="4"/>
<feGaussianBlur stdDeviation="5"/>
<feComposite in2="hardAlpha" operator="arithmetic" k2="-1" k3="1"/>
<feColorMatrix type="matrix" values="0 0 0 0 0.314392 0 0 0 0 0.334323 0 0 0 0 0.379167 0 0 0 1 0"/>
<feBlend mode="normal" in2="shape" result="effect1_innerShadow_35_987"/>
</filter>
<filter id="filter1_i_35_987" x="5" y="5" width="60.0002" height="64.0002" filterUnits="userSpaceOnUse" color-interpolation-filters="sRGB">
<feFlood flood-opacity="0" result="BackgroundImageFix"/>
<feBlend mode="normal" in="SourceGraphic" in2="BackgroundImageFix" result="shape"/>
<feColorMatrix in="SourceAlpha" type="matrix" values="0 0 0 0 0 0 0 0 0 0 0 0 0 0 0 0 0 0 127 0" result="hardAlpha"/>
<feOffset dy="4"/>
<feGaussianBlur stdDeviation="5"/>
<feComposite in2="hardAlpha" operator="arithmetic" k2="-1" k3="1"/>
<feColorMatrix type="matrix" values="0 0 0 0 0.314392 0 0 0 0 0.334323 0 0 0 0 0.379167 0 0 0 1 0"/>
<feBlend mode="normal" in2="shape" result="effect1_innerShadow_35_987"/>
</filter>
<filter id="filter2_d_35_987" x="26.0002" y="-5" width="62.9998" height="62.9998" filterUnits="userSpaceOnUse" color-interpolation-filters="sRGB">
<feFlood flood-opacity="0" result="BackgroundImageFix"/>
<feColorMatrix in="SourceAlpha" type="matrix" values="0 0 0 0 0 0 0 0 0 0 0 0 0 0 0 0 0 0 127 0" result="hardAlpha"/>
<feOffset dy="2"/>
<feGaussianBlur stdDeviation="6"/>
<feComposite in2="hardAlpha" operator="out"/>
<feColorMatrix type="matrix" values="0 0 0 0 1 0 0 0 0 0.635294 0 0 0 0 0.0156863 0 0 0 0.4 0"/>
<feBlend mode="normal" in2="BackgroundImageFix" result="effect1_dropShadow_35_987"/>
<feBlend mode="normal" in="SourceGraphic" in2="effect1_dropShadow_35_987" result="shape"/>
</filter>
<clipPath id="clip0_35_987">
<rect width="82" height="82" fill="white"/>
</clipPath>
</defs>
</svg>
