<svg width="82" height="82" viewBox="0 0 82 82" fill="none" xmlns="http://www.w3.org/2000/svg">
<g clip-path="url(#clip0_35_970)">
<g filter="url(#filter0_i_35_970)">
<path d="M22.2318 62.2182L15.298 61.2107L12.197 54.9276H10.5452L7.44422 61.2107L0.510418 62.2182L0 63.7892L5.01737 68.6799L3.83286 75.5857L5.16936 76.5567L11.3711 73.2963L17.5728 76.5567L18.9093 75.5857L17.7248 68.6799L22.7422 63.7892L22.2318 62.2182Z" fill="#4F5664"/>
</g>
<g filter="url(#filter1_i_35_970)">
<path d="M82 63.7892L81.4896 62.2182L74.5558 61.2107L71.4548 54.9276H69.803L66.702 61.2107L59.7682 62.2182L59.2578 63.7892L64.2752 68.6799L63.0907 75.5857L64.4272 76.5567L70.6289 73.2963L76.8306 76.5567L78.1671 75.5857L76.9826 68.6799L82 63.7892Z" fill="#4F5664"/>
</g>
<g filter="url(#filter2_i_35_970)">
<path d="M51.8607 62.2182L44.9269 61.2107L41.8259 54.9276H40.1741L37.0731 61.2107L30.1393 62.2182L29.6289 63.7892L34.6463 68.6799L33.4618 75.5857L34.7983 76.5567L41 73.2963L47.2017 76.5567L48.5382 75.5857L47.3537 68.6799L52.3711 63.7892L51.8607 62.2182Z" fill="#4F5664"/>
</g>
<g filter="url(#filter3_d_35_970)">
<path d="M21 21V41C21 42.3806 22.1192 43.5 23.5 43.5H31V18.5H23.5C22.1192 18.5 21 19.6192 21 21Z" fill="#FFA204"/>
<path d="M56.3833 20.9995H48.9981C48.3523 20.9995 48.0288 20.5685 47.9202 20.383C47.8115 20.1987 47.5918 19.7067 47.9043 19.1428L50.5081 14.454C51.0794 13.4274 51.1379 12.2202 50.6704 11.1423C50.2029 10.0632 49.28 9.2807 48.1387 8.99627L46.3027 8.53729C45.8559 8.42499 45.3823 8.56781 45.071 8.91327L35.1028 19.9875C34.0688 21.1386 33.5 22.623 33.5 24.1684V37.2494C33.5 40.6955 36.3039 43.4994 39.75 43.4994L52.1853 43.4982C54.9929 43.4982 57.4722 41.6073 58.2131 38.901L60.8816 26.6549C60.9597 26.3144 61 25.9652 61 25.6161C61 23.071 58.9285 20.9995 56.3833 20.9995Z" fill="#FFA204"/>
</g>
</g>
<defs>
<filter id="filter0_i_35_970" x="0" y="54.9276" width="22.7422" height="25.6292" filterUnits="userSpaceOnUse" color-interpolation-filters="sRGB">
<feFlood flood-opacity="0" result="BackgroundImageFix"/>
<feBlend mode="normal" in="SourceGraphic" in2="BackgroundImageFix" result="shape"/>
<feColorMatrix in="SourceAlpha" type="matrix" values="0 0 0 0 0 0 0 0 0 0 0 0 0 0 0 0 0 0 127 0" result="hardAlpha"/>
<feOffset dy="4"/>
<feGaussianBlur stdDeviation="5"/>
<feComposite in2="hardAlpha" operator="arithmetic" k2="-1" k3="1"/>
<feColorMatrix type="matrix" values="0 0 0 0 0.314392 0 0 0 0 0.334323 0 0 0 0 0.379167 0 0 0 1 0"/>
<feBlend mode="normal" in2="shape" result="effect1_innerShadow_35_970"/>
</filter>
<filter id="filter1_i_35_970" x="59.2578" y="54.9276" width="22.7422" height="25.6292" filterUnits="userSpaceOnUse" color-interpolation-filters="sRGB">
<feFlood flood-opacity="0" result="BackgroundImageFix"/>
<feBlend mode="normal" in="SourceGraphic" in2="BackgroundImageFix" result="shape"/>
<feColorMatrix in="SourceAlpha" type="matrix" values="0 0 0 0 0 0 0 0 0 0 0 0 0 0 0 0 0 0 127 0" result="hardAlpha"/>
<feOffset dy="4"/>
<feGaussianBlur stdDeviation="5"/>
<feComposite in2="hardAlpha" operator="arithmetic" k2="-1" k3="1"/>
<feColorMatrix type="matrix" values="0 0 0 0 0.314392 0 0 0 0 0.334323 0 0 0 0 0.379167 0 0 0 1 0"/>
<feBlend mode="normal" in2="shape" result="effect1_innerShadow_35_970"/>
</filter>
<filter id="filter2_i_35_970" x="29.6289" y="54.9276" width="22.7422" height="25.6292" filterUnits="userSpaceOnUse" color-interpolation-filters="sRGB">
<feFlood flood-opacity="0" result="BackgroundImageFix"/>
<feBlend mode="normal" in="SourceGraphic" in2="BackgroundImageFix" result="shape"/>
<feColorMatrix in="SourceAlpha" type="matrix" values="0 0 0 0 0 0 0 0 0 0 0 0 0 0 0 0 0 0 127 0" result="hardAlpha"/>
<feOffset dy="4"/>
<feGaussianBlur stdDeviation="5"/>
<feComposite in2="hardAlpha" operator="arithmetic" k2="-1" k3="1"/>
<feColorMatrix type="matrix" values="0 0 0 0 0.314392 0 0 0 0 0.334323 0 0 0 0 0.379167 0 0 0 1 0"/>
<feBlend mode="normal" in2="shape" result="effect1_innerShadow_35_970"/>
</filter>
<filter id="filter3_d_35_970" x="9" y="-1.50037" width="64" height="59.0004" filterUnits="userSpaceOnUse" color-interpolation-filters="sRGB">
<feFlood flood-opacity="0" result="BackgroundImageFix"/>
<feColorMatrix in="SourceAlpha" type="matrix" values="0 0 0 0 0 0 0 0 0 0 0 0 0 0 0 0 0 0 127 0" result="hardAlpha"/>
<feOffset dy="2"/>
<feGaussianBlur stdDeviation="6"/>
<feComposite in2="hardAlpha" operator="out"/>
<feColorMatrix type="matrix" values="0 0 0 0 1 0 0 0 0 0.635294 0 0 0 0 0.0156863 0 0 0 0.4 0"/>
<feBlend mode="normal" in2="BackgroundImageFix" result="effect1_dropShadow_35_970"/>
<feBlend mode="normal" in="SourceGraphic" in2="effect1_dropShadow_35_970" result="shape"/>
</filter>
<clipPath id="clip0_35_970">
<rect width="82" height="82" fill="white"/>
</clipPath>
</defs>
</svg>
