<svg width="18" height="18" viewBox="0 0 18 18" fill="none" xmlns="http://www.w3.org/2000/svg">
<g filter="url(#filter0_d_40_1390)">
<path d="M9 0C4.03759 0 0 4.03759 0 9C0 13.9624 4.03759 18 9 18C13.9624 18 18 13.9624 18 9C18 4.03759 13.9624 0 9 0ZM14.0301 6.63158L8.2782 12.3383C7.93985 12.6767 7.3985 12.6992 7.03759 12.3609L3.99248 9.58647C3.63158 9.24812 3.60902 8.68421 3.92481 8.32331C4.26316 7.96241 4.82707 7.93985 5.18797 8.2782L7.6015 10.4887L12.7444 5.34586C13.1053 4.98496 13.6692 4.98496 14.0301 5.34586C14.391 5.70677 14.391 6.27068 14.0301 6.63158Z" fill="#FFA204"/>
</g>
<defs>
<filter id="filter0_d_40_1390" x="-12" y="-10" width="42" height="42" filterUnits="userSpaceOnUse" color-interpolation-filters="sRGB">
<feFlood flood-opacity="0" result="BackgroundImageFix"/>
<feColorMatrix in="SourceAlpha" type="matrix" values="0 0 0 0 0 0 0 0 0 0 0 0 0 0 0 0 0 0 127 0" result="hardAlpha"/>
<feOffset dy="2"/>
<feGaussianBlur stdDeviation="6"/>
<feComposite in2="hardAlpha" operator="out"/>
<feColorMatrix type="matrix" values="0 0 0 0 1 0 0 0 0 0.635294 0 0 0 0 0.0156863 0 0 0 0.4 0"/>
<feBlend mode="normal" in2="BackgroundImageFix" result="effect1_dropShadow_40_1390"/>
<feBlend mode="normal" in="SourceGraphic" in2="effect1_dropShadow_40_1390" result="shape"/>
</filter>
</defs>
</svg>
