<svg width="100" height="100" viewBox="0 0 100 100" fill="none" xmlns="http://www.w3.org/2000/svg">
<path fill-rule="evenodd" clip-rule="evenodd" d="M50 0C77.6152 0 100 22.3848 100 50C100 77.6152 77.6152 100 50 100C22.3848 100 0 77.6152 0 50C0 22.3848 22.3848 0 50 0Z" fill="url(#paint0_linear_35_814)"/>
<path d="M72.5039 31.9356L65.3847 67.8242C65.3847 67.8242 64.3886 70.3125 61.6523 69.1192L45.2265 56.5254L39.2519 53.6387L29.1972 50.2539C29.1972 50.2539 27.6543 49.7051 27.5058 48.5118C27.3554 47.3165 29.248 46.67 29.248 46.67L69.2187 30.9903C69.2187 30.9903 72.5039 29.5469 72.5039 31.9356Z" fill="#FEFEFE"/>
<path d="M51.6406 62.2187L44.6465 68.5957C44.6465 68.5957 44.1016 69.0097 43.5019 68.75C42.6211 68.623 40.0371 59.4121 38.4336 53.916L39.7754 53.0625L51.6406 62.2187Z" fill="#B5D2E5"/>
<path d="M43.5019 68.7501C42.5488 68.6602 38.9238 55.5216 38.4336 53.9161L64.416 37.4141C65.7675 36.5938 66.4902 37.2403 65.3261 38.3262C64.5234 39.0762 44.916 56.7012 44.916 56.7012L43.5019 68.7501Z" fill="#D3E7F2"/>
<defs>
<linearGradient id="paint0_linear_35_814" x1="13.248" y1="16.0977" x2="92.6152" y2="76.168" gradientUnits="userSpaceOnUse">
<stop stop-color="#28AAE0"/>
<stop offset="1" stop-color="#23B7EC"/>
</linearGradient>
</defs>
</svg>
