<svg width="33" height="32" viewBox="0 0 33 32" fill="none" xmlns="http://www.w3.org/2000/svg">
<g clip-path="url(#clip0_35_259)">
<path d="M21.864 29.4856L20.9537 28.4251H12.096L11.1361 29.4856L9.37207 31.5314H23.6281L21.864 29.4856Z" fill="#EFEDEF"/>
<path d="M11.136 22.4888H21.8639V29.4856H11.136V22.4888Z" fill="#C9BFC8"/>
<path d="M30.7802 25.2058L31.974 23.9505V7.44763C31.974 6.06151 30.8503 4.93775 29.4641 4.93775H3.53576C2.14964 4.93775 1.02588 6.06151 1.02588 7.44763V23.9505L3.2045 25.2058H30.7802Z" fill="#454E56"/>
<path d="M1.02588 23.9505H31.974C31.974 25.3373 30.8503 26.461 29.4641 26.461H3.53576C2.14964 26.461 1.02588 25.3373 1.02588 23.9505Z" fill="#EFEDEF"/>
<path d="M6.62314 19.1311C6.40224 19.1311 6.22314 18.9213 6.22314 18.6626V8.12207C6.22314 7.86334 6.40224 7.65358 6.62314 7.65358C6.84405 7.65358 7.02314 7.86334 7.02314 8.12207V18.6626C7.02314 18.9213 6.84405 19.1311 6.62314 19.1311Z" fill="#00C88C"/>
<path d="M12.1483 8.69395C11.9274 8.69395 11.7483 8.48419 11.7483 8.22546V4.2375C11.7483 3.97877 11.9274 3.769 12.1483 3.769C12.3692 3.769 12.5483 3.97877 12.5483 4.2375V8.22539C12.5483 8.48419 12.3692 8.69395 12.1483 8.69395Z" fill="#F84545"/>
<path d="M12.1483 18.2247C11.9274 18.2247 11.7483 18.0149 11.7483 17.7562V11.8361C11.7483 11.5774 11.9274 11.3676 12.1483 11.3676C12.3692 11.3676 12.5483 11.5774 12.5483 11.8361V17.7562C12.5483 18.0149 12.3692 18.2247 12.1483 18.2247Z" fill="#F84545"/>
<path d="M17.6734 5.73737C17.4525 5.73737 17.2734 5.52761 17.2734 5.26888V0.46843C17.2734 0.209696 17.4525 -6.48499e-05 17.6734 -6.48499e-05C17.8944 -6.48499e-05 18.0734 0.209696 18.0734 0.46843V5.26888C18.0734 5.52761 17.8944 5.73737 17.6734 5.73737Z" fill="#00C88C"/>
<path d="M17.6734 15.6528C17.4525 15.6528 17.2734 15.443 17.2734 15.1843V8.36126C17.2734 8.10252 17.4525 7.89276 17.6734 7.89276C17.8944 7.89276 18.0734 8.10252 18.0734 8.36126V15.1843C18.0734 15.443 17.8944 15.6528 17.6734 15.6528Z" fill="#00C88C"/>
<path d="M23.1986 10.722C22.9776 10.722 22.7986 10.5122 22.7986 10.2535V2.58858C22.7986 2.32985 22.9776 2.12009 23.1986 2.12009C23.4195 2.12009 23.5986 2.32985 23.5986 2.58858V10.2534C23.5986 10.5122 23.4195 10.722 23.1986 10.722Z" fill="#F84545"/>
<path d="M23.1986 18.8712C22.9776 18.8712 22.7986 18.6615 22.7986 18.4027V12.0366C22.7986 11.7778 22.9776 11.5681 23.1986 11.5681C23.4195 11.5681 23.5986 11.7778 23.5986 12.0366V18.4027C23.5986 18.6615 23.4195 18.8712 23.1986 18.8712Z" fill="#F84545"/>
<path d="M20.7398 15.1321L11.2223 20.2637L10.6894 18.8674C10.6439 18.7483 10.5519 18.6528 10.4345 18.6031C10.3172 18.5533 10.1846 18.5536 10.0674 18.6037L3.57383 21.3828C3.33596 21.4847 3.22565 21.76 3.32747 21.9979C3.40355 22.1757 3.57652 22.2822 3.75836 22.2822C3.81982 22.2822 3.88235 22.27 3.94251 22.2443L9.98783 19.657L10.5372 21.0964C10.5853 21.2224 10.6853 21.3215 10.8117 21.3685C10.938 21.4154 11.0786 21.4057 11.1972 21.3417L21.1845 15.9568C21.4123 15.834 21.4974 15.5498 21.3746 15.3221C21.2519 15.0945 20.9678 15.0093 20.7398 15.1321Z" fill="#F84545"/>
<path d="M29.7403 10.6223L28.2707 10.0624C28.029 9.97031 27.7582 10.0916 27.6661 10.3334C27.574 10.5752 27.6953 10.8459 27.9371 10.938L28.2779 11.0678L26.1608 12.2093C25.933 12.3322 25.848 12.6163 25.9708 12.8441C26.0554 13.0011 26.2168 13.0903 26.3835 13.0903C26.4586 13.0903 26.5348 13.0722 26.6055 13.0341L28.7635 11.8705L28.6083 12.2779C28.5161 12.5197 28.6375 12.7904 28.8793 12.8825C28.9342 12.9034 28.9906 12.9133 29.046 12.9133C29.2347 12.9133 29.4127 12.7984 29.4839 12.6115L30.0114 11.2269C30.1035 10.9851 29.9822 10.7143 29.7403 10.6223Z" fill="#F84545"/>
<path d="M24.3985 31.9999H8.55809C8.29936 31.9999 8.0896 31.7902 8.0896 31.5314C8.0896 31.2727 8.29936 31.0629 8.55809 31.0629H24.3984C24.6572 31.0629 24.8669 31.2727 24.8669 31.5314C24.8669 31.7902 24.6572 31.9999 24.3985 31.9999Z" fill="#EFEDEF"/>
<path d="M24.0873 14.2174H22.447C22.214 14.2174 22.0251 14.0285 22.0251 13.7955V8.28017C22.0251 8.04717 22.214 7.85828 22.447 7.85828H24.0873C24.3203 7.85828 24.5092 8.04717 24.5092 8.28017V13.7955C24.5092 14.0285 24.3203 14.2174 24.0873 14.2174Z" fill="#F84545"/>
<path d="M18.5621 12.2208H16.9219C16.6889 12.2208 16.5 12.0319 16.5 11.7989V3.22274C16.5 2.98974 16.6889 2.80085 16.9219 2.80085H18.5621C18.7951 2.80085 18.984 2.98974 18.984 3.22274V11.7989C18.984 12.0319 18.7951 12.2208 18.5621 12.2208Z" fill="#00C88C"/>
<path d="M13.037 13.1479H11.3967C11.1638 13.1479 10.9749 12.959 10.9749 12.726V7.21064C10.9749 6.97764 11.1638 6.78874 11.3967 6.78874H13.037C13.27 6.78874 13.4589 6.97764 13.4589 7.21064V12.726C13.4589 12.959 13.27 13.1479 13.037 13.1479Z" fill="#F84545"/>
<path d="M7.51183 15.6991H5.8716C5.6386 15.6991 5.44971 15.5102 5.44971 15.2772V9.76186C5.44971 9.52886 5.6386 9.33997 5.8716 9.33997H7.51183C7.74483 9.33997 7.93373 9.52886 7.93373 9.76186V15.2772C7.93379 15.5102 7.7449 15.6991 7.51183 15.6991Z" fill="#00C88C"/>
</g>
<defs>
<clipPath id="clip0_35_259">
<rect width="32" height="32" fill="white" transform="translate(0.5)"/>
</clipPath>
</defs>
</svg>
