<svg width="33" height="32" viewBox="0 0 33 32" fill="none" xmlns="http://www.w3.org/2000/svg">
<g clip-path="url(#clip0_35_293)">
<path d="M31.8331 26.6015H21.9835C21.7952 26.6015 21.6426 26.4489 21.6426 26.2606V24.6835C21.6426 24.4952 21.7952 24.3427 21.9835 24.3427H31.8331C32.0213 24.3427 32.174 24.4952 32.174 24.6835V26.2606C32.174 26.4488 32.0214 26.6015 31.8331 26.6015Z" fill="url(#paint0_linear_35_293)"/>
<path d="M28.1735 26.6015H25.6429C25.5443 26.6015 25.4644 26.5215 25.4644 26.423V24.5212C25.4644 24.4226 25.5443 24.3427 25.6429 24.3427H28.1735C28.2721 24.3427 28.352 24.4226 28.352 24.5212V26.423C28.352 26.5215 28.2721 26.6015 28.1735 26.6015Z" fill="url(#paint1_linear_35_293)"/>
<path d="M31.8331 24.3427H21.9835C21.7952 24.3427 21.6426 24.1901 21.6426 24.0018V22.4247C21.6426 22.2364 21.7952 22.0838 21.9835 22.0838H31.8331C32.0213 22.0838 32.174 22.2364 32.174 22.4247V24.0018C32.174 24.19 32.0214 24.3427 31.8331 24.3427Z" fill="url(#paint2_linear_35_293)"/>
<path d="M28.1735 24.3427H25.6429C25.5443 24.3427 25.4644 24.2627 25.4644 24.1641V22.2623C25.4644 22.1638 25.5443 22.0838 25.6429 22.0838H28.1735C28.2721 22.0838 28.352 22.1638 28.352 22.2623V24.1641C28.352 24.2627 28.2721 24.3427 28.1735 24.3427Z" fill="url(#paint3_linear_35_293)"/>
<path d="M31.8331 22.0838H21.9835C21.7952 22.0838 21.6426 21.9312 21.6426 21.7429V20.1659C21.6426 19.9776 21.7952 19.825 21.9835 19.825H31.8331C32.0213 19.825 32.174 19.9776 32.174 20.1659V21.7429C32.174 21.9312 32.0214 22.0838 31.8331 22.0838Z" fill="url(#paint4_linear_35_293)"/>
<path d="M31.8331 19.825H21.9835C21.7952 19.825 21.6426 19.6724 21.6426 19.4841V17.9071C21.6426 17.7188 21.7952 17.5662 21.9835 17.5662H31.8331C32.0213 17.5662 32.174 17.7188 32.174 17.9071V19.4841C32.174 19.6724 32.0214 19.825 31.8331 19.825Z" fill="url(#paint5_linear_35_293)"/>
<path d="M31.8331 17.5662H21.9835C21.7952 17.5662 21.6426 17.4136 21.6426 17.2253V15.6483C21.6426 15.46 21.7952 15.3074 21.9835 15.3074H31.8331C32.0213 15.3074 32.174 15.46 32.174 15.6483V17.2253C32.174 17.4136 32.0214 17.5662 31.8331 17.5662Z" fill="url(#paint6_linear_35_293)"/>
<path d="M31.8331 15.3074H21.9835C21.7952 15.3074 21.6426 15.1548 21.6426 14.9665V13.3894C21.6426 13.2011 21.7952 13.0485 21.9835 13.0485H31.8331C32.0213 13.0485 32.174 13.2011 32.174 13.3894V14.9665C32.174 15.1548 32.0214 15.3074 31.8331 15.3074Z" fill="url(#paint7_linear_35_293)"/>
<path d="M31.8331 13.0486H21.9835C21.7952 13.0486 21.6426 12.896 21.6426 12.7077V11.1307C21.6426 10.9424 21.7952 10.7898 21.9835 10.7898H31.8331C32.0213 10.7898 32.174 10.9424 32.174 11.1307V12.7077C32.174 12.8959 32.0214 13.0486 31.8331 13.0486Z" fill="url(#paint8_linear_35_293)"/>
<path d="M31.8331 10.7898H21.9835C21.7952 10.7898 21.6426 10.6372 21.6426 10.4489V8.87184C21.6426 8.68354 21.7952 8.53094 21.9835 8.53094H31.8331C32.0213 8.53094 32.174 8.68354 32.174 8.87184V10.4489C32.174 10.6371 32.0214 10.7898 31.8331 10.7898Z" fill="url(#paint9_linear_35_293)"/>
<path d="M26.7081 16.7951L25.8029 12.0482C25.1278 8.50748 22.0319 5.9461 18.4274 5.9461H15.0314C11.4268 5.9461 8.33094 8.50748 7.6558 12.0482L7.14261 14.7395C6.64943 17.3259 5.8611 19.8561 4.68212 22.2104C4.3374 22.8987 4.15638 23.6831 4.19033 24.513C4.2884 26.9139 6.40146 28.9799 8.80397 29.0269C8.8216 29.0272 8.83917 29.0275 8.85674 29.0276C9.94675 29.0371 10.9962 29.4618 11.7606 30.2389C12.615 31.1075 13.8034 31.6461 15.1181 31.6461C16.7136 31.6461 18.1235 30.8529 18.9758 29.6395C19.2502 29.2488 19.7002 29.0268 20.1777 29.0278H20.1859C20.391 29.0278 20.5926 29.0126 20.7895 28.9833C21.161 28.9283 21.5368 29.0231 21.8434 29.24C22.6727 29.8266 23.6996 30.1522 24.805 30.0963C27.1708 29.9765 29.1006 28.0828 29.2613 25.7195C29.3192 24.8692 29.151 24.0632 28.811 23.3553C27.8132 21.2776 27.1398 19.0591 26.7081 16.7951Z" fill="url(#paint10_radial_35_293)"/>
<path d="M8.89837 29.0277C11.5008 29.0277 13.6105 26.918 13.6105 24.3156C13.6105 21.7132 11.5008 19.6035 8.89837 19.6035C6.29596 19.6035 4.18628 21.7132 4.18628 24.3156C4.18628 26.918 6.29596 29.0277 8.89837 29.0277Z" fill="url(#paint11_linear_35_293)"/>
<path d="M15.1181 31.6461C17.7205 31.6461 19.8302 29.5364 19.8302 26.934C19.8302 24.3315 17.7205 22.2219 15.1181 22.2219C12.5157 22.2219 10.406 24.3315 10.406 26.934C10.406 29.5364 12.5157 31.6461 15.1181 31.6461Z" fill="url(#paint12_linear_35_293)"/>
<path d="M24.5605 30.1025C27.1629 30.1025 29.2726 27.9928 29.2726 25.3904C29.2726 22.7879 27.1629 20.6783 24.5605 20.6783C21.9581 20.6783 19.8484 22.7879 19.8484 25.3904C19.8484 27.9928 21.9581 30.1025 24.5605 30.1025Z" fill="url(#paint13_linear_35_293)"/>
<path d="M29.2613 25.7195C29.3191 24.8691 29.1509 24.0632 28.811 23.3553C27.8132 21.2776 27.1398 19.0591 26.7081 16.795L25.803 12.0481C25.558 10.7634 24.9931 9.60866 24.202 8.65732C22.8928 7.57327 21.2169 6.93221 19.4136 6.93221H16.0175C12.413 6.93221 9.31707 9.49359 8.64193 13.0343L8.12874 15.7256C7.63556 18.312 6.84723 20.8422 5.66825 23.1964C5.32353 23.8847 5.14251 24.6692 5.1764 25.499C5.21498 26.4437 5.56642 27.3357 6.12372 28.074C6.89065 28.6517 7.82305 29.0076 8.80394 29.0268C8.82157 29.0271 8.83914 29.0273 8.85671 29.0275C9.94672 29.0369 10.9963 29.4617 11.7607 30.2388C12.615 31.1073 13.8034 31.646 15.1181 31.646C16.7136 31.646 18.1235 30.8528 18.9759 29.6393C19.2502 29.2487 19.7003 29.0267 20.1777 29.0276H20.186C20.3911 29.0276 20.5926 29.0125 20.7896 28.9832C21.161 28.9282 21.5368 29.023 21.8434 29.2398C22.6727 29.8264 23.6996 30.1521 24.8051 30.0961C27.1707 29.9765 29.1006 28.0828 29.2613 25.7195Z" fill="url(#paint14_linear_35_293)"/>
<path d="M20.7037 18.46C20.5613 18.0962 20.3908 17.7948 20.192 17.556C19.9928 17.3172 19.7285 17.0899 19.3988 16.8737C19.0689 16.6578 18.7733 16.4929 18.5118 16.3791C18.2502 16.2655 17.9319 16.1347 17.5567 15.9868V13.4964C17.966 13.5305 18.361 13.6443 18.7421 13.8375C19.123 14.0311 19.393 14.1276 19.5524 14.1276C19.882 14.1276 20.1409 13.9657 20.3285 13.6422C20.5161 13.3186 20.6099 13.0063 20.6099 12.7057C20.6099 12.4245 20.5047 12.1786 20.2943 11.9674C20.0838 11.7566 19.8083 11.5986 19.4671 11.493C19.126 11.3875 18.8018 11.3115 18.4948 11.2646C18.1878 11.2177 17.8749 11.1884 17.5567 11.1767V10.783C17.5567 10.678 17.4884 10.581 17.352 10.4917C17.2156 10.4026 17.0676 10.3579 16.9085 10.3579C16.7264 10.3579 16.5729 10.4003 16.4479 10.4845C16.3227 10.569 16.2603 10.6692 16.2603 10.7849V11.2278C15.271 11.3669 14.455 11.7323 13.8127 12.3237C13.1701 12.9151 12.849 13.7266 12.849 14.7586C12.849 15.1794 12.9228 15.5632 13.0707 15.91C13.2184 16.2569 13.389 16.541 13.5825 16.7628C13.7757 16.9845 14.0486 17.2007 14.4012 17.4109C14.7535 17.6215 15.0494 17.7777 15.2882 17.88C15.527 17.9823 15.851 18.1132 16.2604 18.2723V21.0355C15.8169 20.9561 15.3335 20.7314 14.8106 20.3618C14.2874 19.9924 13.9177 19.8074 13.7018 19.8074C13.3948 19.8074 13.1246 19.9668 12.8916 20.285C12.6584 20.6035 12.542 20.922 12.542 21.2403C12.542 21.7976 12.9087 22.2978 13.6422 22.7413C14.3757 23.1848 15.2482 23.4236 16.2604 23.4577V23.8841C16.2604 24.0091 16.3228 24.117 16.448 24.2082C16.573 24.299 16.7265 24.3446 16.9085 24.3446C17.0676 24.3446 17.2156 24.2961 17.352 24.1996C17.4886 24.1029 17.5568 23.9976 17.5568 23.8841V23.3894C18.5802 23.2189 19.396 22.8154 20.0044 22.1784C20.6126 21.5416 20.917 20.7059 20.917 19.671C20.9169 19.2275 20.8458 18.824 20.7037 18.46ZM16.4309 15.5773C15.7031 15.2703 15.3392 14.9121 15.3392 14.5028C15.3392 14.014 15.703 13.6955 16.4309 13.5475V15.5773ZM17.3861 21.0185V18.7329C18.0796 19.0628 18.4266 19.4663 18.4266 19.944C18.4266 20.5012 18.0796 20.8594 17.3861 21.0185Z" fill="url(#paint15_linear_35_293)"/>
<path d="M19.0439 5.94604H14.4151L12.3093 1.90902C11.9984 1.31306 12.3533 0.586349 13.0145 0.465125L14.3935 0.212262C15.938 -0.0709066 17.5211 -0.0709066 19.0655 0.212262L20.4446 0.465125C21.1057 0.586349 21.4606 1.313 21.1497 1.90902L19.0439 5.94604Z" fill="url(#paint16_linear_35_293)"/>
<path d="M17.4991 5.94604H15.9597L15.2593 1.90902C15.1559 1.31306 15.274 0.586349 15.4939 0.465125L15.9525 0.212262C16.4662 -0.0709066 16.9927 -0.0709066 17.5064 0.212262L17.965 0.465125C18.1849 0.586349 18.303 1.313 18.1996 1.90902L17.4991 5.94604Z" fill="url(#paint17_linear_35_293)"/>
<path d="M21.0801 0.871401C21.1703 0.999778 21.1249 1.17866 20.9849 1.24963C20.3282 1.58362 19.5516 1.58362 18.8949 1.24963L18.3143 0.954852C17.6576 0.62086 16.8809 0.62086 16.2243 0.954852L15.6444 1.24963C14.9877 1.58362 14.2111 1.58362 13.5543 1.24963L12.947 0.940735C12.7342 0.832499 12.7739 0.51068 13.0085 0.466633C13.0105 0.466256 13.0125 0.46588 13.0145 0.465503L14.3935 0.212139C15.9377 -0.0705908 17.5211 -0.0705908 19.0653 0.212139L20.4444 0.465503C20.7167 0.515135 20.9367 0.66748 21.0801 0.871401Z" fill="url(#paint18_linear_35_293)"/>
<path d="M21.163 1.43724C21.194 1.362 21.2165 1.28483 21.233 1.20702C21.1423 0.844733 20.8518 0.539854 20.4444 0.465125L19.0654 0.212262C17.5209 -0.0709066 15.9378 -0.0709066 14.3934 0.212262L13.3648 0.400874C13.236 0.709643 13.2195 1.09264 13.3616 1.43724L15.2199 5.94604H19.0438L20.2869 3.56291L21.163 1.43724Z" fill="url(#paint19_linear_35_293)"/>
<path d="M16.7294 6.39862C15.726 6.39862 14.7763 6.3338 13.998 6.21402C13.7417 6.17456 13.5698 5.93023 13.6215 5.67611C13.6696 5.43981 13.8941 5.28251 14.1324 5.31902C14.8634 5.43109 15.7829 5.49383 16.7294 5.49383C17.6758 5.49383 18.5953 5.43109 19.3263 5.31902C19.5647 5.28251 19.7892 5.43975 19.8373 5.67611C19.889 5.93023 19.717 6.17462 19.4607 6.21402C18.6824 6.3338 17.7327 6.39862 16.7294 6.39862Z" fill="url(#paint20_linear_35_293)"/>
<path d="M11.0167 31.9999H1.16707C0.978831 31.9999 0.826172 31.8473 0.826172 31.659V30.082C0.826172 29.8937 0.978768 29.7411 1.16707 29.7411H11.0167C11.2049 29.7411 11.3576 29.8937 11.3576 30.082V31.659C11.3576 31.8473 11.2049 31.9999 11.0167 31.9999Z" fill="url(#paint21_linear_35_293)"/>
<path d="M9.76632 31.9999H2.41737C2.25386 31.9999 2.12134 31.8674 2.12134 31.7039V30.0371C2.12134 29.8737 2.25386 29.7411 2.41737 29.7411H9.76632C9.92977 29.7411 10.0624 29.8736 10.0624 30.0371V31.7039C10.0624 31.8674 9.92984 31.9999 9.76632 31.9999Z" fill="url(#paint22_linear_35_293)"/>
<path d="M7.35709 31.9999H4.82646C4.72789 31.9999 4.64795 31.92 4.64795 31.8214V29.9196C4.64795 29.821 4.72789 29.7411 4.82646 29.7411H7.35709C7.45567 29.7411 7.5356 29.821 7.5356 29.9196V31.8214C7.5356 31.92 7.45567 31.9999 7.35709 31.9999Z" fill="url(#paint23_linear_35_293)"/>
<path d="M1.46419 30.0159C1.27589 30.0159 1.12329 30.1685 1.12329 30.3568V31.9339C1.12329 31.9558 1.12555 31.9771 1.1295 31.9978C1.1418 31.9991 1.15429 31.9999 1.16696 31.9999H11.0166C11.2049 31.9999 11.3575 31.8473 11.3575 31.659V30.082C11.3575 30.0601 11.3552 30.0388 11.3512 30.0181C11.3389 30.0168 11.3265 30.0159 11.3138 30.0159H1.46419Z" fill="url(#paint24_linear_35_293)"/>
<path d="M11.0167 29.7411H1.16707C0.978831 29.7411 0.826172 29.5885 0.826172 29.4002V27.8232C0.826172 27.6349 0.978768 27.4823 1.16707 27.4823H11.0167C11.2049 27.4823 11.3576 27.6349 11.3576 27.8232V29.4002C11.3576 29.5885 11.2049 29.7411 11.0167 29.7411Z" fill="url(#paint25_linear_35_293)"/>
<path d="M9.76632 29.7411H2.41737C2.25386 29.7411 2.12134 29.6086 2.12134 29.4451V27.7783C2.12134 27.6148 2.25386 27.4822 2.41737 27.4822H9.76632C9.92977 27.4822 10.0624 27.6147 10.0624 27.7783V29.4451C10.0624 29.6086 9.92984 29.7411 9.76632 29.7411Z" fill="url(#paint26_linear_35_293)"/>
<path d="M7.35709 29.7411H4.82646C4.72789 29.7411 4.64795 29.6612 4.64795 29.5626V27.6608C4.64795 27.5622 4.72789 27.4823 4.82646 27.4823H7.35709C7.45567 27.4823 7.5356 27.5622 7.5356 27.6608V29.5626C7.5356 29.6612 7.45567 29.7411 7.35709 29.7411Z" fill="url(#paint27_linear_35_293)"/>
<path d="M1.46419 27.7571C1.27589 27.7571 1.12329 27.9097 1.12329 28.098V29.675C1.12329 29.6969 1.12555 29.7182 1.1295 29.739C1.1418 29.7404 1.15429 29.7411 1.16696 29.7411H11.0166C11.2049 29.7411 11.3575 29.5885 11.3575 29.4002V27.8232C11.3575 27.8013 11.3552 27.7799 11.3512 27.7592C11.3389 27.7579 11.3265 27.7571 11.3138 27.7571H1.46419Z" fill="url(#paint28_linear_35_293)"/>
<path d="M11.0167 27.4823H1.16707C0.978831 27.4823 0.826172 27.3297 0.826172 27.1414V25.5644C0.826172 25.3761 0.978768 25.2235 1.16707 25.2235H11.0167C11.2049 25.2235 11.3576 25.3761 11.3576 25.5644V27.1414C11.3576 27.3297 11.2049 27.4823 11.0167 27.4823Z" fill="url(#paint29_linear_35_293)"/>
<path d="M9.76632 27.4823H2.41737C2.25386 27.4823 2.12134 27.3498 2.12134 27.1863V25.5195C2.12134 25.356 2.25386 25.2235 2.41737 25.2235H9.76632C9.92977 25.2235 10.0624 25.356 10.0624 25.5195V27.1863C10.0624 27.3498 9.92984 27.4823 9.76632 27.4823Z" fill="url(#paint30_linear_35_293)"/>
<path d="M7.35709 27.4823H4.82646C4.72789 27.4823 4.64795 27.4024 4.64795 27.3038V25.402C4.64795 25.3034 4.72789 25.2235 4.82646 25.2235H7.35709C7.45567 25.2235 7.5356 25.3034 7.5356 25.402V27.3038C7.5356 27.4024 7.45567 27.4823 7.35709 27.4823Z" fill="url(#paint31_linear_35_293)"/>
<path d="M1.46419 25.4983C1.27589 25.4983 1.12329 25.6509 1.12329 25.8392V27.4162C1.12329 27.4381 1.12555 27.4595 1.1295 27.4802C1.1418 27.4815 1.15429 27.4823 1.16696 27.4823H11.0166C11.2049 27.4823 11.3575 27.3297 11.3575 27.1414V25.5644C11.3575 25.5425 11.3552 25.5212 11.3512 25.5004C11.3389 25.4991 11.3265 25.4983 11.3138 25.4983H1.46419Z" fill="url(#paint32_linear_35_293)"/>
<path d="M11.0167 25.2235H1.16707C0.978831 25.2235 0.826172 25.0709 0.826172 24.8826V23.3055C0.826172 23.1172 0.978768 22.9646 1.16707 22.9646H11.0167C11.2049 22.9646 11.3576 23.1172 11.3576 23.3055V24.8826C11.3576 25.0709 11.2049 25.2235 11.0167 25.2235Z" fill="url(#paint33_linear_35_293)"/>
<path d="M9.76632 25.2235H2.41737C2.25386 25.2235 2.12134 25.091 2.12134 24.9274V23.2606C2.12134 23.0972 2.25386 22.9646 2.41737 22.9646H9.76632C9.92977 22.9646 10.0624 23.0971 10.0624 23.2606V24.9274C10.0624 25.091 9.92984 25.2235 9.76632 25.2235Z" fill="url(#paint34_linear_35_293)"/>
<path d="M7.35709 25.2235H4.82646C4.72789 25.2235 4.64795 25.1435 4.64795 25.045V23.1432C4.64795 23.0446 4.72789 22.9646 4.82646 22.9646H7.35709C7.45567 22.9646 7.5356 23.0446 7.5356 23.1432V25.045C7.5356 25.1436 7.45567 25.2235 7.35709 25.2235Z" fill="url(#paint35_linear_35_293)"/>
<path d="M1.46419 23.2395C1.27589 23.2395 1.12329 23.3921 1.12329 23.5804V25.1574C1.12329 25.1793 1.12555 25.2006 1.1295 25.2213C1.1418 25.2227 1.15429 25.2235 1.16696 25.2235H11.0166C11.2049 25.2235 11.3575 25.0709 11.3575 24.8826V23.3055C11.3575 23.2836 11.3552 23.2624 11.3512 23.2416C11.3389 23.2402 11.3265 23.2395 11.3138 23.2395H1.46419Z" fill="url(#paint36_linear_35_293)"/>
<path d="M11.0167 22.9647H1.16707C0.978831 22.9647 0.826172 22.8121 0.826172 22.6238V21.0468C0.826172 20.8585 0.978768 20.7059 1.16707 20.7059H11.0167C11.2049 20.7059 11.3576 20.8585 11.3576 21.0468V22.6238C11.3576 22.812 11.2049 22.9647 11.0167 22.9647Z" fill="url(#paint37_linear_35_293)"/>
<path d="M9.76632 22.9647H2.41737C2.25386 22.9647 2.12134 22.8322 2.12134 22.6687V21.0019C2.12134 20.8385 2.25386 20.7059 2.41737 20.7059H9.76632C9.92977 20.7059 10.0624 20.8384 10.0624 21.0019V22.6687C10.0624 22.8321 9.92984 22.9647 9.76632 22.9647Z" fill="url(#paint38_linear_35_293)"/>
<path d="M7.35709 22.9647H4.82646C4.72789 22.9647 4.64795 22.8848 4.64795 22.7862V20.8844C4.64795 20.7858 4.72789 20.7059 4.82646 20.7059H7.35709C7.45567 20.7059 7.5356 20.7858 7.5356 20.8844V22.7862C7.5356 22.8848 7.45567 22.9647 7.35709 22.9647Z" fill="url(#paint39_linear_35_293)"/>
<path d="M1.46419 20.9806C1.27589 20.9806 1.12329 21.1332 1.12329 21.3215V22.8986C1.12329 22.9205 1.12555 22.9418 1.1295 22.9625C1.1418 22.9638 1.15429 22.9647 1.16696 22.9647H11.0166C11.2049 22.9647 11.3575 22.8121 11.3575 22.6238V21.0467C11.3575 21.0248 11.3552 21.0035 11.3512 20.9828C11.3389 20.9815 11.3265 20.9806 11.3138 20.9806H1.46419Z" fill="url(#paint40_linear_35_293)"/>
<path d="M11.0167 20.7059H1.16707C0.978831 20.7059 0.826172 20.5533 0.826172 20.365V18.788C0.826172 18.5997 0.978768 18.4471 1.16707 18.4471H11.0167C11.2049 18.4471 11.3576 18.5997 11.3576 18.788V20.365C11.3576 20.5532 11.2049 20.7059 11.0167 20.7059Z" fill="url(#paint41_linear_35_293)"/>
<path d="M9.76632 20.7059H2.41737C2.25386 20.7059 2.12134 20.5734 2.12134 20.4099V18.743C2.12134 18.5796 2.25386 18.447 2.41737 18.447H9.76632C9.92977 18.447 10.0624 18.5795 10.0624 18.743V20.4099C10.0624 20.5734 9.92984 20.7059 9.76632 20.7059Z" fill="url(#paint42_linear_35_293)"/>
<path d="M7.35709 20.7059H4.82646C4.72789 20.7059 4.64795 20.6259 4.64795 20.5274V18.6256C4.64795 18.527 4.72789 18.4471 4.82646 18.4471H7.35709C7.45567 18.4471 7.5356 18.527 7.5356 18.6256V20.5274C7.5356 20.6259 7.45567 20.7059 7.35709 20.7059Z" fill="url(#paint43_linear_35_293)"/>
<path d="M1.46419 18.7219C1.27589 18.7219 1.12329 18.8745 1.12329 19.0628V20.6398C1.12329 20.6617 1.12555 20.683 1.1295 20.7038C1.1418 20.7051 1.15429 20.7059 1.16696 20.7059H11.0166C11.2049 20.7059 11.3575 20.5533 11.3575 20.365V18.7879C11.3575 18.766 11.3552 18.7448 11.3512 18.724C11.3389 18.7227 11.3265 18.7219 11.3138 18.7219H1.46419Z" fill="url(#paint44_linear_35_293)"/>
<path d="M6.33866 13.1563C5.39661 13.7702 4.59284 14.5788 3.98415 15.5248C3.84724 15.7375 3.53138 15.7369 3.39529 15.5237C2.79005 14.5756 1.98923 13.764 1.04944 13.1467C0.840809 13.0096 0.841374 12.6981 1.0505 12.5618C1.99256 11.9479 2.79632 11.1393 3.40501 10.1934C3.54186 9.98067 3.85778 9.98124 3.99388 10.1944C4.59912 11.1426 5.39993 11.9541 6.33979 12.5715C6.54836 12.7085 6.54779 13.02 6.33866 13.1563Z" fill="url(#paint45_linear_35_293)"/>
<path d="M10.0912 4.61113C9.42507 5.04527 8.85667 5.61706 8.42624 6.28605C8.32942 6.43645 8.10605 6.43607 8.0098 6.2853C7.58181 5.6148 7.01548 5.04094 6.35088 4.60436C6.20337 4.50748 6.20374 4.28712 6.35163 4.19074C7.0178 3.75661 7.5862 3.18481 8.01664 2.51582C8.11345 2.36542 8.33682 2.3658 8.43307 2.51658C8.86106 3.18707 9.4274 3.76094 10.092 4.19752C10.2395 4.29446 10.2391 4.51476 10.0912 4.61113Z" fill="url(#paint46_linear_35_293)"/>
<path d="M28.185 6.15623C27.5188 6.59037 26.9504 7.16216 26.52 7.83115C26.4232 7.98155 26.1998 7.98118 26.1035 7.8304C25.6756 7.1599 25.1092 6.58604 24.4446 6.14946C24.2971 6.05258 24.2975 5.83222 24.4454 5.73584C25.1115 5.30171 25.68 4.72991 26.1104 4.06092C26.2072 3.91052 26.4306 3.9109 26.5268 4.06167C26.9549 4.73217 27.5212 5.30604 28.1857 5.74262C28.3333 5.83956 28.3329 6.05986 28.185 6.15623Z" fill="url(#paint47_linear_35_293)"/>
</g>
<defs>
<linearGradient id="paint0_linear_35_293" x1="26.9083" y1="24.3892" x2="26.9083" y2="27.3178" gradientUnits="userSpaceOnUse">
<stop stop-color="#E4F2FF"/>
<stop offset="1" stop-color="#B2CBFF"/>
</linearGradient>
<linearGradient id="paint1_linear_35_293" x1="26.9082" y1="24.4316" x2="26.9082" y2="29.357" gradientUnits="userSpaceOnUse">
<stop stop-color="#3F3CED" stop-opacity="0"/>
<stop offset="0.2796" stop-color="#3C3DE4" stop-opacity="0.28"/>
<stop offset="0.7305" stop-color="#3541CC" stop-opacity="0.731"/>
<stop offset="1" stop-color="#2F43BB"/>
</linearGradient>
<linearGradient id="paint2_linear_35_293" x1="26.9083" y1="22.1304" x2="26.9083" y2="25.059" gradientUnits="userSpaceOnUse">
<stop stop-color="#E4F2FF"/>
<stop offset="1" stop-color="#B2CBFF"/>
</linearGradient>
<linearGradient id="paint3_linear_35_293" x1="26.9082" y1="22.1729" x2="26.9082" y2="27.0982" gradientUnits="userSpaceOnUse">
<stop stop-color="#3F3CED" stop-opacity="0"/>
<stop offset="0.2796" stop-color="#3C3DE4" stop-opacity="0.28"/>
<stop offset="0.7305" stop-color="#3541CC" stop-opacity="0.731"/>
<stop offset="1" stop-color="#2F43BB"/>
</linearGradient>
<linearGradient id="paint4_linear_35_293" x1="26.9083" y1="19.8716" x2="26.9083" y2="22.8002" gradientUnits="userSpaceOnUse">
<stop stop-color="#E4F2FF"/>
<stop offset="1" stop-color="#B2CBFF"/>
</linearGradient>
<linearGradient id="paint5_linear_35_293" x1="26.9083" y1="17.6127" x2="26.9083" y2="20.5414" gradientUnits="userSpaceOnUse">
<stop stop-color="#E4F2FF"/>
<stop offset="1" stop-color="#B2CBFF"/>
</linearGradient>
<linearGradient id="paint6_linear_35_293" x1="26.9083" y1="15.3539" x2="26.9083" y2="18.2825" gradientUnits="userSpaceOnUse">
<stop stop-color="#E4F2FF"/>
<stop offset="1" stop-color="#B2CBFF"/>
</linearGradient>
<linearGradient id="paint7_linear_35_293" x1="26.9083" y1="13.0951" x2="26.9083" y2="16.0238" gradientUnits="userSpaceOnUse">
<stop stop-color="#E4F2FF"/>
<stop offset="1" stop-color="#B2CBFF"/>
</linearGradient>
<linearGradient id="paint8_linear_35_293" x1="26.9083" y1="10.8363" x2="26.9083" y2="13.765" gradientUnits="userSpaceOnUse">
<stop stop-color="#E4F2FF"/>
<stop offset="1" stop-color="#B2CBFF"/>
</linearGradient>
<linearGradient id="paint9_linear_35_293" x1="26.9083" y1="8.5775" x2="26.9083" y2="11.5061" gradientUnits="userSpaceOnUse">
<stop stop-color="#E4F2FF"/>
<stop offset="1" stop-color="#B2CBFF"/>
</linearGradient>
<radialGradient id="paint10_radial_35_293" cx="0" cy="0" r="1" gradientUnits="userSpaceOnUse" gradientTransform="translate(12.9594 12.99) scale(21.1813)">
<stop stop-color="#4AB272"/>
<stop offset="0.3386" stop-color="#47B071"/>
<stop offset="0.5502" stop-color="#3FA870"/>
<stop offset="0.727" stop-color="#309B6D"/>
<stop offset="0.8837" stop-color="#1C8869"/>
<stop offset="1" stop-color="#077565"/>
</radialGradient>
<linearGradient id="paint11_linear_35_293" x1="8.94731" y1="22.79" x2="8.26879" y2="43.9384" gradientUnits="userSpaceOnUse">
<stop stop-color="#005A01" stop-opacity="0"/>
<stop offset="1" stop-color="#005A01"/>
</linearGradient>
<linearGradient id="paint12_linear_35_293" x1="15.1241" y1="26.9567" x2="18.1401" y2="38.4677" gradientUnits="userSpaceOnUse">
<stop stop-color="#005A01" stop-opacity="0"/>
<stop offset="1" stop-color="#005A01"/>
</linearGradient>
<linearGradient id="paint13_linear_35_293" x1="24.4559" y1="26.7306" x2="23.3501" y2="40.9057" gradientUnits="userSpaceOnUse">
<stop stop-color="#005A01" stop-opacity="0"/>
<stop offset="1" stop-color="#005A01"/>
</linearGradient>
<linearGradient id="paint14_linear_35_293" x1="15.2579" y1="18.4531" x2="1.08284" y2="-6.88107" gradientUnits="userSpaceOnUse">
<stop stop-color="#91F27F" stop-opacity="0"/>
<stop offset="1" stop-color="#FFED82"/>
</linearGradient>
<linearGradient id="paint15_linear_35_293" x1="14.671" y1="15.4069" x2="24.51" y2="23.8888" gradientUnits="userSpaceOnUse">
<stop stop-color="#FFC738"/>
<stop offset="0.1876" stop-color="#FDBF3C"/>
<stop offset="0.4837" stop-color="#F7A848"/>
<stop offset="0.8493" stop-color="#ED835B"/>
<stop offset="1" stop-color="#E97264"/>
</linearGradient>
<linearGradient id="paint16_linear_35_293" x1="15.5942" y1="-0.95235" x2="18.9118" y2="6.0598" gradientUnits="userSpaceOnUse">
<stop stop-color="#4AB272"/>
<stop offset="0.3386" stop-color="#47B071"/>
<stop offset="0.5502" stop-color="#3FA870"/>
<stop offset="0.727" stop-color="#309B6D"/>
<stop offset="0.8837" stop-color="#1C8869"/>
<stop offset="1" stop-color="#077565"/>
</linearGradient>
<linearGradient id="paint17_linear_35_293" x1="16.6838" y1="2.74911" x2="21.1575" y2="9.68582" gradientUnits="userSpaceOnUse">
<stop stop-color="#005A01" stop-opacity="0"/>
<stop offset="1" stop-color="#005A01"/>
</linearGradient>
<linearGradient id="paint18_linear_35_293" x1="16.903" y1="0.234037" x2="17.1292" y2="2.45829" gradientUnits="userSpaceOnUse">
<stop stop-color="#005A01" stop-opacity="0"/>
<stop offset="1" stop-color="#005A01"/>
</linearGradient>
<linearGradient id="paint19_linear_35_293" x1="15.9216" y1="2.97104" x2="7.36371" y2="2.82026" gradientUnits="userSpaceOnUse">
<stop stop-color="#91F27F" stop-opacity="0"/>
<stop offset="1" stop-color="#FFED82"/>
</linearGradient>
<linearGradient id="paint20_linear_35_293" x1="16.7294" y1="5.50036" x2="16.7294" y2="6.56665" gradientUnits="userSpaceOnUse">
<stop stop-color="#FFC738"/>
<stop offset="0.1876" stop-color="#FDBF3C"/>
<stop offset="0.4837" stop-color="#F7A848"/>
<stop offset="0.8493" stop-color="#ED835B"/>
<stop offset="1" stop-color="#E97264"/>
</linearGradient>
<linearGradient id="paint21_linear_35_293" x1="6.09187" y1="29.7877" x2="6.09187" y2="32.7163" gradientUnits="userSpaceOnUse">
<stop stop-color="#FFD945"/>
<stop offset="0.3043" stop-color="#FFCD3E"/>
<stop offset="0.8558" stop-color="#FFAD2B"/>
<stop offset="1" stop-color="#FFA325"/>
</linearGradient>
<linearGradient id="paint22_linear_35_293" x1="6.09185" y1="29.8301" x2="6.09185" y2="34.7555" gradientUnits="userSpaceOnUse">
<stop stop-color="#E87264" stop-opacity="0"/>
<stop offset="1" stop-color="#FF7044"/>
</linearGradient>
<linearGradient id="paint23_linear_35_293" x1="6.09178" y1="29.8301" x2="6.09178" y2="34.7555" gradientUnits="userSpaceOnUse">
<stop stop-color="#E87264" stop-opacity="0"/>
<stop offset="1" stop-color="#FF7044"/>
</linearGradient>
<linearGradient id="paint24_linear_35_293" x1="6.07959" y1="30.6192" x2="4.91183" y2="27.7952" gradientUnits="userSpaceOnUse">
<stop stop-color="#FFD945" stop-opacity="0"/>
<stop offset="1" stop-color="#FBED21"/>
</linearGradient>
<linearGradient id="paint25_linear_35_293" x1="6.09187" y1="27.5288" x2="6.09187" y2="30.4575" gradientUnits="userSpaceOnUse">
<stop stop-color="#FFD945"/>
<stop offset="0.3043" stop-color="#FFCD3E"/>
<stop offset="0.8558" stop-color="#FFAD2B"/>
<stop offset="1" stop-color="#FFA325"/>
</linearGradient>
<linearGradient id="paint26_linear_35_293" x1="6.09185" y1="27.5713" x2="6.09185" y2="32.4966" gradientUnits="userSpaceOnUse">
<stop stop-color="#E87264" stop-opacity="0"/>
<stop offset="1" stop-color="#FF7044"/>
</linearGradient>
<linearGradient id="paint27_linear_35_293" x1="6.09178" y1="27.5713" x2="6.09178" y2="32.4966" gradientUnits="userSpaceOnUse">
<stop stop-color="#E87264" stop-opacity="0"/>
<stop offset="1" stop-color="#FF7044"/>
</linearGradient>
<linearGradient id="paint28_linear_35_293" x1="6.07959" y1="28.3603" x2="4.91183" y2="25.5364" gradientUnits="userSpaceOnUse">
<stop stop-color="#FFD945" stop-opacity="0"/>
<stop offset="1" stop-color="#FBED21"/>
</linearGradient>
<linearGradient id="paint29_linear_35_293" x1="6.09187" y1="25.27" x2="6.09187" y2="28.1987" gradientUnits="userSpaceOnUse">
<stop stop-color="#FFD945"/>
<stop offset="0.3043" stop-color="#FFCD3E"/>
<stop offset="0.8558" stop-color="#FFAD2B"/>
<stop offset="1" stop-color="#FFA325"/>
</linearGradient>
<linearGradient id="paint30_linear_35_293" x1="6.09185" y1="25.3125" x2="6.09185" y2="30.2378" gradientUnits="userSpaceOnUse">
<stop stop-color="#E87264" stop-opacity="0"/>
<stop offset="1" stop-color="#FF7044"/>
</linearGradient>
<linearGradient id="paint31_linear_35_293" x1="6.09178" y1="25.3125" x2="6.09178" y2="30.2378" gradientUnits="userSpaceOnUse">
<stop stop-color="#E87264" stop-opacity="0"/>
<stop offset="1" stop-color="#FF7044"/>
</linearGradient>
<linearGradient id="paint32_linear_35_293" x1="6.07959" y1="26.1015" x2="4.91183" y2="23.2776" gradientUnits="userSpaceOnUse">
<stop stop-color="#FFD945" stop-opacity="0"/>
<stop offset="1" stop-color="#FBED21"/>
</linearGradient>
<linearGradient id="paint33_linear_35_293" x1="6.09187" y1="23.0112" x2="6.09187" y2="25.9399" gradientUnits="userSpaceOnUse">
<stop stop-color="#FFD945"/>
<stop offset="0.3043" stop-color="#FFCD3E"/>
<stop offset="0.8558" stop-color="#FFAD2B"/>
<stop offset="1" stop-color="#FFA325"/>
</linearGradient>
<linearGradient id="paint34_linear_35_293" x1="6.09185" y1="23.0537" x2="6.09185" y2="27.9791" gradientUnits="userSpaceOnUse">
<stop stop-color="#E87264" stop-opacity="0"/>
<stop offset="1" stop-color="#FF7044"/>
</linearGradient>
<linearGradient id="paint35_linear_35_293" x1="6.09178" y1="23.0537" x2="6.09178" y2="27.979" gradientUnits="userSpaceOnUse">
<stop stop-color="#E87264" stop-opacity="0"/>
<stop offset="1" stop-color="#FF7044"/>
</linearGradient>
<linearGradient id="paint36_linear_35_293" x1="6.07959" y1="23.8427" x2="4.91183" y2="21.0188" gradientUnits="userSpaceOnUse">
<stop stop-color="#FFD945" stop-opacity="0"/>
<stop offset="1" stop-color="#FBED21"/>
</linearGradient>
<linearGradient id="paint37_linear_35_293" x1="6.09187" y1="20.7524" x2="6.09187" y2="23.6811" gradientUnits="userSpaceOnUse">
<stop stop-color="#FFD945"/>
<stop offset="0.3043" stop-color="#FFCD3E"/>
<stop offset="0.8558" stop-color="#FFAD2B"/>
<stop offset="1" stop-color="#FFA325"/>
</linearGradient>
<linearGradient id="paint38_linear_35_293" x1="6.09185" y1="20.7949" x2="6.09185" y2="25.7202" gradientUnits="userSpaceOnUse">
<stop stop-color="#E87264" stop-opacity="0"/>
<stop offset="1" stop-color="#FF7044"/>
</linearGradient>
<linearGradient id="paint39_linear_35_293" x1="6.09178" y1="20.7949" x2="6.09178" y2="25.7202" gradientUnits="userSpaceOnUse">
<stop stop-color="#E87264" stop-opacity="0"/>
<stop offset="1" stop-color="#FF7044"/>
</linearGradient>
<linearGradient id="paint40_linear_35_293" x1="6.07959" y1="21.5839" x2="4.91183" y2="18.76" gradientUnits="userSpaceOnUse">
<stop stop-color="#FFD945" stop-opacity="0"/>
<stop offset="1" stop-color="#FBED21"/>
</linearGradient>
<linearGradient id="paint41_linear_35_293" x1="6.09187" y1="18.4936" x2="6.09187" y2="21.4222" gradientUnits="userSpaceOnUse">
<stop stop-color="#FFD945"/>
<stop offset="0.3043" stop-color="#FFCD3E"/>
<stop offset="0.8558" stop-color="#FFAD2B"/>
<stop offset="1" stop-color="#FFA325"/>
</linearGradient>
<linearGradient id="paint42_linear_35_293" x1="6.09185" y1="18.536" x2="6.09185" y2="23.4614" gradientUnits="userSpaceOnUse">
<stop stop-color="#E87264" stop-opacity="0"/>
<stop offset="1" stop-color="#FF7044"/>
</linearGradient>
<linearGradient id="paint43_linear_35_293" x1="6.09178" y1="18.536" x2="6.09178" y2="23.4614" gradientUnits="userSpaceOnUse">
<stop stop-color="#E87264" stop-opacity="0"/>
<stop offset="1" stop-color="#FF7044"/>
</linearGradient>
<linearGradient id="paint44_linear_35_293" x1="6.07959" y1="19.3251" x2="4.91183" y2="16.5011" gradientUnits="userSpaceOnUse">
<stop stop-color="#FFD945" stop-opacity="0"/>
<stop offset="1" stop-color="#FBED21"/>
</linearGradient>
<linearGradient id="paint45_linear_35_293" x1="2.77893" y1="11.6371" x2="5.74286" y2="15.6056" gradientUnits="userSpaceOnUse">
<stop stop-color="#FFD945"/>
<stop offset="0.3043" stop-color="#FFCD3E"/>
<stop offset="0.8558" stop-color="#FFAD2B"/>
<stop offset="1" stop-color="#FFA325"/>
</linearGradient>
<linearGradient id="paint46_linear_35_293" x1="7.57487" y1="3.53791" x2="9.67085" y2="6.34425" gradientUnits="userSpaceOnUse">
<stop stop-color="#FFD945"/>
<stop offset="0.3043" stop-color="#FFCD3E"/>
<stop offset="0.8558" stop-color="#FFAD2B"/>
<stop offset="1" stop-color="#FFA325"/>
</linearGradient>
<linearGradient id="paint47_linear_35_293" x1="25.6683" y1="5.08664" x2="27.7643" y2="7.89298" gradientUnits="userSpaceOnUse">
<stop stop-color="#FFD945"/>
<stop offset="0.3043" stop-color="#FFCD3E"/>
<stop offset="0.8558" stop-color="#FFAD2B"/>
<stop offset="1" stop-color="#FFA325"/>
</linearGradient>
<clipPath id="clip0_35_293">
<rect width="32" height="32" fill="white" transform="translate(0.5)"/>
</clipPath>
</defs>
</svg>
