<svg width="202" height="95" viewBox="0 0 202 95" fill="none" xmlns="http://www.w3.org/2000/svg">
<path d="M5 75.6096V87H197V37.7845C197 37.7845 186.2 4.65745 175.4 5.00268C168.445 5.225 163.4 16.3502 156.8 16.3502C150.2 16.3502 144.8 8.10974 138.8 8.78519C122 10.6764 117.2 61.5331 96.2 57.3274C87.2352 55.5321 84.5554 48.0551 75.8 45.3495C65.6 42.1974 54.8 67.2403 42.8 69.3054C32.3024 71.1119 26.2013 63.181 15.8 65.5229C7.4 67.4141 5 75.6096 5 75.6096Z" fill="url(#paint0_linear_19_1508)"/>
<g filter="url(#filter0_dd_19_1508)">
<mask id="path-2-inside-1_19_1508" fill="white">
<path d="M5.28227 76L5 75.8999C8.24804 65.7783 17.2765 64.1101 24.0231 65.7282C25.8558 66.1745 27.7243 66.7834 29.5292 67.3714C34.6697 69.0396 39.985 70.787 45.0697 68.8477C49.4906 67.1795 53.3111 62.8465 56.9964 58.6677C61.0515 54.0802 65.2457 49.3385 70.247 48.0957C75.6617 46.7528 80.981 49.7638 86.1493 52.6414C91.1227 55.4314 96.2631 58.3216 101.447 57.2831C108.341 55.9027 113.712 48.054 118.908 40.4638C124.307 32.5733 129.888 24.4118 137.196 23.5736C140.742 23.1565 144.268 24.612 147.679 26.0049C151.38 27.5146 155.193 29.0785 158.966 28.2444C161.351 27.7106 163.653 26.2093 165.871 24.7621C168.09 23.315 170.372 21.8428 172.789 21.2548C177.218 20.2247 182.143 22.3391 186.664 27.2143C190.683 31.5516 193.903 37.3735 197 42.9994L196.742 43.1579C193.641 37.5445 190.432 31.7434 186.437 27.4312C181.992 22.6394 177.162 20.5542 172.844 21.5634C170.459 22.1139 168.209 23.5944 166.014 25.029C163.82 26.4637 161.462 28.0025 159.013 28.553C155.157 29.4163 151.301 27.8399 147.576 26.3135C144.197 24.9331 140.706 23.5068 137.239 23.903C130.059 24.7371 124.517 32.8277 119.158 40.6598C113.931 48.2875 108.528 56.1863 101.515 57.5917C96.2313 58.6469 91.0392 55.7359 86.0101 52.9167C80.9055 50.0474 75.622 47.0781 70.3146 48.4001C65.4008 49.6179 61.2384 54.3263 57.2151 58.8804C53.4979 63.0842 49.6615 67.4339 45.1651 69.1438C39.9969 71.1164 34.6219 69.3648 29.4338 67.6717C27.6329 67.0836 25.7723 66.4747 23.9515 66.0327C17.3243 64.4354 8.46669 66.0827 5.28227 76Z"/>
</mask>
<path d="M5.28227 76L4.94807 76.9425L5.91933 77.2869L6.23439 76.3057L5.28227 76ZM5 75.8999L4.04783 75.5944L3.75137 76.5182L4.6658 76.8424L5 75.8999ZM24.0231 65.7282L24.2597 64.7566L24.2563 64.7558L24.0231 65.7282ZM29.5292 67.3714L29.2195 68.3222L29.2206 68.3226L29.5292 67.3714ZM45.0697 68.8477L44.7167 67.9121L44.7134 67.9134L45.0697 68.8477ZM56.9964 58.6677L56.2472 58.0054L56.2464 58.0063L56.9964 58.6677ZM70.247 48.0957L70.0063 47.1251L70.0058 47.1252L70.247 48.0957ZM86.1493 52.6414L86.6385 51.7693L86.6357 51.7677L86.1493 52.6414ZM101.447 57.2831L101.251 56.3026L101.251 56.3026L101.447 57.2831ZM118.908 40.4638L119.733 41.0287L119.733 41.0285L118.908 40.4638ZM137.196 23.5736L137.31 24.567L137.312 24.5667L137.196 23.5736ZM147.679 26.0049L147.301 26.9307L147.301 26.9308L147.679 26.0049ZM158.966 28.2444L159.182 29.2209L159.184 29.2203L158.966 28.2444ZM172.789 21.2548L172.562 20.2807L172.552 20.2831L172.789 21.2548ZM186.664 27.2143L187.397 26.5346L187.397 26.5344L186.664 27.2143ZM197 42.9994L197.523 43.8519L198.336 43.3531L197.876 42.5172L197 42.9994ZM196.742 43.1579L195.866 43.6414L196.372 44.5574L197.264 44.0104L196.742 43.1579ZM186.437 27.4312L187.17 26.7515L187.17 26.7511L186.437 27.4312ZM172.844 21.5634L173.069 22.5378L173.072 22.5372L172.844 21.5634ZM159.013 28.553L159.232 29.5289L159.233 29.5287L159.013 28.553ZM147.576 26.3135L147.955 25.3882L147.954 25.3878L147.576 26.3135ZM137.239 23.903L137.126 22.9095L137.124 22.9097L137.239 23.903ZM119.158 40.6598L119.983 41.2251L119.984 41.2245L119.158 40.6598ZM101.515 57.5917L101.711 58.5724L101.711 58.5722L101.515 57.5917ZM86.0101 52.9167L85.5201 53.7884L85.5211 53.789L86.0101 52.9167ZM70.3146 48.4001L70.5551 49.3707L70.5563 49.3705L70.3146 48.4001ZM57.2151 58.8804L57.9642 59.5428L57.9645 59.5425L57.2151 58.8804ZM45.1651 69.1438L44.8097 68.2091L44.8086 68.2096L45.1651 69.1438ZM29.4338 67.6717L29.1234 68.6223L29.1236 68.6223L29.4338 67.6717ZM23.9515 66.0327L24.1875 65.0609L24.1858 65.0605L23.9515 66.0327ZM5.61646 75.0575L5.3342 74.9574L4.6658 76.8424L4.94807 76.9425L5.61646 75.0575ZM5.95217 76.2055C7.48927 71.4155 10.3569 68.6969 13.5885 67.333C16.8556 65.954 20.5739 65.9293 23.7899 66.7007L24.2563 64.7558C20.7257 63.909 16.5565 63.9094 12.8108 65.4904C9.02937 67.0864 5.75876 70.2627 4.04783 75.5944L5.95217 76.2055ZM23.7865 66.6999C25.5758 67.1355 27.4076 67.7319 29.2195 68.3222L29.839 66.4206C28.041 65.8348 26.1358 65.2134 24.2597 64.7566L23.7865 66.6999ZM29.2206 68.3226C34.2784 69.9639 39.9529 71.8694 45.4261 69.7821L44.7134 67.9134C40.017 69.7045 35.0609 68.1152 29.8379 66.4202L29.2206 68.3226ZM45.4228 69.7833C47.8037 68.8849 49.9738 67.2896 51.9866 65.4345C53.9999 63.579 55.9109 61.4105 57.7464 59.3291L56.2464 58.0063C54.3966 60.1037 52.5547 62.1911 50.6312 63.9639C48.7072 65.7371 46.7566 67.1424 44.7167 67.9121L45.4228 69.7833ZM57.7457 59.33C59.7822 57.0261 61.8022 54.7438 63.9266 52.8789C66.0506 51.0144 68.2077 49.6328 70.4882 49.0662L70.0058 47.1252C67.285 47.8013 64.8443 49.412 62.6072 51.3759C60.3704 53.3395 58.2657 55.7218 56.2472 58.0054L57.7457 59.33ZM70.4877 49.0663C72.9387 48.4584 75.4113 48.8221 77.9551 49.7279C80.5142 50.6392 83.0598 52.0658 85.6628 53.5151L86.6357 51.7677C84.0705 50.3394 81.3724 48.8218 78.626 47.8438C75.8644 46.8604 72.97 46.39 70.0063 47.1251L70.4877 49.0663ZM85.66 53.5136C88.1316 54.9001 90.7307 56.3624 93.3735 57.3363C96.0273 58.3142 98.8059 58.8321 101.644 58.2636L101.251 56.3026C98.9044 56.7726 96.5208 56.3646 94.065 55.4596C91.5982 54.5506 89.1404 53.1728 86.6385 51.7693L85.66 53.5136ZM101.644 58.2637C105.396 57.5123 108.64 55.0236 111.548 51.8814C114.461 48.7337 117.145 44.8089 119.733 41.0287L118.083 39.8989C115.475 43.7089 112.875 47.5035 110.08 50.5229C107.281 53.5477 104.392 55.6735 101.251 56.3026L101.644 58.2637ZM119.733 41.0285C122.444 37.0664 125.143 33.1256 128.06 30.0639C130.981 26.9985 133.999 24.9468 137.31 24.567L137.082 22.5801C133.085 23.0386 129.659 25.4868 126.612 28.6843C123.562 31.8855 120.77 35.9708 118.083 39.8991L119.733 41.0285ZM137.312 24.5667C140.555 24.1854 143.829 25.513 147.301 26.9307L148.057 25.0791C144.707 23.7109 140.929 22.1276 137.079 22.5804L137.312 24.5667ZM147.301 26.9308C150.928 28.4101 155.048 30.1348 159.182 29.2209L158.75 27.268C155.338 28.0223 151.833 26.6191 148.057 25.079L147.301 26.9308ZM159.184 29.2203C161.78 28.6394 164.239 27.0212 166.418 25.5997L165.325 23.9246C163.067 25.3973 160.922 26.7818 158.747 27.2686L159.184 29.2203ZM166.418 25.5997C168.666 24.1331 170.804 22.7668 173.025 22.2265L172.552 20.2831C169.939 20.9188 167.513 22.4969 165.325 23.9246L166.418 25.5997ZM173.015 22.2288C176.947 21.3142 181.53 23.1485 185.93 27.8942L187.397 26.5344C182.757 21.5297 177.488 19.1352 172.562 20.2808L173.015 22.2288ZM185.93 27.894C189.85 32.1245 193.013 37.8305 196.124 43.4816L197.876 42.5172C194.793 36.9165 191.515 30.9787 187.397 26.5346L185.93 27.894ZM196.477 42.1469L196.219 42.3054L197.264 44.0104L197.523 43.8519L196.477 42.1469ZM197.617 42.6743C194.531 37.0876 191.265 31.1703 187.17 26.7515L185.703 28.1108C189.6 32.3165 192.751 38.0013 195.866 43.6414L197.617 42.6743ZM187.17 26.7511C182.608 21.833 177.434 19.4635 172.617 20.5897L173.072 22.5372C176.89 21.6448 181.376 23.4458 185.704 28.1112L187.17 26.7511ZM172.62 20.589C170.027 21.1873 167.623 22.7831 165.467 24.192L166.562 25.866C168.795 24.4058 170.891 23.0405 173.069 22.5378L172.62 20.589ZM165.467 24.192C163.236 25.651 161.033 27.074 158.794 27.5774L159.233 29.5287C161.891 28.9311 164.404 27.2764 166.562 25.866L165.467 24.192ZM158.795 27.5772C155.3 28.3595 151.75 26.9431 147.955 25.3882L147.197 27.2389C150.852 28.7367 155.014 30.4731 159.232 29.5289L158.795 27.5772ZM147.954 25.3878C144.633 24.0313 140.894 22.4788 137.126 22.9095L137.353 24.8965C140.518 24.5348 143.76 25.8349 147.198 27.2393L147.954 25.3878ZM137.124 22.9097C133.19 23.3667 129.805 25.7977 126.791 28.9681C123.773 32.1434 121.001 36.1956 118.333 40.0951L119.984 41.2245C122.675 37.2919 125.354 33.3828 128.241 30.3462C131.132 27.3047 134.109 25.2734 137.355 24.8963L137.124 22.9097ZM118.334 40.0945C115.709 43.9235 113.094 47.7395 110.273 50.7788C107.448 53.8225 104.521 55.9693 101.318 56.6112L101.711 58.5722C105.521 57.8087 108.802 55.3034 111.739 52.1394C114.68 48.9711 117.38 45.0238 119.983 41.2251L118.334 40.0945ZM101.319 56.6111C98.9206 57.09 96.4979 56.6796 94.0112 55.7682C91.5127 54.8524 89.0284 53.4623 86.4991 52.0444L85.5211 53.789C88.0209 55.1903 90.6472 56.6653 93.3229 57.646C96.0104 58.631 98.8255 59.1485 101.711 58.5724L101.319 56.6111ZM86.5001 52.045C83.9638 50.6193 81.2913 49.1143 78.5745 48.1448C75.844 47.1705 72.9844 46.7045 70.0729 47.4298L70.5563 49.3705C72.9521 48.7737 75.388 49.1313 77.9023 50.0285C80.4302 50.9305 82.9519 52.3448 85.5201 53.7884L86.5001 52.045ZM70.074 47.4295C67.395 48.0934 64.9835 49.691 62.7703 51.6384C60.5568 53.5861 58.4683 55.9514 56.4657 58.2183L57.9645 59.5425C59.9851 57.2553 61.9895 54.9894 64.0915 53.1399C66.1937 51.2901 68.3203 49.9246 70.5551 49.3707L70.074 47.4295ZM56.466 58.218C54.5999 60.3283 52.7462 62.426 50.8053 64.2113C48.8647 65.9965 46.89 67.418 44.8097 68.2091L45.5206 70.0785C47.9366 69.1597 50.1284 67.5515 52.1593 65.6833C54.19 63.8153 56.1131 61.6363 57.9642 59.5428L56.466 58.218ZM44.8086 68.2096C40.0279 70.0342 35.009 68.4393 29.7441 66.721L29.1236 68.6223C34.2349 70.2904 39.9659 72.1986 45.5217 70.0781L44.8086 68.2096ZM29.7442 66.721C27.951 66.1355 26.0527 65.5138 24.1875 65.0609L23.7156 67.0044C25.492 67.4357 27.3148 68.0317 29.1234 68.6223L29.7442 66.721ZM24.1858 65.0605C20.7142 64.2238 16.6173 64.2242 12.9371 65.777C9.22144 67.3448 6.00937 70.4647 4.33015 75.6943L6.23439 76.3057C7.73959 71.618 10.5485 68.9556 13.7146 67.6197C16.9161 66.2689 20.5616 66.2443 23.7172 67.0048L24.1858 65.0605Z" fill="#959595" mask="url(#path-2-inside-1_19_1508)"/>
</g>
<g filter="url(#filter1_dd_19_1508)">
<mask id="path-4-inside-2_19_1508" fill="white">
<path d="M5.29017 87L5 86.9346C6.52239 79.8594 9.50755 74.8687 13.6375 72.5062C16.722 70.7405 20.4187 70.487 24.0438 71.795C25.9197 72.512 27.7573 73.3307 29.549 74.2474C34.6767 76.7489 39.9832 79.3321 45.0512 76.4505C49.4713 73.9368 53.2912 67.4869 56.9759 61.2496C61.0303 54.4033 65.2238 47.328 70.2282 45.4724C75.6659 43.4573 81.0082 47.9248 86.1716 52.2574C91.1402 56.4224 96.2798 60.7264 101.447 59.1855C108.332 57.1418 113.706 45.4029 118.901 34.0645C124.295 22.2929 129.876 10.1166 137.186 8.86592C140.763 8.26099 144.281 10.415 147.695 12.4996C151.376 14.7476 155.18 17.0693 158.928 15.8144C161.313 15.0174 163.611 12.7816 165.825 10.6194C168.039 8.45718 170.328 6.22548 172.753 5.38348C177.193 3.83846 182.134 6.9939 186.665 14.2735C190.684 20.7397 193.9 29.4254 197 37.8208L196.722 37.9312C193.617 29.548 190.41 20.8787 186.407 14.437C181.963 7.28819 177.149 4.18179 172.848 5.67368C170.487 6.49116 168.222 8.70651 166.031 10.8442C163.841 12.9819 161.468 15.2872 159.02 16.1087C155.144 17.4044 151.281 15.046 147.544 12.7653C144.173 10.7216 140.687 8.5798 137.233 9.16838C130.078 10.3946 124.514 22.4932 119.159 34.1953C113.936 45.595 108.534 57.3829 101.519 59.4798C96.2082 61.0657 91.013 56.7085 85.9848 52.4985C80.889 48.2232 75.6103 43.8047 70.3316 45.7585C65.4266 47.5774 61.2609 54.6076 57.2343 61.409C53.5217 67.679 49.6819 74.1657 45.1903 76.7203C39.9951 79.6795 34.617 77.0554 29.4218 74.5213C27.6371 73.6101 25.809 72.7915 23.9444 72.0689C20.3988 70.7936 16.7896 71.0388 13.7806 72.7596C9.73014 75.0935 6.79268 80.0106 5.29017 87Z"/>
</mask>
<path d="M5.29017 87L5.07032 87.9755L6.05557 88.1976L6.26783 87.2102L5.29017 87ZM5 86.9346L4.02238 86.7243L3.81405 87.6924L4.78015 87.9101L5 86.9346ZM13.6375 72.5062L14.134 73.3742L14.1343 73.3741L13.6375 72.5062ZM24.0438 71.795L24.4008 70.8609L24.392 70.8576L24.3832 70.8544L24.0438 71.795ZM29.549 74.2474L29.0935 75.1377L29.102 75.142L29.1106 75.1462L29.549 74.2474ZM45.0512 76.4505L45.5455 77.3198L45.5455 77.3198L45.0512 76.4505ZM56.9759 61.2496L56.1155 60.74L56.1149 60.741L56.9759 61.2496ZM70.2282 45.4724L69.8808 44.5347L69.8806 44.5347L70.2282 45.4724ZM86.1716 52.2574L85.5288 53.0234L85.5292 53.0238L86.1716 52.2574ZM101.447 59.1855L101.163 58.2268L101.161 58.2272L101.447 59.1855ZM118.901 34.0645L117.992 33.648L117.992 33.648L118.901 34.0645ZM137.186 8.86592L137.019 7.87991L137.017 7.88024L137.186 8.86592ZM147.695 12.4996L148.216 11.6462L148.216 11.6461L147.695 12.4996ZM158.928 15.8144L158.611 14.866L158.611 14.8662L158.928 15.8144ZM172.753 5.38348L173.081 6.32814L173.082 6.32793L172.753 5.38348ZM186.665 14.2735L187.515 13.7457L187.514 13.745L186.665 14.2735ZM197 37.8208L197.369 38.7504L198.276 38.3904L197.938 37.4744L197 37.8208ZM196.722 37.9312L195.784 38.2784L196.139 39.238L197.09 38.8607L196.722 37.9312ZM186.407 14.437L187.256 13.9092L187.256 13.9091L186.407 14.437ZM172.848 5.67368L173.176 6.61865L173.176 6.61846L172.848 5.67368ZM159.02 16.1087L159.337 17.0571L159.338 17.0568L159.02 16.1087ZM147.544 12.7653L148.065 11.9117L148.063 11.9102L147.544 12.7653ZM137.233 9.16838L137.065 8.18259L137.064 8.18275L137.233 9.16838ZM119.159 34.1953L120.068 34.6119L120.069 34.6114L119.159 34.1953ZM101.519 59.4798L101.805 60.438L101.805 60.4379L101.519 59.4798ZM85.9848 52.4985L85.342 53.2646L85.3428 53.2653L85.9848 52.4985ZM70.3316 45.7585L69.9845 44.8207L69.9839 44.8209L70.3316 45.7585ZM57.2343 61.409L58.0947 61.9185L58.0948 61.9184L57.2343 61.409ZM45.1903 76.7203L44.6959 75.851L44.6954 75.8514L45.1903 76.7203ZM29.4218 74.5213L28.9671 75.4119L28.9752 75.4161L28.9834 75.4201L29.4218 74.5213ZM23.9444 72.0689L24.3058 71.1364L24.2944 71.132L24.2829 71.1279L23.9444 72.0689ZM13.7806 72.7596L13.2841 71.8915L13.2813 71.8932L13.7806 72.7596ZM5.51002 86.0245L5.21985 85.9591L4.78015 87.9101L5.07032 87.9755L5.51002 86.0245ZM5.97762 87.145C7.4715 80.2022 10.3552 75.5359 14.134 73.3742L13.1409 71.6382C8.6599 74.2015 5.57328 79.5165 4.02238 86.7243L5.97762 87.145ZM14.1343 73.3741C16.9411 71.7673 20.3291 71.5178 23.7044 72.7356L24.3832 70.8544C20.5083 69.4563 16.5029 69.7136 13.1407 71.6383L14.1343 73.3741ZM23.6867 72.7291C25.529 73.4333 27.3337 74.2372 29.0935 75.1377L30.0045 73.3572C28.1809 72.4241 26.3104 71.5908 24.4008 70.8609L23.6867 72.7291ZM29.1106 75.1462C31.6511 76.3855 34.3652 77.7135 37.0983 78.3422C39.8699 78.9797 42.7358 78.9174 45.5455 77.3198L44.5569 75.5812C42.2986 76.8653 39.9772 76.9521 37.5466 76.3931C35.0776 75.8251 32.5746 74.6108 29.9875 73.3487L29.1106 75.1462ZM45.5455 77.3198C47.9443 75.9556 50.1059 73.574 52.0981 70.8345C54.0993 68.0826 55.9999 64.8678 57.8369 61.7582L56.1149 60.741C54.2672 63.8688 52.4154 66.9975 50.4805 69.6583C48.5365 72.3315 46.5782 74.4317 44.5568 75.5813L45.5455 77.3198ZM57.8363 61.7592C59.871 58.3234 61.9024 54.8972 64.0407 52.0963C66.1938 49.276 68.3496 47.2355 70.5759 46.41L69.8806 44.5347C67.1025 45.5649 64.6594 47.9899 62.451 50.8827C60.2277 53.7949 58.1352 57.3294 56.1155 60.74L57.8363 61.7592ZM70.5757 46.41C72.9235 45.54 75.3077 46.0323 77.8354 47.3686C80.384 48.7158 82.9263 50.8397 85.5288 53.0234L86.8144 51.4913C84.2535 49.3425 81.543 47.0663 78.7701 45.6004C75.9765 44.1236 72.9707 43.3896 69.8808 44.5347L70.5757 46.41ZM85.5292 53.0238C87.9944 55.0902 90.5988 57.2771 93.2528 58.7373C95.9181 60.2037 98.785 61.0229 101.733 60.1438L101.161 58.2272C98.942 58.889 96.6554 58.3266 94.2169 56.985C91.7671 55.6372 89.3175 53.5896 86.814 51.491L85.5292 53.0238ZM101.732 60.1441C105.562 59.0071 108.796 55.2579 111.658 50.637C114.551 45.9657 117.22 40.1342 119.81 34.4811L117.992 33.648C115.387 39.3332 112.771 45.0404 109.957 49.584C107.112 54.1781 104.217 57.3202 101.163 58.2268L101.732 60.1441ZM119.81 34.4811C122.515 28.577 125.229 22.6595 128.168 18.0581C131.143 13.3979 134.161 10.3979 137.354 9.85159L137.017 7.88024C132.9 8.58469 129.473 12.2981 126.482 16.9817C123.454 21.724 120.68 27.7805 117.992 33.648L119.81 34.4811ZM137.352 9.85192C138.888 9.59224 140.463 9.91468 142.12 10.5986C143.788 11.2866 145.452 12.3016 147.174 13.3531L148.216 11.6461C146.524 10.613 144.722 9.50875 142.883 8.74979C141.034 7.98678 139.061 7.53466 137.019 7.87991L137.352 9.85192ZM147.174 13.353C148.996 14.4656 150.95 15.6628 152.935 16.407C154.939 17.158 157.077 17.4888 159.246 16.7627L158.611 14.8662C157.031 15.3949 155.393 15.1923 153.637 14.5342C151.863 13.8692 150.076 12.7816 148.216 11.6462L147.174 13.353ZM159.245 16.7629C160.601 16.3097 161.88 15.4678 163.069 14.5066C164.261 13.5431 165.423 12.4097 166.523 11.3348L165.126 9.90397C164.013 10.9913 162.918 12.0569 161.812 12.9511C160.703 13.8476 159.64 14.5221 158.611 14.866L159.245 16.7629ZM166.523 11.3348C167.637 10.2473 168.73 9.18249 169.839 8.28337C170.951 7.38289 172.025 6.69477 173.081 6.32814L172.425 4.43882C171.056 4.91419 169.773 5.76292 168.58 6.72934C167.386 7.69713 166.227 8.82923 165.126 9.90397L166.523 11.3348ZM173.082 6.32793C174.949 5.67818 176.976 5.98132 179.136 7.36194C181.321 8.75752 183.594 11.2313 185.816 14.802L187.514 13.745C185.205 10.0361 182.742 7.29236 180.213 5.67657C177.661 4.04583 174.997 3.54376 172.424 4.43903L173.082 6.32793ZM185.816 14.8013C189.77 21.1636 192.951 29.7435 196.062 38.1672L197.938 37.4744C194.848 29.1073 191.598 20.3158 187.515 13.7457L185.816 14.8013ZM196.631 36.8913L196.353 37.0016L197.09 38.8607L197.369 38.7504L196.631 36.8913ZM197.66 37.5839C194.566 29.2302 191.323 20.4547 187.256 13.9092L185.557 14.9648C189.496 21.3027 192.669 29.8658 195.784 38.2784L197.66 37.5839ZM187.256 13.9091C184.992 10.2667 182.584 7.56892 180.117 5.97513C177.627 4.36675 175.029 3.85901 172.521 4.72891L173.176 6.61846C174.969 5.99647 176.928 6.29598 179.031 7.65503C181.157 9.02867 183.378 11.4585 185.558 14.9649L187.256 13.9091ZM172.521 4.72872C171.182 5.19257 169.919 6.0329 168.745 6.98801C167.568 7.94507 166.421 9.06669 165.333 10.1286L166.73 11.5598C167.832 10.484 168.913 9.42912 170.007 8.53971C171.103 7.64835 172.154 6.97227 173.176 6.61865L172.521 4.72872ZM165.333 10.1286C164.232 11.2031 163.125 12.2801 161.995 13.1917C160.861 14.106 159.763 14.8045 158.702 15.1607L159.338 17.0568C160.725 16.5914 162.038 15.7265 163.25 14.7484C164.466 13.7675 165.641 12.623 166.73 11.5598L165.333 10.1286ZM158.703 15.1603C157.056 15.711 155.368 15.5063 153.578 14.8408C151.768 14.1679 149.952 13.0636 148.065 11.9117L147.023 13.6188C148.872 14.7477 150.857 15.9629 152.881 16.7155C154.926 17.4755 157.108 17.8021 159.337 17.0571L158.703 15.1603ZM148.063 11.9102C146.394 10.8985 144.612 9.80844 142.804 9.05641C140.988 8.30111 139.051 7.84424 137.065 8.18259L137.401 10.1542C138.87 9.90394 140.403 10.2237 142.036 10.903C143.677 11.5857 145.324 12.5883 147.026 13.6204L148.063 11.9102ZM137.064 8.18275C135.023 8.53262 133.164 9.64588 131.465 11.2162C129.766 12.7865 128.179 14.8578 126.678 17.2163C123.678 21.9269 120.919 27.9455 118.25 33.7793L120.069 34.6114C122.754 28.743 125.454 22.8613 128.365 18.2905C129.818 16.0083 131.298 14.0936 132.822 12.6849C134.347 11.2761 135.866 10.4172 137.402 10.154L137.064 8.18275ZM118.25 33.7788C115.631 39.4946 113.002 45.2288 110.162 49.7982C107.292 54.4153 104.356 57.588 101.232 58.5216L101.805 60.4379C105.697 59.2747 108.97 55.505 111.861 50.854C114.781 46.1554 117.464 40.2957 120.068 34.6119L118.25 33.7788ZM101.233 58.5216C98.9377 59.2069 96.5997 58.6384 94.1258 57.2853C91.638 55.9245 89.1606 53.8533 86.6267 51.7318L85.3428 53.2653C87.8372 55.3537 90.4715 57.5661 93.166 59.0399C95.8744 60.5214 98.7893 61.3385 101.805 60.438L101.233 58.5216ZM86.6275 51.7325C84.1003 49.6122 81.4238 47.3637 78.6972 45.9101C75.9527 44.4471 73.0001 43.7045 69.9845 44.8207L70.6787 46.6963C72.9417 45.8587 75.2679 46.3484 77.7563 47.675C80.2626 49.0111 82.7734 51.1095 85.342 53.2646L86.6275 51.7325ZM69.9839 44.8209C67.2535 45.8334 64.8417 48.2404 62.6578 51.1097C60.458 53.9999 58.3797 57.5113 56.3738 60.8996L58.0948 61.9184C60.1155 58.5053 62.1333 55.1009 64.2492 52.321C66.3811 49.52 68.5047 47.5025 70.6793 46.6961L69.9839 44.8209ZM56.3738 60.8995C54.5118 64.0441 52.6484 67.19 50.6962 69.869C48.7356 72.5597 46.7541 74.6804 44.6959 75.851L45.6847 77.5895C48.1181 76.2055 50.3024 73.8056 52.3126 71.0468C54.3314 68.2764 56.2442 65.0439 58.0947 61.9185L56.3738 60.8995ZM44.6954 75.8514C42.371 77.1753 39.9987 77.2693 37.5284 76.7058C35.0184 76.1333 32.4816 74.9012 29.8602 73.6225L28.9834 75.4201C31.5572 76.6755 34.3071 78.0225 37.0837 78.6558C39.9001 79.2981 42.8144 79.2245 45.6852 77.5892L44.6954 75.8514ZM29.8766 73.6306C28.0615 72.7039 26.2022 71.8715 24.3058 71.1364L23.583 73.0013C25.4157 73.7116 27.2127 74.5162 28.9671 75.4119L29.8766 73.6306ZM24.2829 71.1279C20.4889 69.7633 16.5714 70.0117 13.2841 71.8915L14.277 73.6277C17.0078 72.066 20.3087 71.8239 23.606 73.0098L24.2829 71.1279ZM13.2813 71.8932C8.88161 74.4283 5.84337 79.6685 4.3125 86.7898L6.26783 87.2102C7.742 80.3527 10.5787 75.7587 14.2798 73.6261L13.2813 71.8932Z" fill="#959595" mask="url(#path-4-inside-2_19_1508)"/>
</g>
<rect x="3" y="5" width="194" height="82" fill="url(#paint1_linear_19_1508)"/>
<g filter="url(#filter2_d_19_1508)">
<path fill-rule="evenodd" clip-rule="evenodd" d="M134.414 16.354H135.411V37.8636H140V56.5528H135.411V78.0623H134.414V56.5528H130.024V37.8636H134.414V16.354ZM110.472 23.4825H111.469V41.3039H115.859V56.8007H111.469V74.622H110.472V56.8007H105.883V41.3039H110.472V23.4825ZM87.3284 39.4442H86.3309V49.2692H81.9415V57.7924H86.3309V67.6174H87.3284V57.7924H91.9172V49.2692H87.3284V39.4442ZM62.3889 30.7659H63.3865V45.147H67.9757V57.6374H63.3865V72.0184H62.3889V57.6374H58V45.147H62.3889V30.7659Z" fill="url(#paint2_linear_19_1508)"/>
<path fill-rule="evenodd" clip-rule="evenodd" d="M134.414 16.354H135.411V37.8636H140V56.5528H135.411V78.0623H134.414V56.5528H130.024V37.8636H134.414V16.354ZM110.472 23.4825H111.469V41.3039H115.859V56.8007H111.469V74.622H110.472V56.8007H105.883V41.3039H110.472V23.4825ZM87.3284 39.4442H86.3309V49.2692H81.9415V57.7924H86.3309V67.6174H87.3284V57.7924H91.9172V49.2692H87.3284V39.4442ZM62.3889 30.7659H63.3865V45.147H67.9757V57.6374H63.3865V72.0184H62.3889V57.6374H58V45.147H62.3889V30.7659Z" fill="url(#paint3_linear_19_1508)"/>
</g>
<defs>
<filter id="filter0_dd_19_1508" x="0" y="16" width="202" height="65" filterUnits="userSpaceOnUse" color-interpolation-filters="sRGB">
<feFlood flood-opacity="0" result="BackgroundImageFix"/>
<feColorMatrix in="SourceAlpha" type="matrix" values="0 0 0 0 0 0 0 0 0 0 0 0 0 0 0 0 0 0 127 0" result="hardAlpha"/>
<feOffset/>
<feGaussianBlur stdDeviation="2.5"/>
<feComposite in2="hardAlpha" operator="out"/>
<feColorMatrix type="matrix" values="0 0 0 0 0.583333 0 0 0 0 0.583333 0 0 0 0 0.583333 0 0 0 1 0"/>
<feBlend mode="normal" in2="BackgroundImageFix" result="effect1_dropShadow_19_1508"/>
<feColorMatrix in="SourceAlpha" type="matrix" values="0 0 0 0 0 0 0 0 0 0 0 0 0 0 0 0 0 0 127 0" result="hardAlpha"/>
<feOffset/>
<feGaussianBlur stdDeviation="2.5"/>
<feComposite in2="hardAlpha" operator="out"/>
<feColorMatrix type="matrix" values="0 0 0 0 0.583333 0 0 0 0 0.583333 0 0 0 0 0.583333 0 0 0 1 0"/>
<feBlend mode="normal" in2="effect1_dropShadow_19_1508" result="effect2_dropShadow_19_1508"/>
<feBlend mode="normal" in="SourceGraphic" in2="effect2_dropShadow_19_1508" result="shape"/>
</filter>
<filter id="filter1_dd_19_1508" x="0" y="0" width="202" height="92" filterUnits="userSpaceOnUse" color-interpolation-filters="sRGB">
<feFlood flood-opacity="0" result="BackgroundImageFix"/>
<feColorMatrix in="SourceAlpha" type="matrix" values="0 0 0 0 0 0 0 0 0 0 0 0 0 0 0 0 0 0 127 0" result="hardAlpha"/>
<feOffset/>
<feGaussianBlur stdDeviation="2.5"/>
<feComposite in2="hardAlpha" operator="out"/>
<feColorMatrix type="matrix" values="0 0 0 0 0.583333 0 0 0 0 0.583333 0 0 0 0 0.583333 0 0 0 1 0"/>
<feBlend mode="normal" in2="BackgroundImageFix" result="effect1_dropShadow_19_1508"/>
<feColorMatrix in="SourceAlpha" type="matrix" values="0 0 0 0 0 0 0 0 0 0 0 0 0 0 0 0 0 0 127 0" result="hardAlpha"/>
<feOffset/>
<feGaussianBlur stdDeviation="2.5"/>
<feComposite in2="hardAlpha" operator="out"/>
<feColorMatrix type="matrix" values="0 0 0 0 0.583333 0 0 0 0 0.583333 0 0 0 0 0.583333 0 0 0 1 0"/>
<feBlend mode="normal" in2="effect1_dropShadow_19_1508" result="effect2_dropShadow_19_1508"/>
<feBlend mode="normal" in="SourceGraphic" in2="effect2_dropShadow_19_1508" result="shape"/>
</filter>
<filter id="filter2_d_19_1508" x="46" y="-3" width="106" height="106" filterUnits="userSpaceOnUse" color-interpolation-filters="sRGB">
<feFlood flood-opacity="0" result="BackgroundImageFix"/>
<feColorMatrix in="SourceAlpha" type="matrix" values="0 0 0 0 0 0 0 0 0 0 0 0 0 0 0 0 0 0 127 0" result="hardAlpha"/>
<feOffset dy="4"/>
<feGaussianBlur stdDeviation="6"/>
<feComposite in2="hardAlpha" operator="out"/>
<feColorMatrix type="matrix" values="0 0 0 0 0 0 0 0 0 0 0 0 0 0 0 0 0 0 0.08 0"/>
<feBlend mode="normal" in2="BackgroundImageFix" result="effect1_dropShadow_19_1508"/>
<feBlend mode="normal" in="SourceGraphic" in2="effect1_dropShadow_19_1508" result="shape"/>
</filter>
<linearGradient id="paint0_linear_19_1508" x1="101" y1="5" x2="101" y2="87" gradientUnits="userSpaceOnUse">
<stop stop-color="#959595" stop-opacity="0.4"/>
<stop offset="1" stop-color="#959595" stop-opacity="0"/>
</linearGradient>
<linearGradient id="paint1_linear_19_1508" x1="3" y1="55.4615" x2="197" y2="55.4615" gradientUnits="userSpaceOnUse">
<stop offset="0.213696" stop-color="#272A30" stop-opacity="0"/>
<stop offset="0.306109" stop-color="#272A30" stop-opacity="0.6"/>
<stop offset="0.696331" stop-color="#272A30" stop-opacity="0.6"/>
<stop offset="0.782592" stop-color="#272A30" stop-opacity="0"/>
</linearGradient>
<linearGradient id="paint2_linear_19_1508" x1="62.9878" y1="45.147" x2="62.9878" y2="57.6374" gradientUnits="userSpaceOnUse">
<stop stop-color="#0DBA69" stop-opacity="0.4"/>
<stop offset="1" stop-color="#0DBA69" stop-opacity="0"/>
</linearGradient>
<linearGradient id="paint3_linear_19_1508" x1="58" y1="16.354" x2="140" y2="78.1694" gradientUnits="userSpaceOnUse">
<stop stop-color="#FE930F"/>
<stop offset="1" stop-color="#E6490F"/>
</linearGradient>
</defs>
</svg>
