<svg width="207" height="106" viewBox="0 0 207 106" fill="none" xmlns="http://www.w3.org/2000/svg">
<path d="M205 82.5501V90H5.13748V27.4205C5.13748 27.4205 34.8639 69.6324 58.2655 69.1402C93.6842 68.3952 74.377 5.97418 100.009 8.05068C124.072 10.0001 111.313 68.248 135.428 67.6502C154.315 67.1819 152.591 29.2149 171.479 29.6555C193.358 30.1658 205 82.5501 205 82.5501Z" fill="url(#paint0_linear_19_1501)"/>
<g filter="url(#filter0_d_19_1501)">
<path d="M161.85 8.39916C161.87 8.35765 161.9 8.32218 161.938 8.29637L161.88 8.41296L161.879 8.41366L161.637 8.89507L160.78 10.5944L160.762 10.6308L160.758 10.6313L158.846 10.9034L158.292 10.9821L158.292 10.9821L161.85 8.39916ZM161.85 8.39916L160.751 10.5797L161.85 8.39916ZM166.03 11.0036C165.993 10.9653 165.943 10.9382 165.883 10.9298L163.417 10.5792L162.317 8.39916C162.297 8.35663 162.266 8.32046 162.226 8.2945L162.287 8.41363L162.287 8.41437L162.529 8.89488L163.387 10.5942L163.405 10.6308L163.409 10.6314L165.321 10.9028L165.875 10.9815L165.875 10.9816L166.03 11.0036ZM163.108 11.0404L163.218 11.056L163.211 11.1082C163.169 11.1018 163.128 11.0853 163.094 11.06C163.06 11.0347 163.032 11.0015 163.013 10.9631L162.363 9.67526L162.382 9.63792L162.97 10.8043L163.043 10.948L163.043 10.9484L163.088 11.0374L163.108 11.0404ZM163.346 11.0742L164.669 11.2622L163.219 11.056L163.346 11.0742ZM162.113 9.10493L162.134 9.14564L162.083 9.12012L162.034 9.14461L162.054 9.10557L162.084 9.0468L162.113 9.10493ZM161.785 9.63938L161.803 9.67539L160.956 11.1082L160.949 11.0565L161.059 11.0409L161.08 11.0379L161.125 10.9487L161.125 10.9484L161.197 10.8048L161.785 9.63938Z" fill="black" stroke="#959595"/>
</g>
<g filter="url(#filter1_d_19_1501)">
<path d="M63.4832 22.1638C63.455 22.1595 63.4283 22.1485 63.4054 22.1316C63.3824 22.1148 63.3638 22.0926 63.3513 22.067L63.303 21.9712L63.0115 21.3935L63.1779 21.0634L62.861 20.9037L62.9494 20.7284L63.0119 20.6044L63.049 20.6781L63.5524 21.6762L63.5266 21.8585L63.5082 21.9879L63.5078 21.9903L63.5076 21.9923L63.4832 22.1638ZM63.4832 22.1638L63.5686 22.1759L64.2127 22.2673L64.4981 21.9951L64.7474 22.2564L64.8748 22.1349L65.0076 22.0083L64.895 21.9923L63.7947 21.8359L63.7977 21.8418L63.8003 21.847L63.8003 21.847C63.7994 21.8453 63.7986 21.8435 63.7977 21.8418C63.7967 21.8398 63.7956 21.8378 63.7945 21.8358L63.6385 21.8137L63.6205 21.8111L63.5559 21.683L63.5296 21.8569L63.5099 21.987L63.5095 21.9895L63.5095 21.9896L63.4832 22.1638ZM62.5763 20.3577L62.4786 20.5516L62.4702 20.5682L62.4525 20.6031C62.4786 20.6455 62.5141 20.6816 62.5565 20.7085C62.6089 20.7416 62.6698 20.7593 62.7319 20.7593C62.794 20.7593 62.8548 20.7416 62.9072 20.7085C62.9496 20.6816 62.9851 20.6455 63.0112 20.6031L62.9936 20.5682L62.9852 20.5516L62.8874 20.3577C62.8735 20.3283 62.8514 20.3034 62.8239 20.286C62.7964 20.2685 62.7644 20.2593 62.7319 20.2593C62.6993 20.2593 62.6674 20.2685 62.6398 20.286C62.6123 20.3034 62.5903 20.3283 62.5763 20.3577ZM62.5148 20.7292L62.6026 20.9033L62.4145 20.6787L62.4519 20.6045L62.5148 20.7292Z" fill="black" stroke="#959595"/>
</g>
<g filter="url(#filter2_d_19_1501)">
<path d="M192.372 77.2477C192.344 77.2435 192.317 77.2325 192.294 77.2156C192.271 77.1988 192.253 77.1766 192.24 77.151L192.192 77.0552L191.9 76.4775L192.067 76.1474L191.75 75.9877L191.838 75.8124L191.901 75.6884L191.938 75.7621L192.441 76.7602L192.415 76.9424L192.397 77.0718L192.397 77.0743L192.396 77.0762L192.372 77.2477ZM192.372 77.2477L192.457 77.2599L193.101 77.3513L193.387 77.0791L193.636 77.3404L193.763 77.2189L193.896 77.0923L193.784 77.0763L192.683 76.9198L192.686 76.9258L192.689 76.931L192.689 76.931C192.688 76.9293 192.687 76.9275 192.686 76.9258C192.685 76.9238 192.684 76.9218 192.683 76.9198L192.527 76.8976L192.509 76.8951L192.445 76.7669L192.418 76.9409L192.399 77.071L192.398 77.0735L192.398 77.0736L192.372 77.2477ZM191.465 75.4417L191.367 75.6355L191.359 75.6522L191.341 75.6871C191.367 75.7295 191.403 75.7656 191.445 75.7924C191.498 75.8256 191.558 75.8433 191.621 75.8433C191.683 75.8433 191.743 75.8256 191.796 75.7924C191.838 75.7656 191.874 75.7295 191.9 75.6871L191.882 75.6521L191.874 75.6356L191.776 75.4417C191.762 75.4123 191.74 75.3874 191.713 75.3699C191.685 75.3525 191.653 75.3433 191.621 75.3433C191.588 75.3433 191.556 75.3525 191.528 75.3699C191.501 75.3874 191.479 75.4123 191.465 75.4417ZM191.403 75.8132L191.491 75.9873L191.303 75.7626L191.341 75.6884L191.403 75.8132Z" fill="black" stroke="#959595"/>
</g>
<g filter="url(#filter3_d_19_1501)">
<path d="M142.696 75.904C142.668 75.8997 142.641 75.8887 142.618 75.8719C142.595 75.855 142.576 75.8328 142.564 75.8073L142.516 75.7115L142.224 75.1338L142.39 74.8037L142.074 74.6439L142.162 74.4686L142.225 74.3447L142.262 74.4183L142.765 75.4164L142.739 75.5987L142.721 75.7281L142.72 75.7306L142.72 75.7325L142.696 75.904ZM142.696 75.904L142.781 75.9161L143.425 76.0076L143.711 75.7353L143.96 75.9966L144.087 75.8752L144.22 75.7486L144.108 75.7326L143.007 75.5761L143.01 75.582L143.013 75.5873L143.013 75.5873C143.012 75.5855 143.011 75.5838 143.01 75.582C143.009 75.58 143.008 75.578 143.007 75.5761L142.851 75.5539L142.833 75.5513L142.769 75.4232L142.742 75.5972L142.723 75.7272L142.722 75.7297L142.722 75.7298L142.696 75.904ZM141.789 74.098L141.691 74.2918L141.683 74.3084L141.665 74.3434C141.691 74.3858 141.727 74.4219 141.769 74.4487C141.822 74.4819 141.882 74.4995 141.945 74.4995C142.007 74.4995 142.067 74.4819 142.12 74.4487C142.162 74.4219 142.198 74.3858 142.224 74.3433L142.206 74.3084L142.198 74.2918L142.1 74.098C142.086 74.0685 142.064 74.0436 142.037 74.0262C142.009 74.0088 141.977 73.9995 141.945 73.9995C141.912 73.9995 141.88 74.0088 141.852 74.0262C141.825 74.0436 141.803 74.0685 141.789 74.098ZM141.727 74.4695L141.815 74.6436L141.627 74.4189L141.665 74.3447L141.727 74.4695Z" fill="black" stroke="#959595"/>
</g>
<g filter="url(#filter4_d_19_1501)">
<path d="M198.016 26.4841L198.016 26.4841L198.016 26.4841ZM198.016 26.4841L198.016 26.484M198.016 26.4841L198.016 26.484M198.016 26.484L198.016 26.4839L198.016 26.484ZM194.494 34.0179L194.604 33.6961C194.315 33.5962 194.087 33.4619 193.86 33.3231L193.68 33.6115C193.908 33.75 194.165 33.9037 194.494 34.0179ZM194.494 34.0179C194.827 34.1321 195.216 34.2001 195.724 34.2001H198.661C199.447 34.2001 200.003 33.7996 200.284 33.3067C200.42 33.0741 200.493 32.8102 200.497 32.5408M194.494 34.0179L194.605 33.6966C194.896 33.7964 195.248 33.8612 195.724 33.8612H198.661H199.161V33.7895C199.549 33.6722 199.826 33.4227 199.987 33.1419C199.988 33.1408 199.989 33.1398 199.989 33.1387C199.99 33.1377 199.99 33.1367 199.991 33.1357C200.094 32.9593 200.15 32.76 200.157 32.556L200.157 32.5484V32.5408H200.497M200.497 32.5408L200.157 32.536M200.497 32.5408C200.497 32.4132 200.478 32.2789 200.432 32.1512L200.157 32.536M200.157 32.536C200.156 32.439 200.142 32.3487 200.113 32.2667C200.113 32.2661 200.113 32.2654 200.112 32.2648C200.098 32.2241 200.08 32.1852 200.057 32.1487C200.051 32.1386 200.041 32.1228 200.027 32.1041C200.075 32.0529 200.12 31.9998 200.162 31.9449C200.313 31.7494 200.433 31.531 200.517 31.2975L200.517 31.2975L200.157 32.536ZM199.997 32.5374C199.997 32.5385 199.997 32.5397 199.997 32.5408C199.997 32.5443 199.997 32.5477 199.996 32.5511C199.991 32.7283 199.941 32.9013 199.852 33.0545L199.852 33.0545L199.85 33.0586L199.555 32.8902L199.847 33.0632C199.712 33.2981 199.484 33.511 199.161 33.6212V33.3612V33.3604L199.997 32.5374Z" fill="black" stroke="#959595"/>
</g>
<g filter="url(#filter5_d_19_1501)">
<path d="M50.2554 82.0031L50.2554 82.0032L50.2554 82.0031ZM50.2554 82.0031L50.2554 82.003M50.2554 82.0031L50.2554 82.003M50.2554 82.003L50.2554 82.003L50.2554 82.003ZM46.7328 89.5369L46.8431 89.2152C46.5539 89.1153 46.3264 88.981 46.0992 88.8421L45.9188 89.1305C46.1471 89.2691 46.4039 89.4227 46.7328 89.5369ZM46.7328 89.5369C47.0659 89.6511 47.4553 89.7191 47.9629 89.7191H50.8998C51.6861 89.7191 52.2416 89.3186 52.5227 88.8257C52.6586 88.5931 52.732 88.3293 52.7358 88.0599M46.7328 89.5369L46.8443 89.2156C47.1354 89.3154 47.4872 89.3803 47.9629 89.3803H50.8998H51.3998V89.3085C51.7881 89.1912 52.0646 88.9417 52.2264 88.6609C52.227 88.6599 52.2276 88.6588 52.2282 88.6578C52.2288 88.6567 52.2294 88.6557 52.23 88.6547C52.3325 88.4783 52.3895 88.2791 52.3957 88.075L52.3959 88.0674V88.0599H52.7358M52.7358 88.0599L52.3959 88.055M52.7358 88.0599C52.7358 87.9323 52.7165 87.7979 52.6712 87.6703L52.3959 88.055M52.3959 88.055C52.3954 87.958 52.381 87.8677 52.352 87.7858C52.3518 87.7851 52.3516 87.7845 52.3513 87.7838C52.3368 87.7432 52.3186 87.7042 52.2965 87.6678C52.2903 87.6576 52.2804 87.6418 52.2665 87.6231C52.3137 87.572 52.3586 87.5189 52.4011 87.4639C52.5521 87.2685 52.6719 87.0501 52.7558 86.8165L52.7559 86.8165L52.3959 88.055ZM52.2358 88.0564C52.2358 88.0576 52.2358 88.0587 52.2358 88.0599C52.2357 88.0633 52.2356 88.0667 52.2355 88.0702C52.2301 88.2473 52.1804 88.4204 52.091 88.5735L52.0909 88.5735L52.0886 88.5777L51.7944 88.4092L52.0859 88.5822C51.9507 88.8171 51.7229 89.0301 51.3998 89.1402V88.8803V88.8794L52.2358 88.0564Z" fill="black" stroke="#959595"/>
</g>
<g filter="url(#filter6_d_19_1501)">
<path d="M10.3674 35.5506L10.3694 35.5486L10.3694 35.5486L10.3674 35.5506ZM10.3674 35.5506L10.3723 35.5555L10.3723 35.5555L10.3674 35.5506ZM10.8797 34.6956C10.9094 34.6651 10.937 34.6333 10.9624 34.6002C10.9703 34.6218 10.9774 34.6437 10.9836 34.6659L10.9127 34.6863L10.9126 34.6863L10.8794 34.6959C10.8795 34.6958 10.8796 34.6957 10.8797 34.6956ZM7.31429 37.133L7.31429 37.133L7.31429 37.133ZM9.49726 33.5226L9.49726 33.5226L9.49726 33.5226Z" fill="black" stroke="#959595"/>
</g>
<g filter="url(#filter7_d_19_1501)">
<path d="M66.762 61.0774L66.76 61.0755L66.76 61.0755L66.762 61.0774ZM66.762 61.0774L66.7571 61.0824L66.7571 61.0823L66.762 61.0774ZM66.2497 60.2224C66.22 60.192 66.1924 60.1601 66.167 60.127C66.1591 60.1487 66.152 60.1706 66.1458 60.1928L66.2167 60.2132L66.2168 60.2132L66.25 60.2227C66.2499 60.2226 66.2498 60.2225 66.2497 60.2224ZM69.8151 62.6598L69.8151 62.6598L69.8151 62.6598ZM67.6321 59.0495L67.6321 59.0495L67.6321 59.0495Z" fill="black" stroke="#959595"/>
</g>
<rect x="5.1377" y="8" width="199.863" height="82" fill="url(#paint1_linear_19_1501)"/>
<g filter="url(#filter8_d_19_1501)">
<path fill-rule="evenodd" clip-rule="evenodd" d="M134.111 15.8392C127.104 10.7443 118.664 8 110 8V16.2C116.931 16.2 123.684 18.3955 129.289 22.4714C134.895 26.5473 139.065 32.2941 141.202 38.8873C143.339 45.4805 143.332 52.5811 141.183 59.1703C139.034 65.7595 134.853 71.4987 129.24 75.5642C123.627 79.6298 116.87 81.8127 109.939 81.7999C103.009 81.7871 96.26 79.5792 90.6619 75.493C85.0638 71.4067 80.9039 65.6522 78.7792 59.0551C76.6546 52.4579 76.6742 45.3573 78.8354 38.7721L71.0443 36.2151C68.3428 44.4467 68.3182 53.3224 70.9741 61.5688C73.6299 69.8152 78.8297 77.0084 85.8273 82.1162C92.825 87.224 101.261 89.9839 109.924 89.9999C118.588 90.0159 127.034 87.2872 134.05 82.2053C141.067 77.1233 146.293 69.9494 148.979 61.7129C151.666 53.4764 151.674 44.6006 149.003 36.3591C146.332 28.1176 141.118 20.9341 134.111 15.8392ZM138.385 49.0001C138.385 33.3237 125.676 20.6155 110 20.6155C94.3236 20.6155 81.6154 33.3237 81.6154 49.0001C81.6154 64.6765 94.3236 77.3847 110 77.3847C125.676 77.3847 138.385 64.6765 138.385 49.0001Z" fill="white"/>
<path fill-rule="evenodd" clip-rule="evenodd" d="M134.111 15.8392C127.104 10.7443 118.664 8 110 8V16.2C116.931 16.2 123.684 18.3955 129.289 22.4714C134.895 26.5473 139.065 32.2941 141.202 38.8873C143.339 45.4805 143.332 52.5811 141.183 59.1703C139.034 65.7595 134.853 71.4987 129.24 75.5642C123.627 79.6298 116.87 81.8127 109.939 81.7999C103.009 81.7871 96.26 79.5792 90.6619 75.493C85.0638 71.4067 80.9039 65.6522 78.7792 59.0551C76.6546 52.4579 76.6742 45.3573 78.8354 38.7721L71.0443 36.2151C68.3428 44.4467 68.3182 53.3224 70.9741 61.5688C73.6299 69.8152 78.8297 77.0084 85.8273 82.1162C92.825 87.224 101.261 89.9839 109.924 89.9999C118.588 90.0159 127.034 87.2872 134.05 82.2053C141.067 77.1233 146.293 69.9494 148.979 61.7129C151.666 53.4764 151.674 44.6006 149.003 36.3591C146.332 28.1176 141.118 20.9341 134.111 15.8392ZM138.385 49.0001C138.385 33.3237 125.676 20.6155 110 20.6155C94.3236 20.6155 81.6154 33.3237 81.6154 49.0001C81.6154 64.6765 94.3236 77.3847 110 77.3847C125.676 77.3847 138.385 64.6765 138.385 49.0001Z" fill="url(#paint2_linear_19_1501)"/>
</g>
<defs>
<filter id="filter0_d_19_1501" x="153.055" y="3" width="18.0564" height="18.061" filterUnits="userSpaceOnUse" color-interpolation-filters="sRGB">
<feFlood flood-opacity="0" result="BackgroundImageFix"/>
<feColorMatrix in="SourceAlpha" type="matrix" values="0 0 0 0 0 0 0 0 0 0 0 0 0 0 0 0 0 0 127 0" result="hardAlpha"/>
<feOffset/>
<feGaussianBlur stdDeviation="2.5"/>
<feComposite in2="hardAlpha" operator="out"/>
<feColorMatrix type="matrix" values="0 0 0 0 0.583333 0 0 0 0 0.583333 0 0 0 0 0.583333 0 0 0 1 0"/>
<feBlend mode="normal" in2="BackgroundImageFix" result="effect1_dropShadow_19_1501"/>
<feBlend mode="normal" in="SourceGraphic" in2="effect1_dropShadow_19_1501" result="shape"/>
</filter>
<filter id="filter1_d_19_1501" x="55.0461" y="15.0918" width="15.3708" height="15.374" filterUnits="userSpaceOnUse" color-interpolation-filters="sRGB">
<feFlood flood-opacity="0" result="BackgroundImageFix"/>
<feColorMatrix in="SourceAlpha" type="matrix" values="0 0 0 0 0 0 0 0 0 0 0 0 0 0 0 0 0 0 127 0" result="hardAlpha"/>
<feOffset/>
<feGaussianBlur stdDeviation="2.5"/>
<feComposite in2="hardAlpha" operator="out"/>
<feColorMatrix type="matrix" values="0 0 0 0 0.583333 0 0 0 0 0.583333 0 0 0 0 0.583333 0 0 0 1 0"/>
<feBlend mode="normal" in2="BackgroundImageFix" result="effect1_dropShadow_19_1501"/>
<feBlend mode="normal" in="SourceGraphic" in2="effect1_dropShadow_19_1501" result="shape"/>
</filter>
<filter id="filter2_d_19_1501" x="183.935" y="70.1758" width="15.371" height="15.374" filterUnits="userSpaceOnUse" color-interpolation-filters="sRGB">
<feFlood flood-opacity="0" result="BackgroundImageFix"/>
<feColorMatrix in="SourceAlpha" type="matrix" values="0 0 0 0 0 0 0 0 0 0 0 0 0 0 0 0 0 0 127 0" result="hardAlpha"/>
<feOffset/>
<feGaussianBlur stdDeviation="2.5"/>
<feComposite in2="hardAlpha" operator="out"/>
<feColorMatrix type="matrix" values="0 0 0 0 0.583333 0 0 0 0 0.583333 0 0 0 0 0.583333 0 0 0 1 0"/>
<feBlend mode="normal" in2="BackgroundImageFix" result="effect1_dropShadow_19_1501"/>
<feBlend mode="normal" in="SourceGraphic" in2="effect1_dropShadow_19_1501" result="shape"/>
</filter>
<filter id="filter3_d_19_1501" x="134.259" y="68.832" width="15.3708" height="15.374" filterUnits="userSpaceOnUse" color-interpolation-filters="sRGB">
<feFlood flood-opacity="0" result="BackgroundImageFix"/>
<feColorMatrix in="SourceAlpha" type="matrix" values="0 0 0 0 0 0 0 0 0 0 0 0 0 0 0 0 0 0 127 0" result="hardAlpha"/>
<feOffset/>
<feGaussianBlur stdDeviation="2.5"/>
<feComposite in2="hardAlpha" operator="out"/>
<feColorMatrix type="matrix" values="0 0 0 0 0.583333 0 0 0 0 0.583333 0 0 0 0 0.583333 0 0 0 1 0"/>
<feBlend mode="normal" in2="BackgroundImageFix" result="effect1_dropShadow_19_1501"/>
<feBlend mode="normal" in="SourceGraphic" in2="effect1_dropShadow_19_1501" result="shape"/>
</filter>
<filter id="filter4_d_19_1501" x="184.011" y="16" width="23.4259" height="23.4351" filterUnits="userSpaceOnUse" color-interpolation-filters="sRGB">
<feFlood flood-opacity="0" result="BackgroundImageFix"/>
<feColorMatrix in="SourceAlpha" type="matrix" values="0 0 0 0 0 0 0 0 0 0 0 0 0 0 0 0 0 0 127 0" result="hardAlpha"/>
<feOffset/>
<feGaussianBlur stdDeviation="2.5"/>
<feComposite in2="hardAlpha" operator="out"/>
<feColorMatrix type="matrix" values="0 0 0 0 0.583333 0 0 0 0 0.583333 0 0 0 0 0.583333 0 0 0 1 0"/>
<feBlend mode="normal" in2="BackgroundImageFix" result="effect1_dropShadow_19_1501"/>
<feBlend mode="normal" in="SourceGraphic" in2="effect1_dropShadow_19_1501" result="shape"/>
</filter>
<filter id="filter5_d_19_1501" x="36.25" y="71.519" width="23.4258" height="23.4351" filterUnits="userSpaceOnUse" color-interpolation-filters="sRGB">
<feFlood flood-opacity="0" result="BackgroundImageFix"/>
<feColorMatrix in="SourceAlpha" type="matrix" values="0 0 0 0 0 0 0 0 0 0 0 0 0 0 0 0 0 0 127 0" result="hardAlpha"/>
<feOffset/>
<feGaussianBlur stdDeviation="2.5"/>
<feComposite in2="hardAlpha" operator="out"/>
<feColorMatrix type="matrix" values="0 0 0 0 0.583333 0 0 0 0 0.583333 0 0 0 0 0.583333 0 0 0 1 0"/>
<feBlend mode="normal" in2="BackgroundImageFix" result="effect1_dropShadow_19_1501"/>
<feBlend mode="normal" in="SourceGraphic" in2="effect1_dropShadow_19_1501" result="shape"/>
</filter>
<filter id="filter6_d_19_1501" x="0" y="25.8398" width="16.7129" height="16.7178" filterUnits="userSpaceOnUse" color-interpolation-filters="sRGB">
<feFlood flood-opacity="0" result="BackgroundImageFix"/>
<feColorMatrix in="SourceAlpha" type="matrix" values="0 0 0 0 0 0 0 0 0 0 0 0 0 0 0 0 0 0 127 0" result="hardAlpha"/>
<feOffset/>
<feGaussianBlur stdDeviation="2.5"/>
<feComposite in2="hardAlpha" operator="out"/>
<feColorMatrix type="matrix" values="0 0 0 0 0.583333 0 0 0 0 0.583333 0 0 0 0 0.583333 0 0 0 1 0"/>
<feBlend mode="normal" in2="BackgroundImageFix" result="effect1_dropShadow_19_1501"/>
<feBlend mode="normal" in="SourceGraphic" in2="effect1_dropShadow_19_1501" result="shape"/>
</filter>
<filter id="filter7_d_19_1501" x="60.4165" y="51.3667" width="16.7129" height="16.7178" filterUnits="userSpaceOnUse" color-interpolation-filters="sRGB">
<feFlood flood-opacity="0" result="BackgroundImageFix"/>
<feColorMatrix in="SourceAlpha" type="matrix" values="0 0 0 0 0 0 0 0 0 0 0 0 0 0 0 0 0 0 127 0" result="hardAlpha"/>
<feOffset/>
<feGaussianBlur stdDeviation="2.5"/>
<feComposite in2="hardAlpha" operator="out"/>
<feColorMatrix type="matrix" values="0 0 0 0 0.583333 0 0 0 0 0.583333 0 0 0 0 0.583333 0 0 0 1 0"/>
<feBlend mode="normal" in2="BackgroundImageFix" result="effect1_dropShadow_19_1501"/>
<feBlend mode="normal" in="SourceGraphic" in2="effect1_dropShadow_19_1501" result="shape"/>
</filter>
<filter id="filter8_d_19_1501" x="57" y="0" width="106" height="106" filterUnits="userSpaceOnUse" color-interpolation-filters="sRGB">
<feFlood flood-opacity="0" result="BackgroundImageFix"/>
<feColorMatrix in="SourceAlpha" type="matrix" values="0 0 0 0 0 0 0 0 0 0 0 0 0 0 0 0 0 0 127 0" result="hardAlpha"/>
<feOffset dy="4"/>
<feGaussianBlur stdDeviation="6"/>
<feComposite in2="hardAlpha" operator="out"/>
<feColorMatrix type="matrix" values="0 0 0 0 0 0 0 0 0 0 0 0 0 0 0 0 0 0 0.08 0"/>
<feBlend mode="normal" in2="BackgroundImageFix" result="effect1_dropShadow_19_1501"/>
<feBlend mode="normal" in="SourceGraphic" in2="effect1_dropShadow_19_1501" result="shape"/>
</filter>
<linearGradient id="paint0_linear_19_1501" x1="105.069" y1="8" x2="105.069" y2="90" gradientUnits="userSpaceOnUse">
<stop stop-color="#959595" stop-opacity="0.4"/>
<stop offset="1" stop-color="#959595" stop-opacity="0"/>
</linearGradient>
<linearGradient id="paint1_linear_19_1501" x1="5.1377" y1="58.4615" x2="205" y2="58.4615" gradientUnits="userSpaceOnUse">
<stop offset="0.213696" stop-color="#272A30" stop-opacity="0"/>
<stop offset="0.44823" stop-color="#272A30"/>
<stop offset="0.555274" stop-color="#272A30"/>
<stop offset="0.782592" stop-color="#272A30" stop-opacity="0"/>
</linearGradient>
<linearGradient id="paint2_linear_19_1501" x1="69" y1="8" x2="151" y2="90" gradientUnits="userSpaceOnUse">
<stop stop-color="#EA5298"/>
<stop offset="1" stop-color="#8E459E"/>
</linearGradient>
</defs>
</svg>
