<svg width="202" height="106" viewBox="0 0 202 106" fill="none" xmlns="http://www.w3.org/2000/svg">
<g filter="url(#filter0_d_19_1498)">
<mask id="path-1-inside-1_19_1498" fill="white">
<path d="M2.98682 40.2002H2.63208V69.6813H2.98682V40.2002Z"/>
</mask>
<path d="M2.98682 40.2002H2.63208V69.6813H2.98682V40.2002Z" fill="#959595"/>
<path d="M2.63208 40.2002V39.2002H1.63208V40.2002H2.63208ZM2.98682 40.2002H3.98682V39.2002H2.98682V40.2002ZM2.98682 69.6813V70.6813H3.98682V69.6813H2.98682ZM2.63208 69.6813H1.63208V70.6813H2.63208V69.6813ZM2.63208 41.2002H2.98682V39.2002H2.63208V41.2002ZM1.98682 40.2002V69.6813H3.98682V40.2002H1.98682ZM2.98682 68.6813H2.63208V70.6813H2.98682V68.6813ZM3.63208 69.6813V40.2002H1.63208V69.6813H3.63208Z" fill="#959595" mask="url(#path-1-inside-1_19_1498)"/>
</g>
<g filter="url(#filter1_d_19_1498)">
<mask id="path-3-inside-2_19_1498" fill="white">
<path d="M199.368 20.4258H199.014V53.2357H199.368V20.4258Z"/>
</mask>
<path d="M199.368 20.4258H199.014V53.2357H199.368V20.4258Z" fill="#959595"/>
<path d="M199.014 20.4258V19.4258H198.014V20.4258H199.014ZM199.368 20.4258H200.368V19.4258H199.368V20.4258ZM199.368 53.2357V54.2357H200.368V53.2357H199.368ZM199.014 53.2357H198.014V54.2357H199.014V53.2357ZM199.014 21.4258H199.368V19.4258H199.014V21.4258ZM198.368 20.4258V53.2357H200.368V20.4258H198.368ZM199.368 52.2357H199.014V54.2357H199.368V52.2357ZM200.014 53.2357V20.4258H198.014V53.2357H200.014Z" fill="#959595" mask="url(#path-3-inside-2_19_1498)"/>
</g>
<g filter="url(#filter2_d_19_1498)">
<mask id="path-5-inside-3_19_1498" fill="white">
<path d="M190.855 24.2153H190.5V51.4058H190.855V24.2153Z"/>
</mask>
<path d="M190.855 24.2153H190.5V51.4058H190.855V24.2153Z" fill="#959595"/>
<path d="M190.5 24.2153V23.2153H189.5V24.2153H190.5ZM190.855 24.2153H191.855V23.2153H190.855V24.2153ZM190.855 51.4058V52.4058H191.855V51.4058H190.855ZM190.5 51.4058H189.5V52.4058H190.5V51.4058ZM190.5 25.2153H190.855V23.2153H190.5V25.2153ZM189.855 24.2153V51.4058H191.855V24.2153H189.855ZM190.855 50.4058H190.5V52.4058H190.855V50.4058ZM191.5 51.4058V24.2153H189.5V51.4058H191.5Z" fill="#959595" mask="url(#path-5-inside-3_19_1498)"/>
</g>
<g filter="url(#filter3_d_19_1498)">
<mask id="path-7-inside-4_19_1498" fill="white">
<path d="M182.27 32.7021H181.916V47.6817H182.27V32.7021Z"/>
</mask>
<path d="M182.27 32.7021H181.916V47.6817H182.27V32.7021Z" fill="#959595"/>
<path d="M181.916 32.7021V31.7021H180.916V32.7021H181.916ZM182.27 32.7021H183.27V31.7021H182.27V32.7021ZM182.27 47.6817V48.6817H183.27V47.6817H182.27ZM181.916 47.6817H180.916V48.6817H181.916V47.6817ZM181.916 33.7021H182.27V31.7021H181.916V33.7021ZM181.27 32.7021V47.6817H183.27V32.7021H181.27ZM182.27 46.6817H181.916V48.6817H182.27V46.6817ZM182.916 47.6817V32.7021H180.916V47.6817H182.916Z" fill="#959595" mask="url(#path-7-inside-4_19_1498)"/>
</g>
<g filter="url(#filter4_d_19_1498)">
<mask id="path-9-inside-5_19_1498" fill="white">
<path d="M173.756 28.0879H173.402V50.0216H173.756V28.0879Z"/>
</mask>
<path d="M173.756 28.0879H173.402V50.0216H173.756V28.0879Z" fill="#959595"/>
<path d="M173.402 28.0879V27.0879H172.402V28.0879H173.402ZM173.756 28.0879H174.756V27.0879H173.756V28.0879ZM173.756 50.0216V51.0216H174.756V50.0216H173.756ZM173.402 50.0216H172.402V51.0216H173.402V50.0216ZM173.402 29.0879H173.756V27.0879H173.402V29.0879ZM172.756 28.0879V50.0216H174.756V28.0879H172.756ZM173.756 49.0216H173.402V51.0216H173.756V49.0216ZM174.402 50.0216V28.0879H172.402V50.0216H174.402Z" fill="#959595" mask="url(#path-9-inside-5_19_1498)"/>
</g>
<g filter="url(#filter5_d_19_1498)">
<mask id="path-11-inside-6_19_1498" fill="white">
<path d="M165.243 21.2324H164.888V59.7441H165.243V21.2324Z"/>
</mask>
<path d="M165.243 21.2324H164.888V59.7441H165.243V21.2324Z" fill="#959595"/>
<path d="M164.888 21.2324V20.2324H163.888V21.2324H164.888ZM165.243 21.2324H166.243V20.2324H165.243V21.2324ZM165.243 59.7441V60.7441H166.243V59.7441H165.243ZM164.888 59.7441H163.888V60.7441H164.888V59.7441ZM164.888 22.2324H165.243V20.2324H164.888V22.2324ZM164.243 21.2324V59.7441H166.243V21.2324H164.243ZM165.243 58.7441H164.888V60.7441H165.243V58.7441ZM165.888 59.7441V21.2324H163.888V59.7441H165.888Z" fill="#959595" mask="url(#path-11-inside-6_19_1498)"/>
</g>
<g filter="url(#filter6_d_19_1498)">
<mask id="path-13-inside-7_19_1498" fill="white">
<path d="M156.658 13.8008H156.304V72.2686H156.658V13.8008Z"/>
</mask>
<path d="M156.658 13.8008H156.304V72.2686H156.658V13.8008Z" fill="#959595"/>
<path d="M156.304 13.8008V12.8008H155.304V13.8008H156.304ZM156.658 13.8008H157.658V12.8008H156.658V13.8008ZM156.658 72.2686V73.2686H157.658V72.2686H156.658ZM156.304 72.2686H155.304V73.2686H156.304V72.2686ZM156.304 14.8008H156.658V12.8008H156.304V14.8008ZM155.658 13.8008V72.2686H157.658V13.8008H155.658ZM156.658 71.2686H156.304V73.2686H156.658V71.2686ZM157.304 72.2686V13.8008H155.304V72.2686H157.304Z" fill="#959595" mask="url(#path-13-inside-7_19_1498)"/>
</g>
<g filter="url(#filter7_d_19_1498)">
<mask id="path-15-inside-8_19_1498" fill="white">
<path d="M148.145 8H147.79V90H148.145V8Z"/>
</mask>
<path d="M148.145 8H147.79V90H148.145V8Z" fill="#959595"/>
<path d="M147.79 8V7H146.79V8H147.79ZM148.145 8H149.145V7H148.145V8ZM148.145 90V91H149.145V90H148.145ZM147.79 90H146.79V91H147.79V90ZM147.79 9H148.145V7H147.79V9ZM147.145 8V90H149.145V8H147.145ZM148.145 89H147.79V91H148.145V89ZM148.79 90V8H146.79V90H148.79Z" fill="#959595" mask="url(#path-15-inside-8_19_1498)"/>
</g>
<g filter="url(#filter8_d_19_1498)">
<mask id="path-17-inside-9_19_1498" fill="white">
<path d="M139.631 35.9819H139.276V68.7918H139.631V35.9819Z"/>
</mask>
<path d="M139.631 35.9819H139.276V68.7918H139.631V35.9819Z" fill="#959595"/>
<path d="M139.276 35.9819V34.9819H138.276V35.9819H139.276ZM139.631 35.9819H140.631V34.9819H139.631V35.9819ZM139.631 68.7918V69.7918H140.631V68.7918H139.631ZM139.276 68.7918H138.276V69.7918H139.276V68.7918ZM139.276 36.9819H139.631V34.9819H139.276V36.9819ZM138.631 35.9819V68.7918H140.631V35.9819H138.631ZM139.631 67.7918H139.276V69.7918H139.631V67.7918ZM140.276 68.7918V35.9819H138.276V68.7918H140.276Z" fill="#959595" mask="url(#path-17-inside-9_19_1498)"/>
</g>
<g filter="url(#filter9_d_19_1498)">
<mask id="path-19-inside-10_19_1498" fill="white">
<path d="M131.046 31.4165H130.692V69.9282H131.046V31.4165Z"/>
</mask>
<path d="M131.046 31.4165H130.692V69.9282H131.046V31.4165Z" fill="#959595"/>
<path d="M130.692 31.4165V30.4165H129.692V31.4165H130.692ZM131.046 31.4165H132.046V30.4165H131.046V31.4165ZM131.046 69.9282V70.9282H132.046V69.9282H131.046ZM130.692 69.9282H129.692V70.9282H130.692V69.9282ZM130.692 32.4165H131.046V30.4165H130.692V32.4165ZM130.046 31.4165V69.9282H132.046V31.4165H130.046ZM131.046 68.9282H130.692V70.9282H131.046V68.9282ZM131.692 69.9282V31.4165H129.692V69.9282H131.692Z" fill="#959595" mask="url(#path-19-inside-10_19_1498)"/>
</g>
<g filter="url(#filter10_d_19_1498)">
<mask id="path-21-inside-11_19_1498" fill="white">
<path d="M122.533 30.5601H122.178V65.8583H122.533V30.5601Z"/>
</mask>
<path d="M122.533 30.5601H122.178V65.8583H122.533V30.5601Z" fill="#959595"/>
<path d="M122.178 30.5601V29.5601H121.178V30.5601H122.178ZM122.533 30.5601H123.533V29.5601H122.533V30.5601ZM122.533 65.8583V66.8583H123.533V65.8583H122.533ZM122.178 65.8583H121.178V66.8583H122.178V65.8583ZM122.178 31.5601H122.533V29.5601H122.178V31.5601ZM121.533 30.5601V65.8583H123.533V30.5601H121.533ZM122.533 64.8583H122.178V66.8583H122.533V64.8583ZM123.178 65.8583V30.5601H121.178V65.8583H123.178Z" fill="#959595" mask="url(#path-21-inside-11_19_1498)"/>
</g>
<g filter="url(#filter11_d_19_1498)">
<mask id="path-23-inside-12_19_1498" fill="white">
<path d="M113.948 29.6533H113.593V68.165H113.948V29.6533Z"/>
</mask>
<path d="M113.948 29.6533H113.593V68.165H113.948V29.6533Z" fill="#959595"/>
<path d="M113.593 29.6533V28.6533H112.593V29.6533H113.593ZM113.948 29.6533H114.948V28.6533H113.948V29.6533ZM113.948 68.165V69.165H114.948V68.165H113.948ZM113.593 68.165H112.593V69.165H113.593V68.165ZM113.593 30.6533H113.948V28.6533H113.593V30.6533ZM112.948 29.6533V68.165H114.948V29.6533H112.948ZM113.948 67.165H113.593V69.165H113.948V67.165ZM114.593 68.165V29.6533H112.593V68.165H114.593Z" fill="#959595" mask="url(#path-23-inside-12_19_1498)"/>
</g>
<g filter="url(#filter12_d_19_1498)">
<mask id="path-25-inside-13_19_1498" fill="white">
<path d="M105.434 36.9536H105.08V53.8282H105.434V36.9536Z"/>
</mask>
<path d="M105.434 36.9536H105.08V53.8282H105.434V36.9536Z" fill="#959595"/>
<path d="M105.08 36.9536V35.9536H104.08V36.9536H105.08ZM105.434 36.9536H106.434V35.9536H105.434V36.9536ZM105.434 53.8282V54.8282H106.434V53.8282H105.434ZM105.08 53.8282H104.08V54.8282H105.08V53.8282ZM105.08 37.9536H105.434V35.9536H105.08V37.9536ZM104.434 36.9536V53.8282H106.434V36.9536H104.434ZM105.434 52.8282H105.08V54.8282H105.434V52.8282ZM106.08 53.8282V36.9536H104.08V53.8282H106.08Z" fill="#959595" mask="url(#path-25-inside-13_19_1498)"/>
</g>
<g filter="url(#filter13_d_19_1498)">
<mask id="path-27-inside-14_19_1498" fill="white">
<path d="M96.9207 28.8794H96.5659V64.8862H96.9207V28.8794Z"/>
</mask>
<path d="M96.9207 28.8794H96.5659V64.8862H96.9207V28.8794Z" fill="#959595"/>
<path d="M96.5659 28.8794V27.8794H95.5659V28.8794H96.5659ZM96.9207 28.8794H97.9207V27.8794H96.9207V28.8794ZM96.9207 64.8862V65.8862H97.9207V64.8862H96.9207ZM96.5659 64.8862H95.5659V65.8862H96.5659V64.8862ZM96.5659 29.8794H96.9207V27.8794H96.5659V29.8794ZM95.9207 28.8794V64.8862H97.9207V28.8794H95.9207ZM96.9207 63.8862H96.5659V65.8862H96.9207V63.8862ZM97.5659 64.8862V28.8794H95.5659V64.8862H97.5659Z" fill="#959595" mask="url(#path-27-inside-14_19_1498)"/>
</g>
<g filter="url(#filter14_d_19_1498)">
<mask id="path-29-inside-15_19_1498" fill="white">
<path d="M88.3362 41.3862H87.9814V57.4369H88.3362V41.3862Z"/>
</mask>
<path d="M88.3362 41.3862H87.9814V57.4369H88.3362V41.3862Z" fill="#959595"/>
<path d="M87.9814 41.3862V40.3862H86.9814V41.3862H87.9814ZM88.3362 41.3862H89.3362V40.3862H88.3362V41.3862ZM88.3362 57.4369V58.4369H89.3362V57.4369H88.3362ZM87.9814 57.4369H86.9814V58.4369H87.9814V57.4369ZM87.9814 42.3862H88.3362V40.3862H87.9814V42.3862ZM87.3362 41.3862V57.4369H89.3362V41.3862H87.3362ZM88.3362 56.4369H87.9814V58.4369H88.3362V56.4369ZM88.9814 57.4369V41.3862H86.9814V57.4369H88.9814Z" fill="#959595" mask="url(#path-29-inside-15_19_1498)"/>
</g>
<g filter="url(#filter15_d_19_1498)">
<mask id="path-31-inside-16_19_1498" fill="white">
<path d="M79.8228 35.5371H79.468V66.2047H79.8228V35.5371Z"/>
</mask>
<path d="M79.8228 35.5371H79.468V66.2047H79.8228V35.5371Z" fill="#959595"/>
<path d="M79.468 35.5371V34.5371H78.468V35.5371H79.468ZM79.8228 35.5371H80.8228V34.5371H79.8228V35.5371ZM79.8228 66.2047V67.2047H80.8228V66.2047H79.8228ZM79.468 66.2047H78.468V67.2047H79.468V66.2047ZM79.468 36.5371H79.8228V34.5371H79.468V36.5371ZM78.8228 35.5371V66.2047H80.8228V35.5371H78.8228ZM79.8228 65.2047H79.468V67.2047H79.8228V65.2047ZM80.468 66.2047V35.5371H78.468V66.2047H80.468Z" fill="#959595" mask="url(#path-31-inside-16_19_1498)"/>
</g>
<g filter="url(#filter16_d_19_1498)">
<mask id="path-33-inside-17_19_1498" fill="white">
<path d="M71.3088 29.6206H70.9541V75.2677H71.3088V29.6206Z"/>
</mask>
<path d="M71.3088 29.6206H70.9541V75.2677H71.3088V29.6206Z" fill="#959595"/>
<path d="M70.9541 29.6206V28.6206H69.9541V29.6206H70.9541ZM71.3088 29.6206H72.3088V28.6206H71.3088V29.6206ZM71.3088 75.2677V76.2677H72.3088V75.2677H71.3088ZM70.9541 75.2677H69.9541V76.2677H70.9541V75.2677ZM70.9541 30.6206H71.3088V28.6206H70.9541V30.6206ZM70.3088 29.6206V75.2677H72.3088V29.6206H70.3088ZM71.3088 74.2677H70.9541V76.2677H71.3088V74.2677ZM71.9541 75.2677V29.6206H69.9541V75.2677H71.9541Z" fill="#959595" mask="url(#path-33-inside-17_19_1498)"/>
</g>
<g filter="url(#filter17_d_19_1498)">
<mask id="path-35-inside-18_19_1498" fill="white">
<path d="M62.7246 40.2002H62.3699V69.6813H62.7246V40.2002Z"/>
</mask>
<path d="M62.7246 40.2002H62.3699V69.6813H62.7246V40.2002Z" fill="#959595"/>
<path d="M62.3699 40.2002V39.2002H61.3699V40.2002H62.3699ZM62.7246 40.2002H63.7246V39.2002H62.7246V40.2002ZM62.7246 69.6813V70.6813H63.7246V69.6813H62.7246ZM62.3699 69.6813H61.3699V70.6813H62.3699V69.6813ZM62.3699 41.2002H62.7246V39.2002H62.3699V41.2002ZM61.7246 40.2002V69.6813H63.7246V40.2002H61.7246ZM62.7246 68.6813H62.3699V70.6813H62.7246V68.6813ZM63.3699 69.6813V40.2002H61.3699V69.6813H63.3699Z" fill="#959595" mask="url(#path-35-inside-18_19_1498)"/>
</g>
<g filter="url(#filter18_d_19_1498)">
<mask id="path-37-inside-19_19_1498" fill="white">
<path d="M54.2107 50.3184H53.856V61.2605H54.2107V50.3184Z"/>
</mask>
<path d="M54.2107 50.3184H53.856V61.2605H54.2107V50.3184Z" fill="#959595"/>
<path d="M53.856 50.3184V49.3184H52.856V50.3184H53.856ZM54.2107 50.3184H55.2107V49.3184H54.2107V50.3184ZM54.2107 61.2605V62.2605H55.2107V61.2605H54.2107ZM53.856 61.2605H52.856V62.2605H53.856V61.2605ZM53.856 51.3184H54.2107V49.3184H53.856V51.3184ZM53.2107 50.3184V61.2605H55.2107V50.3184H53.2107ZM54.2107 60.2605H53.856V62.2605H54.2107V60.2605ZM54.856 61.2605V50.3184H52.856V61.2605H54.856Z" fill="#959595" mask="url(#path-37-inside-19_19_1498)"/>
</g>
<g filter="url(#filter19_d_19_1498)">
<mask id="path-39-inside-20_19_1498" fill="white">
<path d="M45.6262 22.4854H45.2715V88.0886H45.6262V22.4854Z"/>
</mask>
<path d="M45.6262 22.4854H45.2715V88.0886H45.6262V22.4854Z" fill="#959595"/>
<path d="M45.2715 22.4854V21.4854H44.2715V22.4854H45.2715ZM45.6262 22.4854H46.6262V21.4854H45.6262V22.4854ZM45.6262 88.0886V89.0886H46.6262V88.0886H45.6262ZM45.2715 88.0886H44.2715V89.0886H45.2715V88.0886ZM45.2715 23.4854H45.6262V21.4854H45.2715V23.4854ZM44.6262 22.4854V88.0886H46.6262V22.4854H44.6262ZM45.6262 87.0886H45.2715V89.0886H45.6262V87.0886ZM46.2715 88.0886V22.4854H44.2715V88.0886H46.2715Z" fill="#959595" mask="url(#path-39-inside-20_19_1498)"/>
</g>
<g filter="url(#filter20_d_19_1498)">
<mask id="path-41-inside-21_19_1498" fill="white">
<path d="M37.1123 42.7378H36.7576V65.0835H37.1123V42.7378Z"/>
</mask>
<path d="M37.1123 42.7378H36.7576V65.0835H37.1123V42.7378Z" fill="#959595"/>
<path d="M36.7576 42.7378V41.7378H35.7576V42.7378H36.7576ZM37.1123 42.7378H38.1123V41.7378H37.1123V42.7378ZM37.1123 65.0835V66.0835H38.1123V65.0835H37.1123ZM36.7576 65.0835H35.7576V66.0835H36.7576V65.0835ZM36.7576 43.7378H37.1123V41.7378H36.7576V43.7378ZM36.1123 42.7378V65.0835H38.1123V42.7378H36.1123ZM37.1123 64.0835H36.7576V66.0835H37.1123V64.0835ZM37.7576 65.0835V42.7378H35.7576V65.0835H37.7576Z" fill="#959595" mask="url(#path-41-inside-21_19_1498)"/>
</g>
<g filter="url(#filter21_d_19_1498)">
<mask id="path-43-inside-22_19_1498" fill="white">
<path d="M28.5989 33.2954H28.2441V77.9867H28.5989V33.2954Z"/>
</mask>
<path d="M28.5989 33.2954H28.2441V77.9867H28.5989V33.2954Z" fill="#959595"/>
<path d="M28.2441 33.2954V32.2954H27.2441V33.2954H28.2441ZM28.5989 33.2954H29.5989V32.2954H28.5989V33.2954ZM28.5989 77.9867V78.9867H29.5989V77.9867H28.5989ZM28.2441 77.9867H27.2441V78.9867H28.2441V77.9867ZM28.2441 34.2954H28.5989V32.2954H28.2441V34.2954ZM27.5989 33.2954V77.9867H29.5989V33.2954H27.5989ZM28.5989 76.9867H28.2441V78.9867H28.5989V76.9867ZM29.2441 77.9867V33.2954H27.2441V77.9867H29.2441Z" fill="#959595" mask="url(#path-43-inside-22_19_1498)"/>
</g>
<g filter="url(#filter22_d_19_1498)">
<mask id="path-45-inside-23_19_1498" fill="white">
<path d="M20.0139 34.4326H19.6592V79.6018H20.0139V34.4326Z"/>
</mask>
<path d="M20.0139 34.4326H19.6592V79.6018H20.0139V34.4326Z" fill="#959595"/>
<path d="M19.6592 34.4326V33.4326H18.6592V34.4326H19.6592ZM20.0139 34.4326H21.0139V33.4326H20.0139V34.4326ZM20.0139 79.6018V80.6018H21.0139V79.6018H20.0139ZM19.6592 79.6018H18.6592V80.6018H19.6592V79.6018ZM19.6592 35.4326H20.0139V33.4326H19.6592V35.4326ZM19.0139 34.4326V79.6018H21.0139V34.4326H19.0139ZM20.0139 78.6018H19.6592V80.6018H20.0139V78.6018ZM20.6592 79.6018V34.4326H18.6592V79.6018H20.6592Z" fill="#959595" mask="url(#path-45-inside-23_19_1498)"/>
</g>
<g filter="url(#filter23_d_19_1498)">
<mask id="path-47-inside-24_19_1498" fill="white">
<path d="M11.5005 39.5078H11.1458V68.9889H11.5005V39.5078Z"/>
</mask>
<path d="M11.5005 39.5078H11.1458V68.9889H11.5005V39.5078Z" fill="#959595"/>
<path d="M11.1458 39.5078V38.5078H10.1458V39.5078H11.1458ZM11.5005 39.5078H12.5005V38.5078H11.5005V39.5078ZM11.5005 68.9889V69.9889H12.5005V68.9889H11.5005ZM11.1458 68.9889H10.1458V69.9889H11.1458V68.9889ZM11.1458 40.5078H11.5005V38.5078H11.1458V40.5078ZM10.5005 39.5078V68.9889H12.5005V39.5078H10.5005ZM11.5005 67.9889H11.1458V69.9889H11.5005V67.9889ZM12.1458 68.9889V39.5078H10.1458V68.9889H12.1458Z" fill="#959595" mask="url(#path-47-inside-24_19_1498)"/>
</g>
<path d="M4.54736 50.4834H1V59.4151H4.54736V50.4834Z" fill="url(#paint0_linear_19_1498)"/>
<path d="M201 31.8613H197.453V41.7982H201V31.8613Z" fill="url(#paint1_linear_19_1498)"/>
<path d="M192.416 33.6909H188.868V41.9305H192.416V33.6909Z" fill="url(#paint2_linear_19_1498)"/>
<path d="M183.902 37.9258H180.354V42.4575H183.902V37.9258Z" fill="url(#paint3_linear_19_1498)"/>
<path d="M175.388 35.7344H171.841V42.3755H175.388V35.7344Z" fill="url(#paint4_linear_19_1498)"/>
<path d="M166.803 34.6631H163.256V46.3303H166.803V34.6631Z" fill="url(#paint5_linear_19_1498)"/>
<path d="M158.29 34.1851H154.742V51.9001H158.29V34.1851Z" fill="url(#paint6_linear_19_1498)"/>
<path d="M149.705 36.5752H146.158V61.4257H149.705V36.5752Z" fill="url(#paint7_linear_19_1498)"/>
<path d="M141.191 47.4014H137.644V57.3383H141.191V47.4014Z" fill="url(#paint8_linear_19_1498)"/>
<path d="M132.678 44.8472H129.13V56.5144H132.678V44.8472Z" fill="url(#paint9_linear_19_1498)"/>
<path d="M124.093 42.853H120.546V53.548H124.093V42.853Z" fill="url(#paint10_linear_19_1498)"/>
<path d="M115.58 43.0674H112.032V54.7346H115.58V43.0674Z" fill="url(#paint11_linear_19_1498)"/>
<path d="M107.066 42.8364H103.519V47.9449H107.066V42.8364Z" fill="url(#paint12_linear_19_1498)"/>
<path d="M98.4814 41.4365H94.9341V52.3457H98.4814V41.4365Z" fill="url(#paint13_linear_19_1498)"/>
<path d="M89.9675 46.9893H86.4202V51.8506H89.9675V46.9893Z" fill="url(#paint14_linear_19_1498)"/>
<path d="M81.383 46.231H77.8357V55.5252H81.383V46.231Z" fill="url(#paint15_linear_19_1498)"/>
<path d="M72.8696 45.5229H69.3223V59.3489H72.8696V45.5229Z" fill="url(#paint16_linear_19_1498)"/>
<path d="M64.3557 50.4834H60.8083V59.4151H64.3557V50.4834Z" fill="url(#paint17_linear_19_1498)"/>
<path d="M55.7712 54.1416H52.2239V57.4539H55.7712V54.1416Z" fill="url(#paint18_linear_19_1498)"/>
<path d="M47.2573 45.3584H43.71V65.2322H47.2573V45.3584Z" fill="url(#paint19_linear_19_1498)"/>
<path d="M38.7439 50.5327H35.1965V57.3056H38.7439V50.5327Z" fill="url(#paint20_linear_19_1498)"/>
<path d="M30.1592 48.8682H26.6118V62.414H30.1592V48.8682Z" fill="url(#paint21_linear_19_1498)"/>
<path d="M21.6457 50.1699H18.0984V63.8641H21.6457V50.1699Z" fill="url(#paint22_linear_19_1498)"/>
<path d="M13.0613 49.7744H9.51392V58.7061H13.0613V49.7744Z" fill="url(#paint23_linear_19_1498)"/>
<g filter="url(#filter24_d_19_1498)">
<path fill-rule="evenodd" clip-rule="evenodd" d="M81.4475 90H113.968C117.165 90 119.785 87.4157 119.785 84.2613V13.7387C119.785 10.5843 117.165 8 113.968 8H107.169L106.328 10.5231H89.0873L88.2462 8H81.4475C78.2502 8 75.6309 10.5843 75.6309 13.7387V84.2613C75.6309 87.4157 78.2502 90 81.4475 90Z" fill="white"/>
<path fill-rule="evenodd" clip-rule="evenodd" d="M81.4475 90H113.968C117.165 90 119.785 87.4157 119.785 84.2613V13.7387C119.785 10.5843 117.165 8 113.968 8H107.169L106.328 10.5231H89.0873L88.2462 8H81.4475C78.2502 8 75.6309 10.5843 75.6309 13.7387V84.2613C75.6309 87.4157 78.2502 90 81.4475 90Z" fill="url(#paint24_linear_19_1498)"/>
<path fill-rule="evenodd" clip-rule="evenodd" d="M81.4475 90H113.968C117.165 90 119.785 87.4157 119.785 84.2613V13.7387C119.785 10.5843 117.165 8 113.968 8H107.169L106.328 10.5231H89.0873L88.2462 8H81.4475C78.2502 8 75.6309 10.5843 75.6309 13.7387V84.2613C75.6309 87.4157 78.2502 90 81.4475 90Z" fill="url(#paint25_linear_19_1498)"/>
</g>
<defs>
<filter id="filter0_d_19_1498" x="0.63208" y="39.2002" width="4.35474" height="33.481" filterUnits="userSpaceOnUse" color-interpolation-filters="sRGB">
<feFlood flood-opacity="0" result="BackgroundImageFix"/>
<feColorMatrix in="SourceAlpha" type="matrix" values="0 0 0 0 0 0 0 0 0 0 0 0 0 0 0 0 0 0 127 0" result="hardAlpha"/>
<feOffset dy="1"/>
<feGaussianBlur stdDeviation="1"/>
<feComposite in2="hardAlpha" operator="out"/>
<feColorMatrix type="matrix" values="0 0 0 0 0.584314 0 0 0 0 0.584314 0 0 0 0 0.584314 0 0 0 1 0"/>
<feBlend mode="normal" in2="BackgroundImageFix" result="effect1_dropShadow_19_1498"/>
<feBlend mode="normal" in="SourceGraphic" in2="effect1_dropShadow_19_1498" result="shape"/>
</filter>
<filter id="filter1_d_19_1498" x="197.014" y="19.4258" width="4.35474" height="36.8101" filterUnits="userSpaceOnUse" color-interpolation-filters="sRGB">
<feFlood flood-opacity="0" result="BackgroundImageFix"/>
<feColorMatrix in="SourceAlpha" type="matrix" values="0 0 0 0 0 0 0 0 0 0 0 0 0 0 0 0 0 0 127 0" result="hardAlpha"/>
<feOffset dy="1"/>
<feGaussianBlur stdDeviation="1"/>
<feComposite in2="hardAlpha" operator="out"/>
<feColorMatrix type="matrix" values="0 0 0 0 0.584314 0 0 0 0 0.584314 0 0 0 0 0.584314 0 0 0 1 0"/>
<feBlend mode="normal" in2="BackgroundImageFix" result="effect1_dropShadow_19_1498"/>
<feBlend mode="normal" in="SourceGraphic" in2="effect1_dropShadow_19_1498" result="shape"/>
</filter>
<filter id="filter2_d_19_1498" x="188.5" y="23.2153" width="4.35474" height="31.1904" filterUnits="userSpaceOnUse" color-interpolation-filters="sRGB">
<feFlood flood-opacity="0" result="BackgroundImageFix"/>
<feColorMatrix in="SourceAlpha" type="matrix" values="0 0 0 0 0 0 0 0 0 0 0 0 0 0 0 0 0 0 127 0" result="hardAlpha"/>
<feOffset dy="1"/>
<feGaussianBlur stdDeviation="1"/>
<feComposite in2="hardAlpha" operator="out"/>
<feColorMatrix type="matrix" values="0 0 0 0 0.584314 0 0 0 0 0.584314 0 0 0 0 0.584314 0 0 0 1 0"/>
<feBlend mode="normal" in2="BackgroundImageFix" result="effect1_dropShadow_19_1498"/>
<feBlend mode="normal" in="SourceGraphic" in2="effect1_dropShadow_19_1498" result="shape"/>
</filter>
<filter id="filter3_d_19_1498" x="179.916" y="31.7021" width="4.35474" height="18.9795" filterUnits="userSpaceOnUse" color-interpolation-filters="sRGB">
<feFlood flood-opacity="0" result="BackgroundImageFix"/>
<feColorMatrix in="SourceAlpha" type="matrix" values="0 0 0 0 0 0 0 0 0 0 0 0 0 0 0 0 0 0 127 0" result="hardAlpha"/>
<feOffset dy="1"/>
<feGaussianBlur stdDeviation="1"/>
<feComposite in2="hardAlpha" operator="out"/>
<feColorMatrix type="matrix" values="0 0 0 0 0.584314 0 0 0 0 0.584314 0 0 0 0 0.584314 0 0 0 1 0"/>
<feBlend mode="normal" in2="BackgroundImageFix" result="effect1_dropShadow_19_1498"/>
<feBlend mode="normal" in="SourceGraphic" in2="effect1_dropShadow_19_1498" result="shape"/>
</filter>
<filter id="filter4_d_19_1498" x="171.402" y="27.0879" width="4.35474" height="25.9336" filterUnits="userSpaceOnUse" color-interpolation-filters="sRGB">
<feFlood flood-opacity="0" result="BackgroundImageFix"/>
<feColorMatrix in="SourceAlpha" type="matrix" values="0 0 0 0 0 0 0 0 0 0 0 0 0 0 0 0 0 0 127 0" result="hardAlpha"/>
<feOffset dy="1"/>
<feGaussianBlur stdDeviation="1"/>
<feComposite in2="hardAlpha" operator="out"/>
<feColorMatrix type="matrix" values="0 0 0 0 0.584314 0 0 0 0 0.584314 0 0 0 0 0.584314 0 0 0 1 0"/>
<feBlend mode="normal" in2="BackgroundImageFix" result="effect1_dropShadow_19_1498"/>
<feBlend mode="normal" in="SourceGraphic" in2="effect1_dropShadow_19_1498" result="shape"/>
</filter>
<filter id="filter5_d_19_1498" x="162.888" y="20.2324" width="4.35474" height="42.5117" filterUnits="userSpaceOnUse" color-interpolation-filters="sRGB">
<feFlood flood-opacity="0" result="BackgroundImageFix"/>
<feColorMatrix in="SourceAlpha" type="matrix" values="0 0 0 0 0 0 0 0 0 0 0 0 0 0 0 0 0 0 127 0" result="hardAlpha"/>
<feOffset dy="1"/>
<feGaussianBlur stdDeviation="1"/>
<feComposite in2="hardAlpha" operator="out"/>
<feColorMatrix type="matrix" values="0 0 0 0 0.584314 0 0 0 0 0.584314 0 0 0 0 0.584314 0 0 0 1 0"/>
<feBlend mode="normal" in2="BackgroundImageFix" result="effect1_dropShadow_19_1498"/>
<feBlend mode="normal" in="SourceGraphic" in2="effect1_dropShadow_19_1498" result="shape"/>
</filter>
<filter id="filter6_d_19_1498" x="154.304" y="12.8008" width="4.35474" height="62.4678" filterUnits="userSpaceOnUse" color-interpolation-filters="sRGB">
<feFlood flood-opacity="0" result="BackgroundImageFix"/>
<feColorMatrix in="SourceAlpha" type="matrix" values="0 0 0 0 0 0 0 0 0 0 0 0 0 0 0 0 0 0 127 0" result="hardAlpha"/>
<feOffset dy="1"/>
<feGaussianBlur stdDeviation="1"/>
<feComposite in2="hardAlpha" operator="out"/>
<feColorMatrix type="matrix" values="0 0 0 0 0.584314 0 0 0 0 0.584314 0 0 0 0 0.584314 0 0 0 1 0"/>
<feBlend mode="normal" in2="BackgroundImageFix" result="effect1_dropShadow_19_1498"/>
<feBlend mode="normal" in="SourceGraphic" in2="effect1_dropShadow_19_1498" result="shape"/>
</filter>
<filter id="filter7_d_19_1498" x="145.79" y="7" width="4.35474" height="86" filterUnits="userSpaceOnUse" color-interpolation-filters="sRGB">
<feFlood flood-opacity="0" result="BackgroundImageFix"/>
<feColorMatrix in="SourceAlpha" type="matrix" values="0 0 0 0 0 0 0 0 0 0 0 0 0 0 0 0 0 0 127 0" result="hardAlpha"/>
<feOffset dy="1"/>
<feGaussianBlur stdDeviation="1"/>
<feComposite in2="hardAlpha" operator="out"/>
<feColorMatrix type="matrix" values="0 0 0 0 0.584314 0 0 0 0 0.584314 0 0 0 0 0.584314 0 0 0 1 0"/>
<feBlend mode="normal" in2="BackgroundImageFix" result="effect1_dropShadow_19_1498"/>
<feBlend mode="normal" in="SourceGraphic" in2="effect1_dropShadow_19_1498" result="shape"/>
</filter>
<filter id="filter8_d_19_1498" x="137.276" y="34.9819" width="4.35474" height="36.8101" filterUnits="userSpaceOnUse" color-interpolation-filters="sRGB">
<feFlood flood-opacity="0" result="BackgroundImageFix"/>
<feColorMatrix in="SourceAlpha" type="matrix" values="0 0 0 0 0 0 0 0 0 0 0 0 0 0 0 0 0 0 127 0" result="hardAlpha"/>
<feOffset dy="1"/>
<feGaussianBlur stdDeviation="1"/>
<feComposite in2="hardAlpha" operator="out"/>
<feColorMatrix type="matrix" values="0 0 0 0 0.584314 0 0 0 0 0.584314 0 0 0 0 0.584314 0 0 0 1 0"/>
<feBlend mode="normal" in2="BackgroundImageFix" result="effect1_dropShadow_19_1498"/>
<feBlend mode="normal" in="SourceGraphic" in2="effect1_dropShadow_19_1498" result="shape"/>
</filter>
<filter id="filter9_d_19_1498" x="128.692" y="30.4165" width="4.35474" height="42.5117" filterUnits="userSpaceOnUse" color-interpolation-filters="sRGB">
<feFlood flood-opacity="0" result="BackgroundImageFix"/>
<feColorMatrix in="SourceAlpha" type="matrix" values="0 0 0 0 0 0 0 0 0 0 0 0 0 0 0 0 0 0 127 0" result="hardAlpha"/>
<feOffset dy="1"/>
<feGaussianBlur stdDeviation="1"/>
<feComposite in2="hardAlpha" operator="out"/>
<feColorMatrix type="matrix" values="0 0 0 0 0.584314 0 0 0 0 0.584314 0 0 0 0 0.584314 0 0 0 1 0"/>
<feBlend mode="normal" in2="BackgroundImageFix" result="effect1_dropShadow_19_1498"/>
<feBlend mode="normal" in="SourceGraphic" in2="effect1_dropShadow_19_1498" result="shape"/>
</filter>
<filter id="filter10_d_19_1498" x="120.178" y="29.5601" width="4.35474" height="39.2983" filterUnits="userSpaceOnUse" color-interpolation-filters="sRGB">
<feFlood flood-opacity="0" result="BackgroundImageFix"/>
<feColorMatrix in="SourceAlpha" type="matrix" values="0 0 0 0 0 0 0 0 0 0 0 0 0 0 0 0 0 0 127 0" result="hardAlpha"/>
<feOffset dy="1"/>
<feGaussianBlur stdDeviation="1"/>
<feComposite in2="hardAlpha" operator="out"/>
<feColorMatrix type="matrix" values="0 0 0 0 0.584314 0 0 0 0 0.584314 0 0 0 0 0.584314 0 0 0 1 0"/>
<feBlend mode="normal" in2="BackgroundImageFix" result="effect1_dropShadow_19_1498"/>
<feBlend mode="normal" in="SourceGraphic" in2="effect1_dropShadow_19_1498" result="shape"/>
</filter>
<filter id="filter11_d_19_1498" x="111.593" y="28.6533" width="4.35474" height="42.5117" filterUnits="userSpaceOnUse" color-interpolation-filters="sRGB">
<feFlood flood-opacity="0" result="BackgroundImageFix"/>
<feColorMatrix in="SourceAlpha" type="matrix" values="0 0 0 0 0 0 0 0 0 0 0 0 0 0 0 0 0 0 127 0" result="hardAlpha"/>
<feOffset dy="1"/>
<feGaussianBlur stdDeviation="1"/>
<feComposite in2="hardAlpha" operator="out"/>
<feColorMatrix type="matrix" values="0 0 0 0 0.584314 0 0 0 0 0.584314 0 0 0 0 0.584314 0 0 0 1 0"/>
<feBlend mode="normal" in2="BackgroundImageFix" result="effect1_dropShadow_19_1498"/>
<feBlend mode="normal" in="SourceGraphic" in2="effect1_dropShadow_19_1498" result="shape"/>
</filter>
<filter id="filter12_d_19_1498" x="103.08" y="35.9536" width="4.35474" height="20.8745" filterUnits="userSpaceOnUse" color-interpolation-filters="sRGB">
<feFlood flood-opacity="0" result="BackgroundImageFix"/>
<feColorMatrix in="SourceAlpha" type="matrix" values="0 0 0 0 0 0 0 0 0 0 0 0 0 0 0 0 0 0 127 0" result="hardAlpha"/>
<feOffset dy="1"/>
<feGaussianBlur stdDeviation="1"/>
<feComposite in2="hardAlpha" operator="out"/>
<feColorMatrix type="matrix" values="0 0 0 0 0.584314 0 0 0 0 0.584314 0 0 0 0 0.584314 0 0 0 1 0"/>
<feBlend mode="normal" in2="BackgroundImageFix" result="effect1_dropShadow_19_1498"/>
<feBlend mode="normal" in="SourceGraphic" in2="effect1_dropShadow_19_1498" result="shape"/>
</filter>
<filter id="filter13_d_19_1498" x="94.5659" y="27.8794" width="4.35474" height="40.0068" filterUnits="userSpaceOnUse" color-interpolation-filters="sRGB">
<feFlood flood-opacity="0" result="BackgroundImageFix"/>
<feColorMatrix in="SourceAlpha" type="matrix" values="0 0 0 0 0 0 0 0 0 0 0 0 0 0 0 0 0 0 127 0" result="hardAlpha"/>
<feOffset dy="1"/>
<feGaussianBlur stdDeviation="1"/>
<feComposite in2="hardAlpha" operator="out"/>
<feColorMatrix type="matrix" values="0 0 0 0 0.584314 0 0 0 0 0.584314 0 0 0 0 0.584314 0 0 0 1 0"/>
<feBlend mode="normal" in2="BackgroundImageFix" result="effect1_dropShadow_19_1498"/>
<feBlend mode="normal" in="SourceGraphic" in2="effect1_dropShadow_19_1498" result="shape"/>
</filter>
<filter id="filter14_d_19_1498" x="85.9814" y="40.3862" width="4.35474" height="20.0508" filterUnits="userSpaceOnUse" color-interpolation-filters="sRGB">
<feFlood flood-opacity="0" result="BackgroundImageFix"/>
<feColorMatrix in="SourceAlpha" type="matrix" values="0 0 0 0 0 0 0 0 0 0 0 0 0 0 0 0 0 0 127 0" result="hardAlpha"/>
<feOffset dy="1"/>
<feGaussianBlur stdDeviation="1"/>
<feComposite in2="hardAlpha" operator="out"/>
<feColorMatrix type="matrix" values="0 0 0 0 0.584314 0 0 0 0 0.584314 0 0 0 0 0.584314 0 0 0 1 0"/>
<feBlend mode="normal" in2="BackgroundImageFix" result="effect1_dropShadow_19_1498"/>
<feBlend mode="normal" in="SourceGraphic" in2="effect1_dropShadow_19_1498" result="shape"/>
</filter>
<filter id="filter15_d_19_1498" x="77.468" y="34.5371" width="4.35474" height="34.6675" filterUnits="userSpaceOnUse" color-interpolation-filters="sRGB">
<feFlood flood-opacity="0" result="BackgroundImageFix"/>
<feColorMatrix in="SourceAlpha" type="matrix" values="0 0 0 0 0 0 0 0 0 0 0 0 0 0 0 0 0 0 127 0" result="hardAlpha"/>
<feOffset dy="1"/>
<feGaussianBlur stdDeviation="1"/>
<feComposite in2="hardAlpha" operator="out"/>
<feColorMatrix type="matrix" values="0 0 0 0 0.584314 0 0 0 0 0.584314 0 0 0 0 0.584314 0 0 0 1 0"/>
<feBlend mode="normal" in2="BackgroundImageFix" result="effect1_dropShadow_19_1498"/>
<feBlend mode="normal" in="SourceGraphic" in2="effect1_dropShadow_19_1498" result="shape"/>
</filter>
<filter id="filter16_d_19_1498" x="68.9541" y="28.6206" width="4.35474" height="49.647" filterUnits="userSpaceOnUse" color-interpolation-filters="sRGB">
<feFlood flood-opacity="0" result="BackgroundImageFix"/>
<feColorMatrix in="SourceAlpha" type="matrix" values="0 0 0 0 0 0 0 0 0 0 0 0 0 0 0 0 0 0 127 0" result="hardAlpha"/>
<feOffset dy="1"/>
<feGaussianBlur stdDeviation="1"/>
<feComposite in2="hardAlpha" operator="out"/>
<feColorMatrix type="matrix" values="0 0 0 0 0.584314 0 0 0 0 0.584314 0 0 0 0 0.584314 0 0 0 1 0"/>
<feBlend mode="normal" in2="BackgroundImageFix" result="effect1_dropShadow_19_1498"/>
<feBlend mode="normal" in="SourceGraphic" in2="effect1_dropShadow_19_1498" result="shape"/>
</filter>
<filter id="filter17_d_19_1498" x="60.3699" y="39.2002" width="4.35474" height="33.481" filterUnits="userSpaceOnUse" color-interpolation-filters="sRGB">
<feFlood flood-opacity="0" result="BackgroundImageFix"/>
<feColorMatrix in="SourceAlpha" type="matrix" values="0 0 0 0 0 0 0 0 0 0 0 0 0 0 0 0 0 0 127 0" result="hardAlpha"/>
<feOffset dy="1"/>
<feGaussianBlur stdDeviation="1"/>
<feComposite in2="hardAlpha" operator="out"/>
<feColorMatrix type="matrix" values="0 0 0 0 0.584314 0 0 0 0 0.584314 0 0 0 0 0.584314 0 0 0 1 0"/>
<feBlend mode="normal" in2="BackgroundImageFix" result="effect1_dropShadow_19_1498"/>
<feBlend mode="normal" in="SourceGraphic" in2="effect1_dropShadow_19_1498" result="shape"/>
</filter>
<filter id="filter18_d_19_1498" x="51.856" y="49.3184" width="4.35474" height="14.9419" filterUnits="userSpaceOnUse" color-interpolation-filters="sRGB">
<feFlood flood-opacity="0" result="BackgroundImageFix"/>
<feColorMatrix in="SourceAlpha" type="matrix" values="0 0 0 0 0 0 0 0 0 0 0 0 0 0 0 0 0 0 127 0" result="hardAlpha"/>
<feOffset dy="1"/>
<feGaussianBlur stdDeviation="1"/>
<feComposite in2="hardAlpha" operator="out"/>
<feColorMatrix type="matrix" values="0 0 0 0 0.584314 0 0 0 0 0.584314 0 0 0 0 0.584314 0 0 0 1 0"/>
<feBlend mode="normal" in2="BackgroundImageFix" result="effect1_dropShadow_19_1498"/>
<feBlend mode="normal" in="SourceGraphic" in2="effect1_dropShadow_19_1498" result="shape"/>
</filter>
<filter id="filter19_d_19_1498" x="43.2715" y="21.4854" width="4.35474" height="69.6035" filterUnits="userSpaceOnUse" color-interpolation-filters="sRGB">
<feFlood flood-opacity="0" result="BackgroundImageFix"/>
<feColorMatrix in="SourceAlpha" type="matrix" values="0 0 0 0 0 0 0 0 0 0 0 0 0 0 0 0 0 0 127 0" result="hardAlpha"/>
<feOffset dy="1"/>
<feGaussianBlur stdDeviation="1"/>
<feComposite in2="hardAlpha" operator="out"/>
<feColorMatrix type="matrix" values="0 0 0 0 0.584314 0 0 0 0 0.584314 0 0 0 0 0.584314 0 0 0 1 0"/>
<feBlend mode="normal" in2="BackgroundImageFix" result="effect1_dropShadow_19_1498"/>
<feBlend mode="normal" in="SourceGraphic" in2="effect1_dropShadow_19_1498" result="shape"/>
</filter>
<filter id="filter20_d_19_1498" x="34.7576" y="41.7378" width="4.35474" height="26.3457" filterUnits="userSpaceOnUse" color-interpolation-filters="sRGB">
<feFlood flood-opacity="0" result="BackgroundImageFix"/>
<feColorMatrix in="SourceAlpha" type="matrix" values="0 0 0 0 0 0 0 0 0 0 0 0 0 0 0 0 0 0 127 0" result="hardAlpha"/>
<feOffset dy="1"/>
<feGaussianBlur stdDeviation="1"/>
<feComposite in2="hardAlpha" operator="out"/>
<feColorMatrix type="matrix" values="0 0 0 0 0.584314 0 0 0 0 0.584314 0 0 0 0 0.584314 0 0 0 1 0"/>
<feBlend mode="normal" in2="BackgroundImageFix" result="effect1_dropShadow_19_1498"/>
<feBlend mode="normal" in="SourceGraphic" in2="effect1_dropShadow_19_1498" result="shape"/>
</filter>
<filter id="filter21_d_19_1498" x="26.2441" y="32.2954" width="4.35474" height="48.6914" filterUnits="userSpaceOnUse" color-interpolation-filters="sRGB">
<feFlood flood-opacity="0" result="BackgroundImageFix"/>
<feColorMatrix in="SourceAlpha" type="matrix" values="0 0 0 0 0 0 0 0 0 0 0 0 0 0 0 0 0 0 127 0" result="hardAlpha"/>
<feOffset dy="1"/>
<feGaussianBlur stdDeviation="1"/>
<feComposite in2="hardAlpha" operator="out"/>
<feColorMatrix type="matrix" values="0 0 0 0 0.584314 0 0 0 0 0.584314 0 0 0 0 0.584314 0 0 0 1 0"/>
<feBlend mode="normal" in2="BackgroundImageFix" result="effect1_dropShadow_19_1498"/>
<feBlend mode="normal" in="SourceGraphic" in2="effect1_dropShadow_19_1498" result="shape"/>
</filter>
<filter id="filter22_d_19_1498" x="17.6592" y="33.4326" width="4.35474" height="49.1694" filterUnits="userSpaceOnUse" color-interpolation-filters="sRGB">
<feFlood flood-opacity="0" result="BackgroundImageFix"/>
<feColorMatrix in="SourceAlpha" type="matrix" values="0 0 0 0 0 0 0 0 0 0 0 0 0 0 0 0 0 0 127 0" result="hardAlpha"/>
<feOffset dy="1"/>
<feGaussianBlur stdDeviation="1"/>
<feComposite in2="hardAlpha" operator="out"/>
<feColorMatrix type="matrix" values="0 0 0 0 0.584314 0 0 0 0 0.584314 0 0 0 0 0.584314 0 0 0 1 0"/>
<feBlend mode="normal" in2="BackgroundImageFix" result="effect1_dropShadow_19_1498"/>
<feBlend mode="normal" in="SourceGraphic" in2="effect1_dropShadow_19_1498" result="shape"/>
</filter>
<filter id="filter23_d_19_1498" x="9.14575" y="38.5078" width="4.35474" height="33.481" filterUnits="userSpaceOnUse" color-interpolation-filters="sRGB">
<feFlood flood-opacity="0" result="BackgroundImageFix"/>
<feColorMatrix in="SourceAlpha" type="matrix" values="0 0 0 0 0 0 0 0 0 0 0 0 0 0 0 0 0 0 127 0" result="hardAlpha"/>
<feOffset dy="1"/>
<feGaussianBlur stdDeviation="1"/>
<feComposite in2="hardAlpha" operator="out"/>
<feColorMatrix type="matrix" values="0 0 0 0 0.584314 0 0 0 0 0.584314 0 0 0 0 0.584314 0 0 0 1 0"/>
<feBlend mode="normal" in2="BackgroundImageFix" result="effect1_dropShadow_19_1498"/>
<feBlend mode="normal" in="SourceGraphic" in2="effect1_dropShadow_19_1498" result="shape"/>
</filter>
<filter id="filter24_d_19_1498" x="63.6309" y="0" width="68.1538" height="106" filterUnits="userSpaceOnUse" color-interpolation-filters="sRGB">
<feFlood flood-opacity="0" result="BackgroundImageFix"/>
<feColorMatrix in="SourceAlpha" type="matrix" values="0 0 0 0 0 0 0 0 0 0 0 0 0 0 0 0 0 0 127 0" result="hardAlpha"/>
<feOffset dy="4"/>
<feGaussianBlur stdDeviation="6"/>
<feComposite in2="hardAlpha" operator="out"/>
<feColorMatrix type="matrix" values="0 0 0 0 0 0 0 0 0 0 0 0 0 0 0 0 0 0 0.08 0"/>
<feBlend mode="normal" in2="BackgroundImageFix" result="effect1_dropShadow_19_1498"/>
<feBlend mode="normal" in="SourceGraphic" in2="effect1_dropShadow_19_1498" result="shape"/>
</filter>
<linearGradient id="paint0_linear_19_1498" x1="2.77368" y1="50.4834" x2="2.77368" y2="59.4151" gradientUnits="userSpaceOnUse">
<stop stop-color="#959595" stop-opacity="0.4"/>
<stop offset="1" stop-color="#959595" stop-opacity="0"/>
</linearGradient>
<linearGradient id="paint1_linear_19_1498" x1="199.226" y1="31.8613" x2="199.226" y2="41.7982" gradientUnits="userSpaceOnUse">
<stop stop-color="#959595" stop-opacity="0.4"/>
<stop offset="1" stop-color="#959595" stop-opacity="0"/>
</linearGradient>
<linearGradient id="paint2_linear_19_1498" x1="190.642" y1="33.6909" x2="190.642" y2="41.9305" gradientUnits="userSpaceOnUse">
<stop stop-color="#959595" stop-opacity="0.4"/>
<stop offset="1" stop-color="#959595" stop-opacity="0"/>
</linearGradient>
<linearGradient id="paint3_linear_19_1498" x1="182.128" y1="37.9258" x2="182.128" y2="42.4575" gradientUnits="userSpaceOnUse">
<stop stop-color="#959595" stop-opacity="0.4"/>
<stop offset="1" stop-color="#959595" stop-opacity="0"/>
</linearGradient>
<linearGradient id="paint4_linear_19_1498" x1="173.614" y1="35.7344" x2="173.614" y2="42.3755" gradientUnits="userSpaceOnUse">
<stop stop-color="#959595" stop-opacity="0.4"/>
<stop offset="1" stop-color="#959595" stop-opacity="0"/>
</linearGradient>
<linearGradient id="paint5_linear_19_1498" x1="165.03" y1="34.6631" x2="165.03" y2="46.3303" gradientUnits="userSpaceOnUse">
<stop stop-color="#959595" stop-opacity="0.4"/>
<stop offset="1" stop-color="#959595" stop-opacity="0"/>
</linearGradient>
<linearGradient id="paint6_linear_19_1498" x1="156.516" y1="34.1851" x2="156.516" y2="51.9001" gradientUnits="userSpaceOnUse">
<stop stop-color="#959595" stop-opacity="0.4"/>
<stop offset="1" stop-color="#959595" stop-opacity="0"/>
</linearGradient>
<linearGradient id="paint7_linear_19_1498" x1="147.932" y1="36.5752" x2="147.932" y2="61.4257" gradientUnits="userSpaceOnUse">
<stop stop-color="#959595" stop-opacity="0.4"/>
<stop offset="1" stop-color="#959595" stop-opacity="0"/>
</linearGradient>
<linearGradient id="paint8_linear_19_1498" x1="139.418" y1="47.4014" x2="139.418" y2="57.3383" gradientUnits="userSpaceOnUse">
<stop stop-color="#959595" stop-opacity="0.4"/>
<stop offset="1" stop-color="#959595" stop-opacity="0"/>
</linearGradient>
<linearGradient id="paint9_linear_19_1498" x1="130.904" y1="44.8472" x2="130.904" y2="56.5144" gradientUnits="userSpaceOnUse">
<stop stop-color="#959595" stop-opacity="0.4"/>
<stop offset="1" stop-color="#959595" stop-opacity="0"/>
</linearGradient>
<linearGradient id="paint10_linear_19_1498" x1="122.319" y1="42.853" x2="122.319" y2="53.548" gradientUnits="userSpaceOnUse">
<stop stop-color="#959595" stop-opacity="0.4"/>
<stop offset="1" stop-color="#959595" stop-opacity="0"/>
</linearGradient>
<linearGradient id="paint11_linear_19_1498" x1="113.806" y1="43.0674" x2="113.806" y2="54.7346" gradientUnits="userSpaceOnUse">
<stop stop-color="#959595" stop-opacity="0.4"/>
<stop offset="1" stop-color="#959595" stop-opacity="0"/>
</linearGradient>
<linearGradient id="paint12_linear_19_1498" x1="105.292" y1="42.8364" x2="105.292" y2="47.9449" gradientUnits="userSpaceOnUse">
<stop stop-color="#959595" stop-opacity="0.4"/>
<stop offset="1" stop-color="#959595" stop-opacity="0"/>
</linearGradient>
<linearGradient id="paint13_linear_19_1498" x1="96.7078" y1="41.4365" x2="96.7078" y2="52.3457" gradientUnits="userSpaceOnUse">
<stop stop-color="#959595" stop-opacity="0.4"/>
<stop offset="1" stop-color="#959595" stop-opacity="0"/>
</linearGradient>
<linearGradient id="paint14_linear_19_1498" x1="88.1938" y1="46.9893" x2="88.1938" y2="51.8506" gradientUnits="userSpaceOnUse">
<stop stop-color="#959595" stop-opacity="0.4"/>
<stop offset="1" stop-color="#959595" stop-opacity="0"/>
</linearGradient>
<linearGradient id="paint15_linear_19_1498" x1="79.6094" y1="46.231" x2="79.6094" y2="55.5252" gradientUnits="userSpaceOnUse">
<stop stop-color="#959595" stop-opacity="0.4"/>
<stop offset="1" stop-color="#959595" stop-opacity="0"/>
</linearGradient>
<linearGradient id="paint16_linear_19_1498" x1="71.0959" y1="45.5229" x2="71.0959" y2="59.3489" gradientUnits="userSpaceOnUse">
<stop stop-color="#959595" stop-opacity="0.4"/>
<stop offset="1" stop-color="#959595" stop-opacity="0"/>
</linearGradient>
<linearGradient id="paint17_linear_19_1498" x1="62.582" y1="50.4834" x2="62.582" y2="59.4151" gradientUnits="userSpaceOnUse">
<stop stop-color="#959595" stop-opacity="0.4"/>
<stop offset="1" stop-color="#959595" stop-opacity="0"/>
</linearGradient>
<linearGradient id="paint18_linear_19_1498" x1="53.9976" y1="54.1416" x2="53.9976" y2="57.4539" gradientUnits="userSpaceOnUse">
<stop stop-color="#959595" stop-opacity="0.4"/>
<stop offset="1" stop-color="#959595" stop-opacity="0"/>
</linearGradient>
<linearGradient id="paint19_linear_19_1498" x1="45.4836" y1="45.3584" x2="45.4836" y2="65.2322" gradientUnits="userSpaceOnUse">
<stop stop-color="#959595" stop-opacity="0.4"/>
<stop offset="1" stop-color="#959595" stop-opacity="0"/>
</linearGradient>
<linearGradient id="paint20_linear_19_1498" x1="36.9702" y1="50.5327" x2="36.9702" y2="57.3056" gradientUnits="userSpaceOnUse">
<stop stop-color="#959595" stop-opacity="0.4"/>
<stop offset="1" stop-color="#959595" stop-opacity="0"/>
</linearGradient>
<linearGradient id="paint21_linear_19_1498" x1="28.3855" y1="48.8682" x2="28.3855" y2="62.414" gradientUnits="userSpaceOnUse">
<stop stop-color="#959595" stop-opacity="0.4"/>
<stop offset="1" stop-color="#959595" stop-opacity="0"/>
</linearGradient>
<linearGradient id="paint22_linear_19_1498" x1="19.8721" y1="50.1699" x2="19.8721" y2="63.8641" gradientUnits="userSpaceOnUse">
<stop stop-color="#959595" stop-opacity="0.4"/>
<stop offset="1" stop-color="#959595" stop-opacity="0"/>
</linearGradient>
<linearGradient id="paint23_linear_19_1498" x1="11.2876" y1="49.7744" x2="11.2876" y2="58.7061" gradientUnits="userSpaceOnUse">
<stop stop-color="#959595" stop-opacity="0.4"/>
<stop offset="1" stop-color="#959595" stop-opacity="0"/>
</linearGradient>
<linearGradient id="paint24_linear_19_1498" x1="78.1539" y1="10.5231" x2="140.315" y2="42.1133" gradientUnits="userSpaceOnUse">
<stop stop-color="#F1E134"/>
<stop offset="1" stop-color="#FF6A60"/>
</linearGradient>
<linearGradient id="paint25_linear_19_1498" x1="78.4628" y1="15.2587" x2="135.149" y2="42.1868" gradientUnits="userSpaceOnUse">
<stop stop-color="#FCD23D"/>
<stop offset="1" stop-color="#FE9004"/>
</linearGradient>
</defs>
</svg>
