<svg width="200" height="104" viewBox="0 0 200 104" fill="none" xmlns="http://www.w3.org/2000/svg">
<path d="M0 82.4436V89H200V7C200 7 184.159 34.3343 158.228 43.0604C121.253 55.5029 77.5918 16.0801 43.038 34.537C27.0651 43.0689 0 82.4436 0 82.4436Z" fill="url(#paint0_linear_19_1503)"/>
<g filter="url(#filter0_d_19_1503)">
<path d="M133.284 62.7937C133.368 62.7937 133.448 62.8269 133.507 62.8861C133.566 62.9452 133.599 63.0254 133.599 63.109V65.6307C133.599 65.7143 133.566 65.7945 133.507 65.8536C133.448 65.9127 133.368 65.9459 133.284 65.9459H132.496C132.398 65.9459 132.301 65.9687 132.214 66.0125C132.126 66.0563 132.05 66.1198 131.992 66.1981L131.393 66.9966L130.794 66.1981C130.735 66.1198 130.659 66.0563 130.571 66.0125C130.484 65.9687 130.387 65.9459 130.289 65.9459H129.501C129.418 65.9459 129.338 65.9127 129.278 65.8536C129.219 65.7945 129.186 65.7143 129.186 65.6307V63.109C129.186 63.0254 129.219 62.9452 129.278 62.8861C129.338 62.8269 129.418 62.7937 129.501 62.7937H133.284ZM129.501 62.4785C129.334 62.4785 129.174 62.5449 129.056 62.6632C128.937 62.7814 128.871 62.9418 128.871 63.109V65.6307C128.871 65.7979 128.937 65.9583 129.056 66.0765C129.174 66.1947 129.334 66.2612 129.501 66.2612H130.289C130.338 66.2612 130.387 66.2725 130.43 66.2944C130.474 66.3163 130.512 66.3481 130.542 66.3872L131.14 67.1857C131.17 67.2248 131.208 67.2566 131.252 67.2785C131.295 67.3004 131.344 67.3118 131.393 67.3118C131.442 67.3118 131.49 67.3004 131.534 67.2785C131.577 67.2566 131.615 67.2248 131.645 67.1857L132.244 66.3872C132.273 66.3481 132.311 66.3163 132.355 66.2944C132.399 66.2725 132.447 66.2612 132.496 66.2612H133.284C133.451 66.2612 133.611 66.1947 133.73 66.0765C133.848 65.9583 133.914 65.7979 133.914 65.6307V63.109C133.914 62.9418 133.848 62.7814 133.73 62.6632C133.611 62.5449 133.451 62.4785 133.284 62.4785H129.501Z" fill="#959595"/>
<path d="M130.447 64.3699C130.447 64.4535 130.414 64.5337 130.355 64.5928C130.295 64.6519 130.215 64.6851 130.132 64.6851C130.048 64.6851 129.968 64.6519 129.909 64.5928C129.85 64.5337 129.816 64.4535 129.816 64.3699C129.816 64.2863 129.85 64.2061 129.909 64.147C129.968 64.0879 130.048 64.0547 130.132 64.0547C130.215 64.0547 130.295 64.0879 130.355 64.147C130.414 64.2061 130.447 64.2863 130.447 64.3699ZM131.708 64.3699C131.708 64.4535 131.675 64.5337 131.615 64.5928C131.556 64.6519 131.476 64.6851 131.393 64.6851C131.309 64.6851 131.229 64.6519 131.17 64.5928C131.11 64.5337 131.077 64.4535 131.077 64.3699C131.077 64.2863 131.11 64.2061 131.17 64.147C131.229 64.0879 131.309 64.0547 131.393 64.0547C131.476 64.0547 131.556 64.0879 131.615 64.147C131.675 64.2061 131.708 64.2863 131.708 64.3699ZM132.969 64.3699C132.969 64.4535 132.935 64.5337 132.876 64.5928C132.817 64.6519 132.737 64.6851 132.653 64.6851C132.57 64.6851 132.49 64.6519 132.43 64.5928C132.371 64.5337 132.338 64.4535 132.338 64.3699C132.338 64.2863 132.371 64.2061 132.43 64.147C132.49 64.0879 132.57 64.0547 132.653 64.0547C132.737 64.0547 132.817 64.0879 132.876 64.147C132.935 64.2061 132.969 64.2863 132.969 64.3699Z" fill="#959595"/>
</g>
<g filter="url(#filter1_d_19_1503)">
<path d="M177.099 12.5163C177.225 12.5163 177.345 12.5661 177.433 12.6548C177.522 12.7434 177.572 12.8637 177.572 12.9891V16.7718C177.572 16.8972 177.522 17.0174 177.433 17.1061C177.345 17.1948 177.225 17.2446 177.099 17.2446H172.567C172.316 17.2446 172.075 17.3443 171.898 17.5217L170.952 18.4673V12.9891C170.952 12.8637 171.002 12.7434 171.091 12.6548C171.179 12.5661 171.3 12.5163 171.425 12.5163H177.099ZM171.425 12.0435C171.174 12.0435 170.934 12.1431 170.756 12.3204C170.579 12.4978 170.479 12.7383 170.479 12.9891V19.038C170.48 19.0848 170.493 19.1305 170.519 19.1694C170.545 19.2083 170.582 19.2386 170.626 19.2565C170.669 19.2743 170.716 19.279 170.762 19.2698C170.808 19.2606 170.85 19.2381 170.883 19.2049L172.232 17.8559C172.321 17.7673 172.441 17.7174 172.567 17.7174H177.099C177.35 17.7174 177.59 17.6178 177.768 17.4404C177.945 17.2631 178.045 17.0226 178.045 16.7718V12.9891C178.045 12.7383 177.945 12.4978 177.768 12.3204C177.59 12.1431 177.35 12.0435 177.099 12.0435H171.425Z" fill="#959595"/>
<path d="M171.898 13.6983C171.898 13.6356 171.923 13.5755 171.967 13.5312C172.012 13.4868 172.072 13.4619 172.134 13.4619H176.39C176.453 13.4619 176.513 13.4868 176.557 13.5312C176.601 13.5755 176.626 13.6356 176.626 13.6983C176.626 13.761 176.601 13.8212 176.557 13.8655C176.513 13.9098 176.453 13.9347 176.39 13.9347H172.134C172.072 13.9347 172.012 13.9098 171.967 13.8655C171.923 13.8212 171.898 13.761 171.898 13.6983ZM171.898 14.8804C171.898 14.8177 171.923 14.7576 171.967 14.7132C172.012 14.6689 172.072 14.644 172.134 14.644H176.39C176.453 14.644 176.513 14.6689 176.557 14.7132C176.601 14.7576 176.626 14.8177 176.626 14.8804C176.626 14.9431 176.601 15.0032 176.557 15.0476C176.513 15.0919 176.453 15.1168 176.39 15.1168H172.134C172.072 15.1168 172.012 15.0919 171.967 15.0476C171.923 15.0032 171.898 14.9431 171.898 14.8804ZM171.898 16.0625C171.898 15.9998 171.923 15.9396 171.967 15.8953C172.012 15.851 172.072 15.8261 172.134 15.8261H174.499C174.561 15.8261 174.621 15.851 174.666 15.8953C174.71 15.9396 174.735 15.9998 174.735 16.0625C174.735 16.1252 174.71 16.1853 174.666 16.2296C174.621 16.274 174.561 16.2989 174.499 16.2989H172.134C172.072 16.2989 172.012 16.274 171.967 16.2296C171.923 16.1853 171.898 16.1252 171.898 16.0625Z" fill="#959595"/>
</g>
<g filter="url(#filter2_d_19_1503)">
<path d="M25.9512 70.438C26.0557 70.438 26.1559 70.4795 26.2298 70.5534C26.3037 70.6273 26.3452 70.7275 26.3452 70.832V73.9842C26.3452 74.0887 26.3037 74.1889 26.2298 74.2628C26.1559 74.3367 26.0557 74.3782 25.9512 74.3782H22.174C21.9651 74.3783 21.7646 74.4613 21.6169 74.6091L20.8288 75.3972V70.832C20.8288 70.7275 20.8704 70.6273 20.9442 70.5534C21.0181 70.4795 21.1184 70.438 21.2229 70.438H25.9512ZM21.2229 70.0439C21.0139 70.0439 20.8134 70.127 20.6656 70.2748C20.5178 70.4225 20.4348 70.623 20.4348 70.832V75.8728C20.4348 75.9117 20.4464 75.9498 20.4681 75.9822C20.4897 76.0146 20.5205 76.0399 20.5566 76.0548C20.5926 76.0697 20.6322 76.0735 20.6705 76.0659C20.7087 76.0583 20.7438 76.0394 20.7713 76.0118L21.8955 74.8877C21.9693 74.8138 22.0695 74.7723 22.174 74.7722H25.9512C26.1602 74.7722 26.3606 74.6892 26.5084 74.5414C26.6562 74.3936 26.7392 74.1932 26.7392 73.9842V70.832C26.7392 70.623 26.6562 70.4225 26.5084 70.2748C26.3606 70.127 26.1602 70.0439 25.9512 70.0439H21.2229Z" fill="#959595"/>
<path d="M21.6169 71.4231C21.6169 71.3708 21.6377 71.3207 21.6746 71.2838C21.7116 71.2468 21.7617 71.2261 21.814 71.2261H25.3602C25.4124 71.2261 25.4625 71.2468 25.4995 71.2838C25.5364 71.3207 25.5572 71.3708 25.5572 71.4231C25.5572 71.4753 25.5364 71.5254 25.4995 71.5624C25.4625 71.5993 25.4124 71.6201 25.3602 71.6201H21.814C21.7617 71.6201 21.7116 71.5993 21.6746 71.5624C21.6377 71.5254 21.6169 71.4753 21.6169 71.4231ZM21.6169 72.4081C21.6169 72.3559 21.6377 72.3058 21.6746 72.2688C21.7116 72.2319 21.7617 72.2111 21.814 72.2111H25.3602C25.4124 72.2111 25.4625 72.2319 25.4995 72.2688C25.5364 72.3058 25.5572 72.3559 25.5572 72.4081C25.5572 72.4604 25.5364 72.5105 25.4995 72.5475C25.4625 72.5844 25.4124 72.6052 25.3602 72.6052H21.814C21.7617 72.6052 21.7116 72.5844 21.6746 72.5475C21.6377 72.5105 21.6169 72.4604 21.6169 72.4081ZM21.6169 73.3932C21.6169 73.341 21.6377 73.2908 21.6746 73.2539C21.7116 73.217 21.7617 73.1962 21.814 73.1962H23.7841C23.8363 73.1962 23.8864 73.217 23.9234 73.2539C23.9603 73.2908 23.9811 73.341 23.9811 73.3932C23.9811 73.4455 23.9603 73.4956 23.9234 73.5325C23.8864 73.5695 23.8363 73.5902 23.7841 73.5902H21.814C21.7617 73.5902 21.7116 73.5695 21.6746 73.5325C21.6377 73.4956 21.6169 73.4455 21.6169 73.3932Z" fill="#959595"/>
</g>
<g filter="url(#filter3_d_19_1503)">
<path fill-rule="evenodd" clip-rule="evenodd" d="M184.003 73.3226C184.225 73.1009 184.349 72.8003 184.349 72.4868C184.349 72.1733 184.225 71.8726 184.003 71.6509C183.781 71.4292 183.481 71.3047 183.167 71.3047C182.854 71.3047 182.553 71.4292 182.331 71.6509C182.109 71.8726 181.985 72.1733 181.985 72.4868C181.985 72.8003 182.109 73.1009 182.331 73.3226C182.553 73.5443 182.854 73.6688 183.167 73.6688C183.481 73.6688 183.781 73.5443 184.003 73.3226ZM179.237 72.4967C179.495 72.238 179.846 72.0927 180.212 72.0927H181.197C181.249 72.0927 181.299 72.072 181.336 72.035C181.373 71.9981 181.394 71.948 181.394 71.8957C181.394 71.8435 181.373 71.7934 181.336 71.7564C181.299 71.7195 181.249 71.6987 181.197 71.6987H180.212C179.742 71.6987 179.291 71.8855 178.958 72.218C178.626 72.5506 178.439 73.0016 178.439 73.4718V75.4419C178.439 75.9122 178.626 76.3632 178.958 76.6957C179.291 77.0282 179.742 77.2151 180.212 77.2151H182.182C182.652 77.2151 183.103 77.0282 183.436 76.6957C183.768 76.3632 183.955 75.9122 183.955 75.4419V74.4569C183.955 74.4046 183.934 74.3545 183.897 74.3176C183.86 74.2806 183.81 74.2599 183.758 74.2599C183.706 74.2599 183.656 74.2806 183.619 74.3176C183.582 74.3545 183.561 74.4046 183.561 74.4569V75.4419C183.561 75.8077 183.416 76.1585 183.157 76.4171C182.898 76.6757 182.548 76.821 182.182 76.821H180.212C179.846 76.821 179.495 76.6757 179.237 76.4171C178.978 76.1585 178.833 75.8077 178.833 75.4419V73.4718C178.833 73.1061 178.978 72.7553 179.237 72.4967Z" fill="#959595"/>
</g>
<g filter="url(#filter4_d_19_1503)">
<mask id="path-9-inside-1_19_1503" fill="white">
<path fill-rule="evenodd" clip-rule="evenodd" d="M19.95 14.8686C20.2603 14.5582 20.4347 14.1373 20.4347 13.6984C20.4347 13.2595 20.2603 12.8385 19.95 12.5282C19.6396 12.2178 19.2187 12.0435 18.7798 12.0435C18.3409 12.0435 17.9199 12.2178 17.6096 12.5282C17.2992 12.8385 17.1249 13.2595 17.1249 13.6984C17.1249 14.1373 17.2992 14.5582 17.6096 14.8686C17.9199 15.1789 18.3409 15.3533 18.7798 15.3533C19.2187 15.3533 19.6396 15.1789 19.95 14.8686ZM13.2773 13.7122C13.6394 13.3501 14.1305 13.1467 14.6425 13.1467H16.0216C16.0947 13.1467 16.1649 13.1177 16.2166 13.0659C16.2684 13.0142 16.2974 12.9441 16.2974 12.8709C16.2974 12.7978 16.2684 12.7276 16.2166 12.6759C16.1649 12.6242 16.0947 12.5951 16.0216 12.5951H14.6425C13.9841 12.5951 13.3528 12.8566 12.8872 13.3222C12.4217 13.7877 12.1602 14.4191 12.1602 15.0774V17.8356C12.1602 18.494 12.4217 19.1254 12.8872 19.5909C13.3528 20.0564 13.9841 20.318 14.6425 20.318H17.4007C18.059 20.318 18.6904 20.0564 19.156 19.5909C19.6215 19.1254 19.883 18.494 19.883 17.8356V16.4565C19.883 16.3834 19.854 16.3132 19.8023 16.2615C19.7505 16.2098 19.6804 16.1807 19.6072 16.1807C19.5341 16.1807 19.4639 16.2098 19.4122 16.2615C19.3605 16.3132 19.3314 16.3834 19.3314 16.4565V17.8356C19.3314 18.3477 19.128 18.8388 18.7659 19.2008C18.4038 19.5629 17.9127 19.7663 17.4007 19.7663H14.6425C14.1305 19.7663 13.6394 19.5629 13.2773 19.2008C12.9152 18.8388 12.7118 18.3477 12.7118 17.8356V15.0774C12.7118 14.5654 12.9152 14.0743 13.2773 13.7122Z"/>
</mask>
<path fill-rule="evenodd" clip-rule="evenodd" d="M19.95 14.8686C20.2603 14.5582 20.4347 14.1373 20.4347 13.6984C20.4347 13.2595 20.2603 12.8385 19.95 12.5282C19.6396 12.2178 19.2187 12.0435 18.7798 12.0435C18.3409 12.0435 17.9199 12.2178 17.6096 12.5282C17.2992 12.8385 17.1249 13.2595 17.1249 13.6984C17.1249 14.1373 17.2992 14.5582 17.6096 14.8686C17.9199 15.1789 18.3409 15.3533 18.7798 15.3533C19.2187 15.3533 19.6396 15.1789 19.95 14.8686ZM13.2773 13.7122C13.6394 13.3501 14.1305 13.1467 14.6425 13.1467H16.0216C16.0947 13.1467 16.1649 13.1177 16.2166 13.0659C16.2684 13.0142 16.2974 12.9441 16.2974 12.8709C16.2974 12.7978 16.2684 12.7276 16.2166 12.6759C16.1649 12.6242 16.0947 12.5951 16.0216 12.5951H14.6425C13.9841 12.5951 13.3528 12.8566 12.8872 13.3222C12.4217 13.7877 12.1602 14.4191 12.1602 15.0774V17.8356C12.1602 18.494 12.4217 19.1254 12.8872 19.5909C13.3528 20.0564 13.9841 20.318 14.6425 20.318H17.4007C18.059 20.318 18.6904 20.0564 19.156 19.5909C19.6215 19.1254 19.883 18.494 19.883 17.8356V16.4565C19.883 16.3834 19.854 16.3132 19.8023 16.2615C19.7505 16.2098 19.6804 16.1807 19.6072 16.1807C19.5341 16.1807 19.4639 16.2098 19.4122 16.2615C19.3605 16.3132 19.3314 16.3834 19.3314 16.4565V17.8356C19.3314 18.3477 19.128 18.8388 18.7659 19.2008C18.4038 19.5629 17.9127 19.7663 17.4007 19.7663H14.6425C14.1305 19.7663 13.6394 19.5629 13.2773 19.2008C12.9152 18.8388 12.7118 18.3477 12.7118 17.8356V15.0774C12.7118 14.5654 12.9152 14.0743 13.2773 13.7122Z" fill="#959595"/>
<path d="M19.95 14.8686L19.2429 14.1614V14.1614L19.95 14.8686ZM19.95 12.5282L19.2429 13.2353L19.2429 13.2353L19.95 12.5282ZM17.6096 12.5282L18.3167 13.2353L17.6096 12.5282ZM17.6096 14.8686L16.9025 15.5757L16.9025 15.5757L17.6096 14.8686ZM13.2773 13.7122L12.5702 13.0051L12.5702 13.0051L13.2773 13.7122ZM16.2166 13.0659L16.9237 13.773L16.9237 13.773L16.2166 13.0659ZM16.2166 12.6759L16.9237 11.9688L16.9237 11.9688L16.2166 12.6759ZM19.4122 16.2615L18.7051 15.5544L18.7051 15.5544L19.4122 16.2615ZM18.7659 19.2008L18.0588 18.4937L18.0588 18.4937L18.7659 19.2008ZM14.6425 19.7663L14.6425 20.7663H14.6425V19.7663ZM13.2773 19.2008L13.9844 18.4937L13.9844 18.4937L13.2773 19.2008ZM19.4347 13.6984C19.4347 13.8721 19.3657 14.0386 19.2429 14.1614L20.6571 15.5757C21.155 15.0778 21.4347 14.4025 21.4347 13.6984H19.4347ZM19.2429 13.2353C19.3657 13.3581 19.4347 13.5247 19.4347 13.6984H21.4347C21.4347 12.9942 21.155 12.319 20.6571 11.8211L19.2429 13.2353ZM18.7798 13.0435C18.9535 13.0435 19.12 13.1125 19.2429 13.2353L20.6571 11.8211C20.1592 11.3232 19.4839 11.0435 18.7798 11.0435V13.0435ZM18.3167 13.2353C18.4395 13.1125 18.6061 13.0435 18.7798 13.0435V11.0435C18.0756 11.0435 17.4004 11.3232 16.9025 11.8211L18.3167 13.2353ZM18.1249 13.6984C18.1249 13.5247 18.1939 13.3581 18.3167 13.2353L16.9025 11.8211C16.4046 12.319 16.1249 12.9942 16.1249 13.6984H18.1249ZM18.3167 14.1614C18.1939 14.0386 18.1249 13.8721 18.1249 13.6984H16.1249C16.1249 14.4025 16.4046 15.0778 16.9025 15.5757L18.3167 14.1614ZM18.7798 14.3533C18.6061 14.3533 18.4395 14.2843 18.3167 14.1614L16.9025 15.5757C17.4004 16.0736 18.0756 16.3533 18.7798 16.3533V14.3533ZM19.2429 14.1614C19.12 14.2843 18.9535 14.3533 18.7798 14.3533V16.3533C19.4839 16.3533 20.1592 16.0736 20.6571 15.5757L19.2429 14.1614ZM14.6425 12.1467C13.8652 12.1467 13.1198 12.4555 12.5702 13.0051L13.9844 14.4193C14.1589 14.2448 14.3957 14.1467 14.6425 14.1467V12.1467ZM16.0216 12.1467H14.6425V14.1467H16.0216V12.1467ZM15.5095 12.3588C15.6453 12.223 15.8295 12.1467 16.0216 12.1467V14.1467C16.36 14.1467 16.6845 14.0123 16.9237 13.773L15.5095 12.3588ZM15.2974 12.8709C15.2974 12.6788 15.3737 12.4946 15.5095 12.3588L16.9237 13.773C17.163 13.5338 17.2974 13.2093 17.2974 12.8709H15.2974ZM15.5095 13.383C15.3737 13.2472 15.2974 13.063 15.2974 12.8709H17.2974C17.2974 12.5325 17.163 12.208 16.9237 11.9688L15.5095 13.383ZM16.0216 13.5951C15.8295 13.5951 15.6453 13.5188 15.5095 13.383L16.9237 11.9688C16.6845 11.7295 16.36 11.5951 16.0216 11.5951V13.5951ZM14.6425 13.5951H16.0216V11.5951H14.6425V13.5951ZM13.5943 14.0293C13.8723 13.7513 14.2494 13.5951 14.6425 13.5951V11.5951C13.7189 11.5951 12.8332 11.962 12.1801 12.615L13.5943 14.0293ZM13.1602 15.0774C13.1602 14.6843 13.3163 14.3073 13.5943 14.0293L12.1801 12.615C11.527 13.2681 11.1602 14.1539 11.1602 15.0774H13.1602ZM13.1602 17.8356V15.0774H11.1602V17.8356H13.1602ZM13.5943 18.8838C13.3163 18.6058 13.1602 18.2288 13.1602 17.8356H11.1602C11.1602 18.7592 11.527 19.6449 12.1801 20.298L13.5943 18.8838ZM14.6425 19.318C14.2494 19.318 13.8723 19.1618 13.5943 18.8838L12.1801 20.298C12.8332 20.9511 13.7189 21.318 14.6425 21.318V19.318ZM17.4007 19.318H14.6425V21.318H17.4007V19.318ZM18.4489 18.8838C18.1709 19.1618 17.7938 19.318 17.4007 19.318V21.318C18.3243 21.318 19.21 20.9511 19.8631 20.298L18.4489 18.8838ZM18.883 17.8356C18.883 18.2288 18.7269 18.6058 18.4489 18.8838L19.8631 20.298C20.5161 19.6449 20.883 18.7592 20.883 17.8356H18.883ZM18.883 16.4565V17.8356H20.883V16.4565H18.883ZM19.0951 16.9686C18.9593 16.8328 18.883 16.6486 18.883 16.4565H20.883C20.883 16.1182 20.7486 15.7937 20.5094 15.5544L19.0951 16.9686ZM19.6072 17.1807C19.4152 17.1807 19.231 17.1044 19.0951 16.9686L20.5094 15.5544C20.2701 15.3151 19.9456 15.1807 19.6072 15.1807V17.1807ZM20.1193 16.9686C19.9835 17.1044 19.7993 17.1807 19.6072 17.1807V15.1807C19.2689 15.1807 18.9443 15.3151 18.7051 15.5544L20.1193 16.9686ZM20.3314 16.4565C20.3314 16.6486 20.2551 16.8328 20.1193 16.9686L18.7051 15.5544C18.4658 15.7937 18.3314 16.1182 18.3314 16.4565H20.3314ZM20.3314 17.8356V16.4565H18.3314V17.8356H20.3314ZM19.473 19.908C20.0226 19.3583 20.3314 18.6129 20.3314 17.8356H18.3314C18.3314 18.0825 18.2333 18.3192 18.0588 18.4937L19.473 19.908ZM17.4007 20.7663C18.178 20.7663 18.9234 20.4576 19.473 19.9079L18.0588 18.4937C17.8843 18.6683 17.6475 18.7663 17.4007 18.7663V20.7663ZM14.6425 20.7663H17.4007V18.7663H14.6425V20.7663ZM12.5702 19.908C13.1198 20.4576 13.8652 20.7663 14.6425 20.7663L14.6425 18.7663C14.3957 18.7663 14.1589 18.6683 13.9844 18.4937L12.5702 19.908ZM11.7118 17.8356C11.7118 18.6129 12.0206 19.3583 12.5702 19.908L13.9844 18.4937C13.8098 18.3192 13.7118 18.0825 13.7118 17.8356H11.7118ZM11.7118 15.0774V17.8356H13.7118V15.0774H11.7118ZM12.5702 13.0051C12.0206 13.5547 11.7118 14.3002 11.7118 15.0774H13.7118C13.7118 14.8306 13.8098 14.5939 13.9844 14.4193L12.5702 13.0051Z" fill="#959595" mask="url(#path-9-inside-1_19_1503)"/>
</g>
<rect y="7" width="200" height="82" fill="url(#paint1_linear_19_1503)"/>
<g filter="url(#filter5_d_19_1503)">
<path fill-rule="evenodd" clip-rule="evenodd" d="M104.739 11.781C104.963 12.4614 105.041 13.1811 104.97 13.8937C116.68 16.2563 125.495 26.6088 125.495 39.0113C125.495 44.6386 128.058 69.7613 135.745 74.8863H63.9954C71.6829 69.7613 74.2454 44.6386 74.2454 39.0113C74.2461 33.1 76.2898 27.3706 80.0303 22.7933C83.7708 18.2159 88.9783 15.0719 94.771 13.8937C94.6995 13.1811 94.7781 12.4614 95.0018 11.781C95.2255 11.1007 95.5893 10.4748 96.0698 9.94364C96.5502 9.41253 97.1367 8.98802 97.7913 8.69748C98.4459 8.40694 99.1542 8.25684 99.8704 8.25684C100.587 8.25684 101.295 8.40694 101.949 8.69748C102.604 8.98802 103.19 9.41253 103.671 9.94364C104.151 10.4748 104.515 11.1007 104.739 11.781ZM109.777 81.1188C110.316 79.8179 110.593 78.4235 110.593 77.0153H99.8704H89.1473C89.1473 78.4235 89.4246 79.8179 89.9635 81.1188C90.5024 82.4198 91.2923 83.6019 92.288 84.5977C93.2837 85.5934 94.4658 86.3832 95.7668 86.9221C97.0678 87.461 98.4622 87.7384 99.8704 87.7384C101.279 87.7384 102.673 87.461 103.974 86.9221C105.275 86.3832 106.457 85.5934 107.453 84.5977C108.448 83.6019 109.238 82.4198 109.777 81.1188Z" fill="white"/>
<path fill-rule="evenodd" clip-rule="evenodd" d="M104.739 11.781C104.963 12.4614 105.041 13.1811 104.97 13.8937C116.68 16.2563 125.495 26.6088 125.495 39.0113C125.495 44.6386 128.058 69.7613 135.745 74.8863H63.9954C71.6829 69.7613 74.2454 44.6386 74.2454 39.0113C74.2461 33.1 76.2898 27.3706 80.0303 22.7933C83.7708 18.2159 88.9783 15.0719 94.771 13.8937C94.6995 13.1811 94.7781 12.4614 95.0018 11.781C95.2255 11.1007 95.5893 10.4748 96.0698 9.94364C96.5502 9.41253 97.1367 8.98802 97.7913 8.69748C98.4459 8.40694 99.1542 8.25684 99.8704 8.25684C100.587 8.25684 101.295 8.40694 101.949 8.69748C102.604 8.98802 103.19 9.41253 103.671 9.94364C104.151 10.4748 104.515 11.1007 104.739 11.781ZM109.777 81.1188C110.316 79.8179 110.593 78.4235 110.593 77.0153H99.8704H89.1473C89.1473 78.4235 89.4246 79.8179 89.9635 81.1188C90.5024 82.4198 91.2923 83.6019 92.288 84.5977C93.2837 85.5934 94.4658 86.3832 95.7668 86.9221C97.0678 87.461 98.4622 87.7384 99.8704 87.7384C101.279 87.7384 102.673 87.461 103.974 86.9221C105.275 86.3832 106.457 85.5934 107.453 84.5977C108.448 83.6019 109.238 82.4198 109.777 81.1188Z" fill="url(#paint2_linear_19_1503)"/>
<path fill-rule="evenodd" clip-rule="evenodd" d="M104.739 11.781C104.963 12.4614 105.041 13.1811 104.97 13.8937C116.68 16.2563 125.495 26.6088 125.495 39.0113C125.495 44.6386 128.058 69.7613 135.745 74.8863H63.9954C71.6829 69.7613 74.2454 44.6386 74.2454 39.0113C74.2461 33.1 76.2898 27.3706 80.0303 22.7933C83.7708 18.2159 88.9783 15.0719 94.771 13.8937C94.6995 13.1811 94.7781 12.4614 95.0018 11.781C95.2255 11.1007 95.5893 10.4748 96.0698 9.94364C96.5502 9.41253 97.1367 8.98802 97.7913 8.69748C98.4459 8.40694 99.1542 8.25684 99.8704 8.25684C100.587 8.25684 101.295 8.40694 101.949 8.69748C102.604 8.98802 103.19 9.41253 103.671 9.94364C104.151 10.4748 104.515 11.1007 104.739 11.781ZM109.777 81.1188C110.316 79.8179 110.593 78.4235 110.593 77.0153H99.8704H89.1473C89.1473 78.4235 89.4246 79.8179 89.9635 81.1188C90.5024 82.4198 91.2923 83.6019 92.288 84.5977C93.2837 85.5934 94.4658 86.3832 95.7668 86.9221C97.0678 87.461 98.4622 87.7384 99.8704 87.7384C101.279 87.7384 102.673 87.461 103.974 86.9221C105.275 86.3832 106.457 85.5934 107.453 84.5977C108.448 83.6019 109.238 82.4198 109.777 81.1188Z" fill="url(#paint3_linear_19_1503)"/>
</g>
<defs>
<filter id="filter0_d_19_1503" x="123.871" y="57.4785" width="15.0435" height="15.0435" filterUnits="userSpaceOnUse" color-interpolation-filters="sRGB">
<feFlood flood-opacity="0" result="BackgroundImageFix"/>
<feColorMatrix in="SourceAlpha" type="matrix" values="0 0 0 0 0 0 0 0 0 0 0 0 0 0 0 0 0 0 127 0" result="hardAlpha"/>
<feOffset/>
<feGaussianBlur stdDeviation="2.5"/>
<feComposite in2="hardAlpha" operator="out"/>
<feColorMatrix type="matrix" values="0 0 0 0 0.583333 0 0 0 0 0.583333 0 0 0 0 0.583333 0 0 0 1 0"/>
<feBlend mode="normal" in2="BackgroundImageFix" result="effect1_dropShadow_19_1503"/>
<feBlend mode="normal" in="SourceGraphic" in2="effect1_dropShadow_19_1503" result="shape"/>
</filter>
<filter id="filter1_d_19_1503" x="165.479" y="7.04346" width="17.5652" height="17.5654" filterUnits="userSpaceOnUse" color-interpolation-filters="sRGB">
<feFlood flood-opacity="0" result="BackgroundImageFix"/>
<feColorMatrix in="SourceAlpha" type="matrix" values="0 0 0 0 0 0 0 0 0 0 0 0 0 0 0 0 0 0 127 0" result="hardAlpha"/>
<feOffset/>
<feGaussianBlur stdDeviation="2.5"/>
<feComposite in2="hardAlpha" operator="out"/>
<feColorMatrix type="matrix" values="0 0 0 0 0.583333 0 0 0 0 0.583333 0 0 0 0 0.583333 0 0 0 1 0"/>
<feBlend mode="normal" in2="BackgroundImageFix" result="effect1_dropShadow_19_1503"/>
<feBlend mode="normal" in="SourceGraphic" in2="effect1_dropShadow_19_1503" result="shape"/>
</filter>
<filter id="filter2_d_19_1503" x="15.4348" y="65.0439" width="16.3044" height="16.3042" filterUnits="userSpaceOnUse" color-interpolation-filters="sRGB">
<feFlood flood-opacity="0" result="BackgroundImageFix"/>
<feColorMatrix in="SourceAlpha" type="matrix" values="0 0 0 0 0 0 0 0 0 0 0 0 0 0 0 0 0 0 127 0" result="hardAlpha"/>
<feOffset/>
<feGaussianBlur stdDeviation="2.5"/>
<feComposite in2="hardAlpha" operator="out"/>
<feColorMatrix type="matrix" values="0 0 0 0 0.583333 0 0 0 0 0.583333 0 0 0 0 0.583333 0 0 0 1 0"/>
<feBlend mode="normal" in2="BackgroundImageFix" result="effect1_dropShadow_19_1503"/>
<feBlend mode="normal" in="SourceGraphic" in2="effect1_dropShadow_19_1503" result="shape"/>
</filter>
<filter id="filter3_d_19_1503" x="173.045" y="66.3047" width="16.3044" height="16.3042" filterUnits="userSpaceOnUse" color-interpolation-filters="sRGB">
<feFlood flood-opacity="0" result="BackgroundImageFix"/>
<feColorMatrix in="SourceAlpha" type="matrix" values="0 0 0 0 0 0 0 0 0 0 0 0 0 0 0 0 0 0 127 0" result="hardAlpha"/>
<feOffset/>
<feGaussianBlur stdDeviation="2.5"/>
<feComposite in2="hardAlpha" operator="out"/>
<feColorMatrix type="matrix" values="0 0 0 0 0.583333 0 0 0 0 0.583333 0 0 0 0 0.583333 0 0 0 1 0"/>
<feBlend mode="normal" in2="BackgroundImageFix" result="effect1_dropShadow_19_1503"/>
<feBlend mode="normal" in="SourceGraphic" in2="effect1_dropShadow_19_1503" result="shape"/>
</filter>
<filter id="filter4_d_19_1503" x="6.60864" y="7.04346" width="18.8262" height="18.8262" filterUnits="userSpaceOnUse" color-interpolation-filters="sRGB">
<feFlood flood-opacity="0" result="BackgroundImageFix"/>
<feColorMatrix in="SourceAlpha" type="matrix" values="0 0 0 0 0 0 0 0 0 0 0 0 0 0 0 0 0 0 127 0" result="hardAlpha"/>
<feOffset/>
<feGaussianBlur stdDeviation="2.5"/>
<feComposite in2="hardAlpha" operator="out"/>
<feColorMatrix type="matrix" values="0 0 0 0 0.583333 0 0 0 0 0.583333 0 0 0 0 0.583333 0 0 0 1 0"/>
<feBlend mode="normal" in2="BackgroundImageFix" result="effect1_dropShadow_19_1503"/>
<feBlend mode="normal" in="SourceGraphic" in2="effect1_dropShadow_19_1503" result="shape"/>
</filter>
<filter id="filter5_d_19_1503" x="46.8704" y="-1" width="106" height="106" filterUnits="userSpaceOnUse" color-interpolation-filters="sRGB">
<feFlood flood-opacity="0" result="BackgroundImageFix"/>
<feColorMatrix in="SourceAlpha" type="matrix" values="0 0 0 0 0 0 0 0 0 0 0 0 0 0 0 0 0 0 127 0" result="hardAlpha"/>
<feOffset dy="4"/>
<feGaussianBlur stdDeviation="6"/>
<feComposite in2="hardAlpha" operator="out"/>
<feColorMatrix type="matrix" values="0 0 0 0 0 0 0 0 0 0 0 0 0 0 0 0 0 0 0.08 0"/>
<feBlend mode="normal" in2="BackgroundImageFix" result="effect1_dropShadow_19_1503"/>
<feBlend mode="normal" in="SourceGraphic" in2="effect1_dropShadow_19_1503" result="shape"/>
</filter>
<linearGradient id="paint0_linear_19_1503" x1="100" y1="7" x2="100" y2="89" gradientUnits="userSpaceOnUse">
<stop stop-color="#959595" stop-opacity="0.4"/>
<stop offset="1" stop-color="#959595" stop-opacity="0"/>
</linearGradient>
<linearGradient id="paint1_linear_19_1503" x1="-4.40863e-08" y1="57.4615" x2="200" y2="57.4615" gradientUnits="userSpaceOnUse">
<stop offset="0.213696" stop-color="#272A30" stop-opacity="0"/>
<stop offset="0.44823" stop-color="#272A30"/>
<stop offset="0.555274" stop-color="#272A30"/>
<stop offset="0.782592" stop-color="#272A30" stop-opacity="0"/>
</linearGradient>
<linearGradient id="paint2_linear_19_1503" x1="63.9954" y1="8.25684" x2="143.063" y2="79.6328" gradientUnits="userSpaceOnUse">
<stop stop-color="#FECF34"/>
<stop offset="1" stop-color="#FB45CD"/>
</linearGradient>
<linearGradient id="paint3_linear_19_1503" x1="63.9954" y1="8.25684" x2="143.063" y2="79.6328" gradientUnits="userSpaceOnUse">
<stop stop-color="#FFAF96"/>
<stop offset="1" stop-color="#F35662"/>
</linearGradient>
</defs>
</svg>
