<svg width="193" height="90" fill="none" xmlns="http://www.w3.org/2000/svg"><path d="M25.156 27.212c1.502 2.592 5.248 2.592 6.75 0 1.506-2.598-.37-5.849-3.375-5.849-3.004 0-4.88 3.25-3.375 5.849z" fill="url(#paint0_linear_35_223)"/><path d="M58.262 62.727c1.594-2.751 5.57-2.751 7.164 0 1.597 2.757-.394 6.207-3.582 6.207-3.188 0-5.179-3.45-3.582-6.207z" fill="url(#paint1_linear_35_223)"/><mask id="a" style="mask-type:alpha" maskUnits="userSpaceOnUse" x="15" y="15" width="61" height="60"><path d="M64.118 30.958c-2.05-1.022-3.843-2.681-4.868-4.851C55.79 19.085 50.666 15 45.158 15c-5.509 0-10.761 4.085-14.092 11.107-1.024 2.042-2.69 3.83-4.868 4.85C19.152 34.405 15.053 39.512 15.053 45c0 5.617 4.1 10.724 11.145 14.042 2.05 1.022 3.844 2.681 4.868 4.851C34.526 70.915 39.65 75 45.158 75c5.509 0 10.761-4.085 14.092-11.107 1.025-2.042 2.69-3.83 4.868-4.85C71.164 55.595 75.263 50.488 75.263 45c0-5.617-4.1-10.724-11.145-14.042z" fill="#F6F5F5"/></mask><g mask="url(#a)"><rect width="71.778" height="98.674" rx="35.889" transform="matrix(-.86754 -.49912 .35148 -.9353 58.93 108.849)" fill="url(#paint2_radial_35_223)" fill-opacity=".2"/><rect width="71.778" height="98.674" rx="35.889" transform="matrix(-.86754 -.49912 .35148 -.9353 58.93 108.849)" fill="url(#paint3_angular_35_223)" style="mix-blend-mode:difference"/><rect width="71.778" height="98.674" rx="35.889" transform="matrix(-.86754 -.49912 .35148 -.9353 58.93 108.849)" fill="url(#paint4_angular_35_223)" style="mix-blend-mode:screen"/><g style="mix-blend-mode:screen" opacity=".91" transform="matrix(.09124 .99553 -.96755 .25273 120.562 -50.32)"><rect width="147.801" height="170.296" rx="72" fill="url(#paint5_radial_35_223)"/><rect width="147.801" height="170.296" rx="72" fill="url(#paint6_angular_35_223)" style="mix-blend-mode:difference"/><rect width="147.801" height="170.296" rx="72" fill="url(#paint7_angular_35_223)" style="mix-blend-mode:screen"/></g></g><path d="M43.026 49.253l-1.273-11.57c-.068-.531-.335-1.063-.67-1.462L26.874 22.125a2.44 2.44 0 00-3.418 0l-10.32 10.24a2.395 2.395 0 000 3.39l14.14 14.163c.402.4.871.599 1.407.665l11.661 1.33a2.457 2.457 0 002.681-2.66z" fill="url(#paint8_linear_35_223)"/><path d="M47.828 40.932l1.286 11.57c.068.532.339 1.064.678 1.463L64.147 68.06c.948.93 2.505.93 3.453 0l10.43-10.24c.948-.93.948-2.46 0-3.391L63.74 40.267c-.407-.399-.88-.598-1.422-.665l-11.783-1.33c-1.557-.132-2.844 1.131-2.708 2.66z" fill="url(#paint9_linear_35_223)"/><path d="M88.684 54.321h2.79v-6.117h3.897c3.524 0 5.965-2.395 5.965-5.895v-.024c0-3.512-2.44-5.87-5.965-5.87h-6.687v17.906zm5.99-15.56c2.428 0 3.823 1.302 3.823 3.536v.025c0 2.246-1.395 3.549-3.823 3.549h-3.2v-7.11h3.2zm13.237 15.821c1.992 0 3.325-.906 4.01-2.221h.062v1.96h2.702V41.267h-2.702v7.62c0 2.034-1.22 3.387-3.113 3.387-1.868 0-2.79-1.092-2.79-3.065v-7.942h-2.689v8.463c0 3.003 1.643 4.852 4.52 4.852zm9.439-.261h2.69v-8.066c0-1.687 1.133-2.94 2.727-2.94 1.519 0 2.478.967 2.478 2.481v8.525h2.64v-8.165c0-1.65 1.108-2.841 2.702-2.841 1.594 0 2.503.98 2.503 2.68v8.326h2.702V45.35c0-2.619-1.693-4.331-4.284-4.331-1.867 0-3.412.98-4.084 2.569h-.062c-.523-1.639-1.843-2.57-3.649-2.57-1.718 0-3.051.907-3.611 2.272h-.062v-2.023h-2.69v13.054zm21.045 4.343h2.689v-6.54h.063c.772 1.515 2.278 2.458 4.134 2.458 3.287 0 5.442-2.618 5.442-6.775v-.013c0-4.17-2.142-6.775-5.48-6.775-1.867 0-3.312.943-4.096 2.494h-.063v-2.246h-2.689v17.397zm6.151-6.39c-2.03 0-3.474-1.762-3.474-4.467v-.013c0-2.717 1.432-4.48 3.474-4.48 2.105 0 3.437 1.7 3.437 4.48v.013c0 2.754-1.32 4.467-3.437 4.467zm9.8 2.233c.909 0 1.632-.72 1.632-1.625 0-.918-.723-1.626-1.632-1.626-.921 0-1.643.708-1.643 1.626a1.62 1.62 0 001.643 1.625zm4.197 4.157h2.689v-6.54h.063c.772 1.515 2.279 2.458 4.134 2.458 3.287 0 5.442-2.618 5.442-6.775v-.013c0-4.17-2.142-6.775-5.479-6.775-1.868 0-3.313.943-4.097 2.494h-.063v-2.246h-2.689v17.397zm6.151-6.39c-2.029 0-3.474-1.762-3.474-4.467v-.013c0-2.717 1.432-4.48 3.474-4.48 2.105 0 3.437 1.7 3.437 4.48v.013c0 2.754-1.32 4.467-3.437 4.467zm8.269 2.047h2.689v-7.78c0-1.948 1.071-3.078 2.802-3.078.523 0 .996.063 1.208.15v-2.495c-.212-.037-.548-.1-.934-.1-1.494 0-2.59.956-3.013 2.483h-.063v-2.234h-2.689v13.054zm13.423.261c3.749 0 6.214-2.581 6.214-6.788v-.025c0-4.181-2.49-6.75-6.226-6.75-3.723 0-6.201 2.58-6.201 6.75v.025c0 4.194 2.453 6.788 6.213 6.788zm.013-2.246c-2.105 0-3.474-1.65-3.474-4.542v-.025c0-2.854 1.382-4.504 3.449-4.504 2.104 0 3.474 1.65 3.474 4.504v.025c0 2.879-1.345 4.542-3.449 4.542z" fill="#fff"/><defs><radialGradient id="paint2_radial_35_223" cx="0" cy="0" r="1" gradientUnits="userSpaceOnUse" gradientTransform="rotate(83.794 9.798 32.433) scale(76.3828 56.169)"><stop stop-color="#D95C3E"/><stop offset=".206" stop-color="#FEDD32"/><stop offset=".421" stop-color="#F7B0F7" stop-opacity=".851"/><stop offset=".623" stop-color="#EEAC7C"/><stop offset=".805" stop-color="#F6F17E"/><stop offset="1" stop-color="#79A2F2"/></radialGradient><radialGradient id="paint3_angular_35_223" cx="0" cy="0" r="1" gradientUnits="userSpaceOnUse" gradientTransform="matrix(0 49.337 -35.889 0 35.889 49.337)"><stop stop-color="#fff"/><stop offset=".143"/><stop offset=".222" stop-color="#fff"/><stop offset=".393"/><stop offset=".539" stop-color="#fff"/><stop offset=".706"/><stop offset=".795" stop-color="#fff"/><stop offset=".92"/></radialGradient><radialGradient id="paint4_angular_35_223" cx="0" cy="0" r="1" gradientUnits="userSpaceOnUse" gradientTransform="matrix(0 49.337 -35.889 0 35.889 49.337)"><stop stop-color="#fff"/><stop offset=".143"/><stop offset=".222" stop-color="#fff"/><stop offset=".393"/><stop offset=".539" stop-color="#fff"/><stop offset=".706"/><stop offset=".795" stop-color="#fff"/><stop offset=".92"/></radialGradient><radialGradient id="paint5_radial_35_223" cx="0" cy="0" r="1" gradientUnits="userSpaceOnUse" gradientTransform="matrix(47.59035 161.78152 -144.07473 42.38164 53.8 2.385)"><stop stop-color="#D95C3E"/><stop offset=".206" stop-color="#FEDD32"/><stop offset=".421" stop-color="#F7B0F7" stop-opacity=".851"/><stop offset=".623" stop-color="#EEAC7C"/><stop offset=".805" stop-color="#F6F17E"/><stop offset="1" stop-color="#79A2F2"/></radialGradient><radialGradient id="paint6_angular_35_223" cx="0" cy="0" r="1" gradientUnits="userSpaceOnUse" gradientTransform="scale(73.9004 85.1481) rotate(90 0 1)"><stop stop-color="#fff"/><stop offset=".143"/><stop offset=".222" stop-color="#fff"/><stop offset=".393"/><stop offset=".539" stop-color="#fff"/><stop offset=".706"/><stop offset=".795" stop-color="#fff"/><stop offset=".92"/></radialGradient><radialGradient id="paint7_angular_35_223" cx="0" cy="0" r="1" gradientUnits="userSpaceOnUse" gradientTransform="scale(73.9004 85.1481) rotate(90 0 1)"><stop stop-color="#fff"/><stop offset=".143"/><stop offset=".222" stop-color="#fff"/><stop offset=".393"/><stop offset=".539" stop-color="#fff"/><stop offset=".706"/><stop offset=".795" stop-color="#fff"/><stop offset=".92"/></radialGradient><linearGradient id="paint0_linear_35_223" x1="26.3" y1="24.302" x2="33.149" y2="22.064" gradientUnits="userSpaceOnUse"><stop stop-color="#06050A"/><stop offset=".761" stop-color="#505050"/></linearGradient><linearGradient id="paint1_linear_35_223" x1="54.671" y1="62.739" x2="56.889" y2="68.463" gradientUnits="userSpaceOnUse"><stop stop-color="#89620D"/><stop offset="1" stop-color="#FFB40E"/></linearGradient><linearGradient id="paint8_linear_35_223" x1="45.108" y1="49.556" x2="10.607" y2="23.709" gradientUnits="userSpaceOnUse"><stop/><stop offset=".925" stop-color="#545454"/></linearGradient><linearGradient id="paint9_linear_35_223" x1="47.818" y1="40.82" x2="76.778" y2="57.108" gradientUnits="userSpaceOnUse"><stop stop-color="#FF9C07"/><stop offset="1" stop-color="#FFBF1A"/></linearGradient></defs></svg>