<svg width="610" height="284" fill="none" xmlns="http://www.w3.org/2000/svg"><path d="M84.304 95c2.31 4 8.083 4 10.392 0l10.825-18.75c2.31-4-.577-9-5.196-9h-21.65c-4.62 0-7.506 5-5.197 9L84.304 95z" fill="url(#paint0_linear_1_3)"/><path d="M188.804 187c2.309-4 8.083-4 10.392 0l12.124 21c2.31 4-.577 9-5.196 9h-24.248c-4.619 0-7.506-5-5.197-9l12.125-21z" fill="url(#paint1_linear_1_3)"/><mask id="a" style="mask-type:alpha" maskUnits="userSpaceOnUse" x="47" y="47" width="190" height="190"><path d="M201.133 97.453c-6.431-3.215-12.056-8.44-15.271-15.271-10.85-22.103-26.926-34.963-44.205-34.963-17.281 0-33.757 12.86-44.204 34.963-3.215 6.43-8.44 12.056-15.271 15.27-22.104 10.851-34.963 26.927-34.963 44.205 0 17.682 12.86 33.758 34.963 44.205 6.43 3.215 12.056 8.439 15.27 15.271 10.851 22.103 26.926 34.963 44.205 34.963 17.281 0 33.758-12.86 44.205-34.963 3.215-6.431 8.439-12.056 15.271-15.271 22.103-10.85 34.963-26.926 34.963-44.205 0-17.682-12.861-33.757-34.963-44.204z" fill="#F6F5F5"/></mask><g mask="url(#a)"><rect width="225.557" height="310.228" rx="72" transform="matrix(-.86603 -.5 .3507 -.93649 184.862 342.651)" fill="url(#paint2_radial_1_3)" fill-opacity=".2"/><rect width="225.557" height="310.228" rx="72" transform="matrix(-.86603 -.5 .3507 -.93649 184.862 342.651)" fill="url(#paint3_angular_1_3)" style="mix-blend-mode:difference"/><rect width="225.557" height="310.228" rx="72" transform="matrix(-.86603 -.5 .3507 -.93649 184.862 342.651)" fill="url(#paint4_angular_1_3)" style="mix-blend-mode:screen"/><g style="mix-blend-mode:screen" opacity=".91" transform="matrix(.09095 .99586 -.96732 .25356 378.194 -158.405)"><rect width="465.118" height="534.332" rx="72" fill="url(#paint5_radial_1_3)"/><rect width="465.118" height="534.332" rx="72" fill="url(#paint6_angular_1_3)" style="mix-blend-mode:difference"/><rect width="465.118" height="534.332" rx="72" fill="url(#paint7_angular_1_3)" style="mix-blend-mode:screen"/></g></g><path d="M134.969 155.046l-3.994-36.42c-.211-1.675-1.051-3.35-2.103-4.605L84.304 69.647c-2.942-2.93-7.778-2.93-10.721 0l-32.376 32.235c-2.943 2.93-2.943 7.744 0 10.675l44.359 44.583c1.261 1.256 2.733 1.884 4.415 2.093l36.579 4.186c4.835.419 8.83-3.559 8.41-8.372l-.001-.001z" fill="url(#paint8_linear_1_3)"/><path d="M150.031 128.853l4.036 36.42c.213 1.675 1.062 3.35 2.125 4.605l45.032 44.374c2.973 2.93 7.859 2.93 10.833 0l32.713-32.235c2.973-2.93 2.973-7.744 0-10.675l-44.821-44.583c-1.274-1.256-2.762-1.884-4.461-2.093l-36.96-4.186c-4.886-.419-8.922 3.559-8.497 8.373z" fill="url(#paint9_linear_1_3)"/><path d="M278.195 114.633h21.133c5.469 0 9.922 1.719 13.36 5.156 3.463 3.438 5.195 7.891 5.195 13.359 0 5.495-1.758 9.974-5.274 13.438-3.489 3.437-8.007 5.156-13.554 5.156h-12.11V171h-8.75v-56.367zm8.75 7.383v22.382h10.039c3.802 0 6.745-.976 8.828-2.929 2.084-1.953 3.126-4.714 3.126-8.281 0-3.542-1.042-6.29-3.126-8.243-2.057-1.953-4.986-2.929-8.789-2.929h-10.078zm72.813 7.89V171h-8.086v-6.953h-.195c-2.37 5.13-6.615 7.695-12.735 7.695-4.479 0-8.008-1.354-10.586-4.062-2.552-2.735-3.828-6.459-3.828-11.172v-26.602h8.438v24.961c0 3.151.742 5.547 2.226 7.188 1.485 1.614 3.672 2.422 6.563 2.422 3.021 0 5.403-.964 7.148-2.891s2.617-4.505 2.617-7.734v-23.946h8.438zM368.117 171v-41.094h8.047v6.914h.195c.938-2.317 2.435-4.166 4.493-5.547 2.057-1.38 4.453-2.07 7.187-2.07 2.839 0 5.247.703 7.227 2.11 2.005 1.406 3.424 3.385 4.257 5.937h.196c1.067-2.5 2.734-4.466 5-5.898 2.291-1.433 4.896-2.149 7.812-2.149 4.063 0 7.318 1.237 9.766 3.711 2.448 2.474 3.672 5.755 3.672 9.844V171h-8.477v-26.211c0-2.656-.69-4.713-2.07-6.172-1.354-1.458-3.281-2.187-5.781-2.187-2.5 0-4.545.833-6.133 2.5-1.563 1.666-2.344 3.802-2.344 6.406V171h-8.281v-26.836c0-2.37-.703-4.245-2.11-5.625-1.406-1.406-3.294-2.109-5.664-2.109-2.5 0-4.557.872-6.171 2.617-1.589 1.719-2.383 3.906-2.383 6.562V171h-8.438zm87.422-41.758c5.234 0 9.427 1.914 12.578 5.742 3.151 3.829 4.727 8.985 4.727 15.469 0 6.485-1.563 11.654-4.688 15.508-3.125 3.828-7.278 5.742-12.461 5.742-2.916 0-5.507-.664-7.773-1.992a13.371 13.371 0 01-5.156-5.469h-.196v20.352h-8.437v-54.688h8.164v7.071h.156c1.224-2.396 2.982-4.284 5.274-5.664 2.291-1.381 4.895-2.071 7.812-2.071zm-2.227 35.313c3.334 0 5.977-1.263 7.93-3.789 1.953-2.552 2.93-5.99 2.93-10.313 0-4.297-.977-7.721-2.93-10.273-1.953-2.552-4.596-3.828-7.93-3.828-3.229 0-5.833 1.289-7.812 3.867-1.979 2.578-2.969 5.989-2.969 10.234 0 4.271.977 7.695 2.93 10.274 1.979 2.552 4.596 3.828 7.851 3.828zm68.477-35.313c5.234 0 9.427 1.914 12.578 5.742 3.151 3.829 4.727 8.985 4.727 15.469 0 6.485-1.563 11.654-4.688 15.508-3.125 3.828-7.278 5.742-12.461 5.742-2.916 0-5.507-.664-7.773-1.992a13.371 13.371 0 01-5.156-5.469h-.196v20.352h-8.437v-54.688h8.164v7.071h.156c1.224-2.396 2.982-4.284 5.274-5.664 2.291-1.381 4.895-2.071 7.812-2.071zm-2.227 35.313c3.334 0 5.977-1.263 7.93-3.789 1.953-2.552 2.93-5.99 2.93-10.313 0-4.297-.977-7.721-2.93-10.273-1.953-2.552-4.596-3.828-7.93-3.828-3.229 0-5.833 1.289-7.812 3.867-1.979 2.578-2.969 5.989-2.969 10.234 0 4.271.977 7.695 2.93 10.274 1.979 2.552 4.596 3.828 7.851 3.828zM545.617 171v-41.094h8.047v6.992h.195c.677-2.395 1.888-4.27 3.633-5.625 1.745-1.354 3.828-2.031 6.25-2.031.807 0 1.771.104 2.891.313v7.851c-.755-.312-2.018-.468-3.789-.468-2.709 0-4.857.846-6.446 2.539-1.562 1.692-2.343 3.997-2.343 6.914V171h-8.438zm56.289-4.922c-3.541 3.802-8.268 5.703-14.179 5.703-5.912 0-10.638-1.901-14.18-5.703-3.542-3.828-5.313-9.036-5.313-15.625 0-6.562 1.771-11.745 5.313-15.547 3.542-3.828 8.268-5.742 14.18-5.742 5.911 0 10.638 1.914 14.179 5.742 3.542 3.802 5.313 8.985 5.313 15.547 0 6.589-1.771 11.797-5.313 15.625zm-14.179-1.25c3.359 0 6.015-1.263 7.968-3.789 1.953-2.526 2.93-6.055 2.93-10.586 0-4.505-.99-8.021-2.969-10.547-1.953-2.526-4.596-3.789-7.929-3.789-3.334 0-5.99 1.263-7.969 3.789-1.953 2.526-2.93 6.042-2.93 10.547 0 4.531.977 8.06 2.93 10.586 1.979 2.526 4.635 3.789 7.969 3.789z" fill="#fff"/><path d="M489.328 169.945c-.989.99-2.2 1.485-3.633 1.485-1.432 0-2.643-.495-3.633-1.485-.989-.989-1.484-2.2-1.484-3.632 0-1.433.495-2.644 1.484-3.633.99-.99 2.201-1.485 3.633-1.485 1.433 0 2.644.495 3.633 1.485.99.989 1.484 2.2 1.484 3.633 0 1.432-.494 2.643-1.484 3.632z" fill="#FFBF19"/><defs><radialGradient id="paint2_radial_1_3" cx="0" cy="0" r="1" gradientUnits="userSpaceOnUse" gradientTransform="rotate(83.797 30.775 101.93) scale(240.144 176.508)"><stop stop-color="#D95C3E"/><stop offset=".206" stop-color="#FEDD32"/><stop offset=".421" stop-color="#F7B0F7" stop-opacity=".851"/><stop offset=".623" stop-color="#EEAC7C"/><stop offset=".805" stop-color="#F6F17E"/><stop offset="1" stop-color="#79A2F2"/></radialGradient><radialGradient id="paint3_angular_1_3" cx="0" cy="0" r="1" gradientUnits="userSpaceOnUse" gradientTransform="scale(112.778 155.114) rotate(90 0 1)"><stop stop-color="#fff"/><stop offset=".143"/><stop offset=".222" stop-color="#fff"/><stop offset=".393"/><stop offset=".539" stop-color="#fff"/><stop offset=".706"/><stop offset=".795" stop-color="#fff"/><stop offset=".92"/></radialGradient><radialGradient id="paint4_angular_1_3" cx="0" cy="0" r="1" gradientUnits="userSpaceOnUse" gradientTransform="scale(112.778 155.114) rotate(90 0 1)"><stop stop-color="#fff"/><stop offset=".143"/><stop offset=".222" stop-color="#fff"/><stop offset=".393"/><stop offset=".539" stop-color="#fff"/><stop offset=".706"/><stop offset=".795" stop-color="#fff"/><stop offset=".92"/></radialGradient><radialGradient id="paint5_radial_1_3" cx="0" cy="0" r="1" gradientUnits="userSpaceOnUse" gradientTransform="rotate(73.562 79.648 116.975) scale(529.248 472.489)"><stop stop-color="#D95C3E"/><stop offset=".206" stop-color="#FEDD32"/><stop offset=".421" stop-color="#F7B0F7" stop-opacity=".851"/><stop offset=".623" stop-color="#EEAC7C"/><stop offset=".805" stop-color="#F6F17E"/><stop offset="1" stop-color="#79A2F2"/></radialGradient><radialGradient id="paint6_angular_1_3" cx="0" cy="0" r="1" gradientUnits="userSpaceOnUse" gradientTransform="scale(232.559 267.166) rotate(90 0 1)"><stop stop-color="#fff"/><stop offset=".143"/><stop offset=".222" stop-color="#fff"/><stop offset=".393"/><stop offset=".539" stop-color="#fff"/><stop offset=".706"/><stop offset=".795" stop-color="#fff"/><stop offset=".92"/></radialGradient><radialGradient id="paint7_angular_1_3" cx="0" cy="0" r="1" gradientUnits="userSpaceOnUse" gradientTransform="scale(232.559 267.166) rotate(90 0 1)"><stop stop-color="#fff"/><stop offset=".143"/><stop offset=".222" stop-color="#fff"/><stop offset=".393"/><stop offset=".539" stop-color="#fff"/><stop offset=".706"/><stop offset=".795" stop-color="#fff"/><stop offset=".92"/></radialGradient><linearGradient id="paint0_linear_1_3" x1="82.5" y1="76.5" x2="104" y2="69.5" gradientUnits="userSpaceOnUse"><stop stop-color="#06050A"/><stop offset=".761" stop-color="#505050"/></linearGradient><linearGradient id="paint1_linear_1_3" x1="171.5" y1="197.5" x2="178.5" y2="215.5" gradientUnits="userSpaceOnUse"><stop stop-color="#89620D"/><stop offset="1" stop-color="#FFB40E"/></linearGradient><linearGradient id="paint8_linear_1_3" x1="141.5" y1="155.999" x2="33" y2="74.999" gradientUnits="userSpaceOnUse"><stop/><stop offset=".925" stop-color="#545454"/></linearGradient><linearGradient id="paint9_linear_1_3" x1="150" y1="128.499" x2="241" y2="179.499" gradientUnits="userSpaceOnUse"><stop stop-color="#FF9C07"/><stop offset="1" stop-color="#FFBF1A"/></linearGradient></defs></svg>