<svg width="50" height="50" fill="none" xmlns="http://www.w3.org/2000/svg"><path d="M31.385 31.132c.726 1.258 2.542 1.258 3.268 0L49.36 5.66c.726-1.258-.181-2.83-1.634-2.83H18.313c-1.453 0-2.36 1.572-1.634 2.83l14.706 25.472z" fill="#D9D9D9"/><path d="M31.385 31.132c.726 1.258 2.542 1.258 3.268 0L49.36 5.66c.726-1.258-.181-2.83-1.634-2.83H18.313c-1.453 0-2.36 1.572-1.634 2.83l14.706 25.472z" fill="#F84545"/><path d="M15.347 17.924c.726-1.258 2.542-1.258 3.268 0l14.706 25.472c.726 1.258-.181 2.83-1.634 2.83H2.275c-1.453 0-2.36-1.572-1.634-2.83l14.706-25.472z" fill="#D9D9D9"/><path d="M15.347 17.924c.726-1.258 2.542-1.258 3.268 0l14.706 25.472c.726 1.258-.181 2.83-1.634 2.83H2.275c-1.453 0-2.36-1.572-1.634-2.83l14.706-25.472z" fill="#00C78C"/></svg>