<svg width="50" height="50" fill="none" xmlns="http://www.w3.org/2000/svg"><path d="M3.125 9.375A3.125 3.125 0 016.25 6.25h37.5a3.125 3.125 0 013.125 3.125H3.125zm21.875 25a6.25 6.25 0 100-12.5 6.25 6.25 0 000 12.5z" fill="#F84545"/><path d="M0 15.625A3.125 3.125 0 013.125 12.5h43.75A3.125 3.125 0 0150 15.625v25a3.125 3.125 0 01-3.125 3.125H3.125A3.125 3.125 0 010 40.625v-25zm9.375 0a6.25 6.25 0 01-6.25 6.25v12.5a6.25 6.25 0 016.25 6.25h31.25a6.25 6.25 0 016.25-6.25v-12.5a6.25 6.25 0 01-6.25-6.25H9.375z" fill="#000"/><path d="M0 15.625A3.125 3.125 0 013.125 12.5h43.75A3.125 3.125 0 0150 15.625v25a3.125 3.125 0 01-3.125 3.125H3.125A3.125 3.125 0 010 40.625v-25zm9.375 0a6.25 6.25 0 01-6.25 6.25v12.5a6.25 6.25 0 016.25 6.25h31.25a6.25 6.25 0 016.25-6.25v-12.5a6.25 6.25 0 01-6.25-6.25H9.375z" fill="#00C78C"/></svg>