<?xml version="1.0" encoding="utf-8"?><svg viewBox="0 0 1440 1611" xmlns="http://www.w3.org/2000/svg" xmlns:xlink="http://www.w3.org/1999/xlink"><style>:root>svg{display:none}:root>svg:target{display:block}</style><svg fill="none" viewBox="0 0 1440 1081" id="decorative-line-green" xmlns="http://www.w3.org/2000/svg"><path opacity=".8" d="M1570.22 3c-69.44 322.126-135.6 593.243-279.44 651.635-143.85 58.393-251.68-102.758-354.414-75.587-102.734 27.171-130.804 121.799-143.589 207.298-12.786 85.499-39.075 253.784-163.574 286.704-124.5 32.93-227.837-111.24-276.964-170.19-49.126-58.951-169.71-176.759-286.374-145.904C-50.8 787.812-64.861 875.528-178.051 894.864c-113.19 19.336-184.238-90.799-299.16-60.405-114.923 30.395-69.598 117.239-176.685 145.561" stroke="#09E079" stroke-width="5" stroke-linecap="round" stroke-linejoin="round"/></svg><svg fill="none" viewBox="0 0 1440 1611" id="decorative-line-salad" xmlns="http://www.w3.org/2000/svg"><path opacity=".8" d="M1799.67 3c-30.86 438.282-67.02 808.618-245.86 912.838-178.85 104.222-351.59-88.133-482.06-32.881-130.469 55.253-149.66 185.453-150.399 300.713-.74 115.26-3.68 342.34-161.794 409.3-158.113 66.96-321.718-103.83-397.686-172.37-75.968-68.54-362.37-93.6-481.871 0" stroke="#09E079" stroke-width="5" stroke-linecap="round" stroke-linejoin="round"/></svg><svg fill="none" viewBox="0 0 1440 900" id="decorative-line-yellow" xmlns="http://www.w3.org/2000/svg"><path opacity=".8" d="M-75.846 2c57.865 268.439 113 494.37 232.872 543.03 119.873 48.66 209.73-85.632 295.341-62.989 85.612 22.643 109.004 101.499 119.658 172.748 10.655 71.249 32.562 211.483 136.312 238.923 103.75 27.439 189.864-92.703 230.803-141.828 40.938-49.126 141.43-147.299 238.65-121.586 97.22 25.713 108.93 98.81 203.26 114.923 94.32 16.113 153.53-75.666 249.3-50.337 95.77 25.329 58 97.698 147.24 121.3" stroke="url(#cpaint0_linear_10_102)" stroke-width="3" stroke-linecap="round" stroke-linejoin="round"/><defs><linearGradient id="cpaint0_linear_10_102" x1="721.759" y1="897.262" x2="890.913" y2="257.69" gradientUnits="userSpaceOnUse"><stop stop-color="#FFA70D"/><stop offset="1" stop-color="#FFBF1A"/></linearGradient></defs></svg><svg fill="none" viewBox="0 0 10 5" id="icon-caret" xmlns="http://www.w3.org/2000/svg"><path d="M1 .5l4 4 4-4" stroke="#fff" stroke-linecap="round" stroke-linejoin="round"/></svg><svg fill="none" viewBox="0 0 25 24" id="icon-documents" xmlns="http://www.w3.org/2000/svg"><path d="M4.5 4v16a2 2 0 002 2h12a2 2 0 002-2V8.342a2 2 0 00-.602-1.43l-4.44-4.342A2 2 0 0014.06 2H6.5a2 2 0 00-2 2v0z" stroke="url(#epaint0_linear_35_803)" stroke-width="2" stroke-linecap="round" stroke-linejoin="round"/><path d="M9.5 13h6" stroke="url(#epaint1_linear_35_803)" stroke-width="2" stroke-linecap="round" stroke-linejoin="round"/><path d="M9.5 17h3" stroke="url(#epaint2_linear_35_803)" stroke-width="2" stroke-linecap="round" stroke-linejoin="round"/><path d="M14.5 2v4a2 2 0 002 2h4" stroke="url(#epaint3_linear_35_803)" stroke-width="2" stroke-linecap="round" stroke-linejoin="round"/><defs><linearGradient id="epaint0_linear_35_803" x1="4.5" y1="3.677" x2="20.98" y2="10.99" gradientUnits="userSpaceOnUse"><stop stop-color="#FF9C07"/><stop offset="1" stop-color="#FFA800"/></linearGradient><linearGradient id="epaint1_linear_35_803" x1="9.5" y1="13.084" x2="10.113" y2="15.122" gradientUnits="userSpaceOnUse"><stop stop-color="#FF9C07"/><stop offset="1" stop-color="#FFA800"/></linearGradient><linearGradient id="epaint2_linear_35_803" x1="9.5" y1="17.084" x2="10.481" y2="18.717" gradientUnits="userSpaceOnUse"><stop stop-color="#FF9C07"/><stop offset="1" stop-color="#FFA800"/></linearGradient><linearGradient id="epaint3_linear_35_803" x1="14.5" y1="2.503" x2="20.157" y2="5.641" gradientUnits="userSpaceOnUse"><stop stop-color="#FF9C07"/><stop offset="1" stop-color="#FFA800"/></linearGradient></defs></svg><svg fill="none" viewBox="0 0 25 24" id="icon-faq" xmlns="http://www.w3.org/2000/svg"><path d="M14.5 19c3.771 0 5.657 0 6.828-1.172C22.5 16.657 22.5 14.771 22.5 11c0-3.771 0-5.657-1.172-6.828C20.157 3 18.271 3 14.5 3h-4C6.729 3 4.843 3 3.672 4.172 2.5 5.343 2.5 7.229 2.5 11c0 3.771 0 5.657 1.172 6.828.653.654 1.528.943 2.828 1.07M12.5 11v.01M8.5 11v.01M16.5 11v.01" stroke="#171717" stroke-width="2" stroke-linecap="round" stroke-linejoin="round"/><path d="M14.5 19c-1.236 0-2.598.5-3.841 1.145-1.998 1.037-2.997 1.556-3.489 1.225-.492-.33-.399-1.355-.212-3.404L7 17.5" stroke="#171717" stroke-width="2" stroke-linecap="round" stroke-linejoin="round"/></svg><svg fill="none" viewBox="0 0 18 18" id="icon-mark" xmlns="http://www.w3.org/2000/svg"><g filter="url(#gfilter0_d_40_1390)"><path d="M9 0C4.038 0 0 4.038 0 9s4.038 9 9 9 9-4.038 9-9-4.038-9-9-9zm5.03 6.632l-5.752 5.706a.885.885 0 01-1.24.023L3.992 9.586a.915.915 0 01-.067-1.263.892.892 0 011.263-.045l2.413 2.21 5.143-5.142a.899.899 0 011.286 0c.361.36.361.925 0 1.286z" fill="#FFA204"/></g><defs><filter id="gfilter0_d_40_1390" x="-12" y="-10" width="42" height="42" filterUnits="userSpaceOnUse" color-interpolation-filters="sRGB"><feFlood flood-opacity="0" result="BackgroundImageFix"/><feColorMatrix in="SourceAlpha" values="0 0 0 0 0 0 0 0 0 0 0 0 0 0 0 0 0 0 127 0" result="hardAlpha"/><feOffset dy="2"/><feGaussianBlur stdDeviation="6"/><feComposite in2="hardAlpha" operator="out"/><feColorMatrix values="0 0 0 0 1 0 0 0 0 0.635294 0 0 0 0 0.0156863 0 0 0 0.4 0"/><feBlend in2="BackgroundImageFix" result="effect1_dropShadow_40_1390"/><feBlend in="SourceGraphic" in2="effect1_dropShadow_40_1390" result="shape"/></filter></defs></svg><svg fill="none" viewBox="0 0 6 11" id="icon-more" xmlns="http://www.w3.org/2000/svg"><path d="M1 1.5l4 4-4 4" stroke="currentColor" stroke-width="2" stroke-linecap="round" stroke-linejoin="round"/></svg><svg fill="none" viewBox="0 0 100 100" id="icon-telegram" xmlns="http://www.w3.org/2000/svg"><path fill-rule="evenodd" clip-rule="evenodd" d="M50 0c27.615 0 50 22.385 50 50s-22.385 50-50 50S0 77.615 0 50 22.385 0 50 0z" fill="url(#ipaint0_linear_35_814)"/><path d="M72.504 31.936l-7.12 35.888s-.995 2.489-3.732 1.295L45.227 56.525l-5.975-2.886-10.055-3.385s-1.543-.549-1.691-1.742c-.15-1.196 1.742-1.842 1.742-1.842l39.97-15.68s3.286-1.443 3.286.946z" fill="#FEFEFE"/><path d="M51.64 62.219l-6.993 6.377s-.545.414-1.145.154c-.88-.127-3.465-9.338-5.068-14.834l1.341-.853 11.866 9.156z" fill="#B5D2E5"/><path d="M43.502 68.75c-.953-.09-4.578-13.228-5.068-14.834l25.982-16.502c1.352-.82 2.074-.174.91.912-.803.75-20.41 18.375-20.41 18.375l-1.414 12.05z" fill="#D3E7F2"/><defs><linearGradient id="ipaint0_linear_35_814" x1="13.248" y1="16.098" x2="92.615" y2="76.168" gradientUnits="userSpaceOnUse"><stop stop-color="#28AAE0"/><stop offset="1" stop-color="#23B7EC"/></linearGradient></defs></svg></svg>